<svg width="847" height="104" viewBox="0 0 847 104" fill="none" xmlns="http://www.w3.org/2000/svg">
<g opacity="0.03" clip-path="url(#clip0_217_795)">
<path d="M364.954 58.9038C364.019 55.7223 365.255 53.9014 367.901 52.2756C371.209 50.2557 375.031 49.2343 378.906 49.3342C388.281 49.5893 394.619 58.1134 395.949 66.8426C397.195 75.0416 393.613 82.4301 386.945 87.1224C377.941 93.4604 366.7 93.2053 356.395 90.6241C350.247 89.0783 344.315 86.7722 338.457 84.376C332.454 81.9099 326.366 79.5587 320.383 77.0075C309.103 72.2002 298.212 66.5625 287.367 60.8747C278.058 56.0024 268.738 51.02 258.928 47.2032C253.881 45.2422 248.689 43.5764 243.496 42.0407C239.049 40.6557 234.477 39.714 229.845 39.2293C218.949 38.2289 207.674 39.1743 198.019 44.687C188.365 50.1996 181.011 60.8848 181.406 72.2602C181.756 83.0104 190.03 92.8701 200.25 95.8916C211.836 99.3132 223.041 93.2303 233.396 88.8082C244.156 84.216 256.827 81.0695 268.378 84.4661C272.545 85.6917 278.203 87.7427 279.829 92.2398C280.293 93.4657 280.356 94.8076 280.009 96.0717C280.214 95.5214 280.039 96.0317 279.739 96.2968C279.423 96.5758 279.089 96.8332 278.738 97.0671C277.764 97.7043 276.698 98.1869 275.577 98.4978C269.574 100.244 263.07 98.2027 257.688 95.4714C252.711 92.9702 248.273 89.5285 244.146 85.8067C235.852 78.3431 228.479 69.2088 218.404 64.0313C208.059 58.7237 196.238 58.3085 184.853 58.0584C170.651 57.7432 156.439 57.6282 142.232 57.6132C113.849 57.5832 85.4701 57.8233 57.0915 57.5181C50.0231 57.4131 43.0497 57.5281 36.0163 58.1234C35.311 58.1835 34.1704 60.8898 34.4756 60.9198C48.7775 62.2654 63.2144 61.9903 77.5713 62.0453C92.3534 62.1003 107.131 62.0453 121.913 62.0453C136.565 62.0453 151.217 62.0953 165.869 62.3154C172.817 62.4205 179.765 62.5355 186.704 62.7757C192.882 62.9858 199.09 63.406 205.113 64.8517C211.017 66.2207 216.582 68.7734 221.47 72.3553C226.158 75.8569 230.33 79.9539 234.477 84.0409C242.701 92.1248 251.805 101.049 263.531 103.475C268.573 104.506 274.206 104.015 278.218 100.524C281.219 97.8975 283.845 93.4404 283.26 89.3134C282.605 84.6812 278.183 82.4151 274.301 80.8093C268.628 78.5382 262.395 77.993 256.357 78.5382C250.385 79.1474 244.526 80.5766 238.944 82.7853C233.011 85.0814 227.388 88.1429 221.34 90.1388C215.798 91.9647 209.505 92.9452 203.772 91.4645C198.395 89.9983 193.611 86.8865 190.09 82.5652C186.224 77.9029 183.967 72.1101 184.458 65.9972C184.644 63.1839 185.446 60.4459 186.807 57.977C188.169 55.5081 190.056 53.3687 192.336 51.7103C201.886 44.4919 214.227 43.3063 225.798 44.2718C230.576 44.7162 235.296 45.6481 239.884 47.0531C245.312 48.6589 250.74 50.4147 256.002 52.4907C266.157 56.4926 275.787 61.7352 285.431 66.8226C296.822 72.8255 308.277 78.7283 320.183 83.6557C326.246 86.1669 332.324 88.6498 338.417 91.1043C344.495 93.5455 350.668 95.7315 357.171 96.8821C367.676 98.753 378.261 97.6024 386.725 90.6941C393.773 84.9463 399.316 75.8369 399.501 66.5625C399.671 58.1584 394.879 47.7885 386.265 45.2572C378.651 43.0162 369.537 46.2927 364.939 52.6958C363.034 55.3471 361.558 58.7437 362.808 61.9703C363.014 62.4955 365.245 59.8092 364.979 58.9038H364.954Z" fill="#F5F5F5"/>
<path d="M407.193 74.9209C407.498 69.3746 406.993 63.8134 405.693 58.413C404.042 51.3446 399.51 46.3372 393.687 42.1552C382.256 33.9462 368.735 38.6535 356.869 43.2307C368.695 29.299 382.627 33.2759 382.627 33.2759C379.72 33.0708 377.774 31.9653 375.728 31.0298C367.324 27.183 362.722 17.3382 363.722 8.39893C363.627 9.25434 367.724 14.757 368.545 15.6024C377.969 25.4871 386.784 25.107 394.992 31.1949C403.912 37.8231 409.114 48.8634 409.745 59.8387C409.695 59.8387 410.315 66.2217 407.193 74.9209Z" fill="#F5F5F5"/>
<path d="M412.01 48.3633C422.05 33.6512 415.642 17.1783 403.076 6.84329C399.955 4.28519 396.623 1.99591 393.116 0C399.734 8.23396 397.868 14.8021 399.714 23.9265C401.31 31.8003 408.339 37.398 410.319 45.3818C410.319 45.732 410.319 45.737 410.319 45.3818C411.525 40.5266 411.175 35.4153 409.319 30.7698C413.021 35.1469 414.176 42.6405 412.441 47.848L412.01 48.3633Z" fill="#F5F5F5"/>
<path d="M244.768 44.2064C241.081 41.0549 236.344 38.3436 232.017 36.2026C217.475 28.9241 201.117 33.1261 189.587 44.0964C187.168 46.3965 185.07 49.0112 183.349 51.8701C181.873 54.3363 179.067 58.4683 178.811 61.3747C178.811 61.3747 175.575 30.4048 209.791 25.6525C207.15 24.6921 199.091 23.8416 200.092 20.2799C200.622 18.404 203.093 17.2385 204.799 17.0734C204.804 17.0734 219.931 16.218 244.768 44.2064Z" fill="#F5F5F5"/>
<path d="M-0.00292969 60.7892C7.00044 57.4275 17.1853 53.4506 22.0427 55.0264C24.6839 56.1419 24.5439 59.4485 17.1853 60.404C26.1096 61.7646 25.1192 63.3354 24.3138 64.3008C19.6665 67.9276 5.21458 63.3454 -0.00292969 60.7992V60.7892Z" fill="#F5F5F5"/>
<path d="M48.8944 59.8991C41.0657 59.7691 30.1354 57.588 25.8834 65.6019C24.4477 68.3032 21.5563 78.1679 26.5787 78.6982C32.2114 79.2885 31.301 71.8049 31.9313 68.9285C32.8867 64.5764 36.3534 60.8696 47.7689 61.5499L48.8944 59.8991Z" fill="#F5F5F5"/>
<path d="M48.8944 59.7586C41.0657 59.8886 30.1354 62.0697 25.8834 54.0558C24.4477 51.3545 21.5563 41.4898 26.5787 40.9595C32.2114 40.3692 31.301 47.8528 31.9313 50.7292C32.8867 55.0813 36.3534 58.7881 47.7689 58.1028L48.8944 59.7586Z" fill="#F5F5F5"/>
<path d="M61.4761 59.8991C53.6523 59.7691 42.717 57.588 38.465 65.6019C37.0243 68.3032 34.1379 78.1679 39.1603 78.6982C44.793 79.2885 43.8826 71.8049 44.5179 68.9285C45.4684 64.5764 48.94 60.8696 60.3505 61.5499L61.4761 59.8991Z" fill="#F5F5F5"/>
<path d="M61.4761 59.7586C53.6523 59.8886 42.717 62.0697 38.465 54.0558C37.0243 51.3545 34.1379 41.4898 39.1603 40.9595C44.783 40.3692 43.8726 47.8528 44.5179 50.7292C45.4684 55.0813 48.94 58.7881 60.3505 58.1028L61.4761 59.7586Z" fill="#F5F5F5"/>
<path d="M141.737 77.4019C138.533 79.726 135.67 82.4875 133.232 85.6059C141.066 88.8975 148.07 78.6876 156.474 85.5409C158.189 86.9415 155.448 88.9325 158.93 89.8029C160.931 90.3031 162.882 87.6068 164.517 87.0216C168.91 85.4558 171.786 85.4608 176.398 85.3658C180.645 85.2807 184.817 84.7705 189.049 85.4608C178.109 74.3655 154.973 67.9424 141.737 77.4019Z" fill="#F5F5F5"/>
<path d="M108.603 60.689C103.761 60.509 98.4432 59.2984 93.791 57.9577C78.1735 53.4556 68.9841 39.2838 67.9386 23.4411C67.7181 20.1105 67.9487 16.7653 68.6239 13.4964C69.2092 10.68 69.9395 5.73763 71.7104 3.43652C71.7104 3.43652 48.3492 24.0364 70.3147 50.7042C67.7085 49.5687 61.2053 44.7364 59.5245 48.023C58.6491 49.7638 59.6646 52.28 60.8201 53.5706C60.8301 53.5906 71.3802 64.4659 108.603 60.689Z" fill="#F5F5F5"/>
<path d="M342.948 88.5427C338.691 86.2216 334.444 82.77 330.903 79.4984C318.927 68.4831 317.006 51.705 323.154 37.018C324.428 33.9448 326.111 31.0574 328.156 28.4338C329.932 26.1728 332.788 22.0808 335.4 20.8052C335.4 20.8052 305.31 28.844 313.099 62.5002C311.263 60.3492 307.596 53.1257 304.625 55.3468C303.069 56.5123 302.854 59.2186 303.309 60.8844C303.329 60.8844 307.942 75.3264 342.948 88.5427Z" fill="#F5F5F5"/>
<path d="M254.519 48.5839C254.463 48.8149 254.482 49.0573 254.572 49.2771C254.661 49.497 254.818 49.6832 255.019 49.8095C255.179 49.9096 255.429 49.8996 255.579 50.0246C255.729 50.1497 255.879 50.6049 256.029 50.815C256.575 51.5291 257.272 52.1134 258.07 52.5258C259.771 53.4112 261.967 53.5263 263.843 53.4212C268.057 53.2225 272.141 51.907 275.679 49.6094C280.436 46.4479 284.043 41.7006 286.684 36.7132C289.21 31.9559 291.186 26.5333 290.751 21.0757C290.38 16.452 288.448 12.0916 285.274 8.70975C282.379 5.60793 278.462 3.65419 274.243 3.20711C270.169 2.87317 266.102 3.93133 262.708 6.20855C260.646 7.6154 258.863 9.39306 257.45 11.4511C255.639 13.955 254.375 16.8114 253.738 19.8351C253.522 21.0486 253.482 22.2869 253.618 23.5119C253.695 24.0377 253.865 24.5458 254.119 25.0126C254.354 25.5128 254.619 26.1531 255.119 26.4233C255.294 26.5183 255.499 26.5833 255.664 26.6934C255.873 26.8821 256.043 27.1098 256.165 27.3637C256.49 27.8631 256.849 28.3395 257.24 28.7894C258.029 29.6944 258.943 30.4812 259.956 31.1255C260.933 31.8111 262.057 32.2583 263.238 32.4312C264.49 32.5805 265.76 32.4819 266.975 32.141C269.191 31.5007 271.062 30.04 272.627 28.3842C273.393 27.5738 274.098 26.7134 274.778 25.833L274.518 26.0431C275.279 25.923 275.869 24.7275 276.194 24.1372C276.655 23.4221 276.958 22.6173 277.085 21.776C277.085 21.5809 276.644 22.1312 276.639 22.3113C276.52 22.9632 276.253 23.5791 275.859 24.1122C275.737 24.3642 275.567 24.5901 275.359 24.7775C275.117 24.9037 274.9 25.0733 274.718 25.2777C273.642 26.6348 272.361 27.8161 270.922 28.7794C269.34 29.7583 267.463 30.1447 265.624 29.8699C264.623 29.7267 263.669 29.3478 262.843 28.7644C262.037 28.2114 261.3 27.5649 260.647 26.8385C259.967 26.0924 259.375 25.2718 258.881 24.3923C258.597 23.9654 258.375 23.5006 258.22 23.0116C258.07 22.3113 258.22 21.5509 258.12 20.8456C257.94 19.7401 257.895 18.6345 257.78 17.524C257.729 17.1176 257.717 16.7071 257.745 16.2984C257.745 16.1733 257.945 14.8727 257.915 14.8527C257.885 14.8327 257.8 15.3279 257.865 15.0828C257.895 14.9878 257.91 14.8877 257.935 14.7927C257.985 14.5976 258.04 14.4075 258.095 14.2174C258.125 14.1224 258.16 14.0273 258.185 13.9323C258.291 13.5921 257.935 14.5626 258.085 14.2374C258.11 14.1774 258.346 13.6321 258.336 13.6271C258.326 13.6221 257.925 14.4675 258.155 14.0323C258.195 13.9473 258.241 13.8572 258.286 13.7722C258.526 13.2719 257.74 14.6926 258.13 14.0473C258.21 13.9123 258.631 13.2419 258.21 13.9023C257.68 14.7226 258.356 13.7072 258.361 13.7122C258.366 13.7172 257.78 14.4425 258.095 14.0623L258.281 13.8372C258.406 13.6871 258.546 13.5471 258.661 13.397C258.691 13.357 258.16 13.8972 258.401 13.6821L258.621 13.5071C258.776 13.352 258.936 13.1969 259.121 13.0518C259.306 12.9068 259.521 12.7817 259.561 12.6617C259.561 12.6967 259.116 13.0118 259.441 12.7667L259.676 12.5816C259.991 12.3415 260.316 12.1164 260.647 11.9013C260.977 11.6862 261.407 11.4311 261.802 11.216L262.067 11.0759C261.752 11.241 262.187 11.0209 262.217 11.0059L262.758 10.7657C265.285 9.70339 268.028 9.25592 270.762 9.46011L270.471 9.4351C273.095 9.71019 275.622 10.5792 277.86 11.9763C280.394 13.4817 282.542 15.5578 284.133 18.0392L283.978 17.8041C285.015 19.4408 285.807 21.2205 286.329 23.0867C286.585 24.0103 286.773 24.9517 286.889 25.903C286.944 26.3682 286.984 26.8285 287.009 27.2937C287.009 27.6689 287.009 28.024 287.009 28.5343C286.979 29.4953 286.87 30.4523 286.684 31.3957C286.769 30.9554 286.624 31.6208 286.589 31.7508C286.529 31.9909 286.464 32.2311 286.394 32.4712C286.27 33.0221 286.103 33.5624 285.894 34.087C285.894 34.087 286.109 33.4967 285.924 34.0019C285.879 34.122 285.839 34.242 285.794 34.3571C285.704 34.5972 285.614 34.8573 285.519 35.0724C285.424 35.2875 285.329 35.5427 285.228 35.7778L285.078 36.1329C285.038 36.223 284.783 36.7232 284.998 36.318C285.213 35.9128 284.998 36.318 284.948 36.4181L284.778 36.7632C284.663 36.9984 284.548 37.2285 284.428 37.4586C284.383 37.5486 283.928 38.334 284.213 37.8738C284.498 37.4136 284.213 37.8438 284.168 37.9438L283.928 38.369C283.798 38.5941 283.663 38.8142 283.528 39.0393C283.463 39.1494 283.393 39.2594 283.323 39.3695C283.052 39.8047 283.388 39.2694 283.428 39.2144C283.087 39.7147 282.767 40.2149 282.427 40.6651C282.36 40.7782 282.281 40.8839 282.192 40.9803C282.247 40.9352 282.542 40.5401 282.237 40.9202L281.737 41.5355L281.237 42.1308L280.976 42.426C280.726 42.7111 281.036 42.3659 280.876 42.536C279.496 44.0128 277.913 45.2861 276.174 46.3178C273.084 48.0751 269.661 49.1673 266.124 49.5244C264.229 49.8168 262.293 49.6731 260.462 49.1042C259.611 48.8484 258.809 48.4509 258.09 47.9286C257.835 47.7235 257.42 47.2783 257.09 47.2333C256.665 47.1782 255.839 47.7335 255.589 47.1732C255.394 46.7731 254.544 48.3588 254.519 48.5739V48.5839Z" fill="#F5F5F5"/>
<path d="M403.622 79.9682C393.867 83.3698 396.498 98.5571 406.343 95.2756C414.767 92.4642 414.192 77.9872 403.622 79.9682Z" fill="#F5F5F5"/>
<path d="M483.828 59.8292C486.529 52.2956 479.431 46.7729 472.788 45.1821C468.891 44.2467 464.679 44.3567 461.017 46.0876C456.65 48.1486 453.514 52.3406 451.202 56.4576C446.64 64.5715 445.945 74.056 450.512 82.335C452.705 86.2639 455.754 89.6494 459.432 92.241C463.111 94.8326 467.324 96.564 471.762 97.3072C484.298 99.3482 496.899 94.6159 508.28 89.9287C520.401 84.9263 532.496 80.0389 544.227 74.1711C554.867 68.8535 565.237 63.0157 575.942 57.8182C585.638 53.1092 595.75 49.3095 606.147 46.4678C610.772 45.187 615.522 44.4072 620.314 44.1416C626.277 43.8365 632.425 43.9115 638.232 45.4022C649.468 48.2836 659.918 55.6572 662.049 67.708C663.079 73.5408 661.759 79.2785 657.877 83.7857C654.242 87.9979 649.277 90.8413 643.805 91.8446C631.109 94.0807 619.793 86.0568 608.378 82.0499C597.158 78.103 584.592 76.5072 573.476 81.5496C569.024 83.5756 565.472 86.7671 563.972 91.5794C563.41 93.2604 563.378 95.0734 563.88 96.7732C564.382 98.473 565.393 99.9778 566.778 101.084C570.975 104.531 577.163 104.471 582.14 103.14C587.888 101.599 593.211 98.4778 597.903 94.881C607.032 87.8777 614.216 78.6482 623.54 71.87C633.64 64.5464 645.976 63.1408 658.102 62.7356C672.404 62.2353 686.726 62.1403 701.038 62.0703C730.487 61.9152 759.931 62.1703 789.38 61.8301C796.568 61.7451 803.672 61.51 810.83 60.8947C811.541 60.8347 812.676 58.1284 812.376 58.0983C798.544 56.8077 784.573 57.5681 770.696 57.5981C756.389 57.6481 742.082 57.5981 727.775 57.5581C713.468 57.5181 699.177 57.4981 684.88 57.6431C677.823 57.7132 670.765 57.8282 663.705 57.9883C657.882 58.1184 652.034 58.2984 646.266 59.1939C640.662 59.9994 635.234 61.743 630.208 64.3514C625.106 67.0677 620.669 70.9195 616.472 74.8564C608.268 82.5451 600.649 91.3643 590.234 96.1366C584.882 98.5928 578.339 100.269 572.631 97.9975C569.329 96.6869 566.013 93.4954 566.628 89.6135C566.673 89.3408 566.744 89.0729 566.838 88.8131C566.838 88.8131 566.493 89.2283 566.803 88.9432C567.632 88.1498 568.568 87.4763 569.584 86.9422C572.198 85.5788 574.975 84.5534 577.848 83.8907C583.816 82.5501 590.039 82.8553 596.007 84.0308C601.809 85.2552 607.456 87.1209 612.845 89.5935C618.468 92.0947 624.065 94.856 630.143 96.0416C635.451 97.0721 640.899 97.1571 645.991 95.1562C650.904 93.1436 655.195 89.8639 658.427 85.6516C661.979 81.1494 664.685 75.8569 665.295 70.0841C665.842 64.4104 664.487 58.7159 661.443 53.8963C655.656 44.7419 643.805 39.8046 633.3 39.1592C628.047 38.8391 622.755 38.744 617.532 39.4394C612.828 40.1434 608.194 41.253 603.681 42.756C593.661 45.89 583.909 49.8263 574.522 54.5266C564.062 59.7692 553.827 65.4469 543.307 70.5693C531.741 76.2021 519.795 80.9944 507.83 85.7316C496.869 90.0787 484.118 94.4358 472.248 91.4544C463.743 89.3184 456.14 83.3055 452.623 75.2066C449.427 67.833 449.667 57.6331 456.48 52.2555C462.698 47.3482 472.803 48.9139 478.646 53.6812C480.912 55.5321 482.873 58.3785 481.912 61.4099C481.692 62.0953 481.912 62.1003 482.412 61.9102C483.013 61.6601 483.623 60.4095 483.818 59.8342L483.828 59.8292Z" fill="#F5F5F5"/>
<path d="M439.614 74.9209C439.322 69.3735 439.836 63.813 441.139 58.413C442.79 51.3446 447.317 46.3372 453.145 42.1552C464.576 33.9462 478.097 38.6535 489.968 43.2307C478.137 29.299 464.22 33.2759 464.22 33.2759C467.127 33.0708 469.073 31.9653 471.119 31.0298C479.528 27.183 484.125 17.3382 483.154 8.39893C483.249 9.25434 479.153 14.757 478.332 15.6024C468.903 25.4871 460.088 25.107 451.879 31.1949C442.96 37.8231 437.768 48.8634 437.132 59.8387C437.112 59.8387 436.492 66.2217 439.614 74.9209Z" fill="#F5F5F5"/>
<path d="M434.796 48.3633C424.751 33.6512 431.164 17.1783 443.73 6.84329C446.848 4.28411 450.179 1.99477 453.685 0C447.067 8.23396 448.938 14.8021 447.092 23.9265C445.496 31.8003 438.463 37.398 436.482 45.3818C436.482 45.732 436.482 45.737 436.512 45.3818C435.303 40.5268 435.653 35.4148 437.512 30.7698C433.81 35.1469 432.655 42.6405 434.391 47.848L434.796 48.3633Z" fill="#F5F5F5"/>
<path d="M602.037 44.2064C605.724 41.0549 610.456 38.3436 614.783 36.2026C629.33 28.9441 645.688 33.1461 657.199 44.1164C659.617 46.4141 661.712 49.0292 663.427 51.8901C664.927 54.3563 667.719 58.4883 667.969 61.3947C667.969 61.3947 671.21 30.4248 636.994 25.6725C639.655 24.727 647.719 23.8766 646.704 20.3149C646.173 18.439 643.702 17.2735 642.001 17.1084C642.001 17.0734 626.869 16.2179 602.037 44.2064Z" fill="#F5F5F5"/>
<path d="M846.803 60.7891C839.8 57.4275 829.615 53.4506 824.758 55.0163C822.121 56.1319 822.257 59.4384 829.61 60.3939C820.696 61.7546 821.686 63.3253 822.492 64.2908C827.139 67.9175 841.591 63.3353 846.803 60.7891Z" fill="#F5F5F5"/>
<path d="M797.912 59.8991C805.741 59.7691 816.671 57.588 820.923 65.6019C822.364 68.3032 825.25 78.1679 820.223 78.6982C814.6 79.2885 815.506 71.8049 814.87 68.9285C813.915 64.5764 810.448 60.8696 799.033 61.5499L797.912 59.8991Z" fill="#F5F5F5"/>
<path d="M797.912 59.7586C805.741 59.8886 816.671 62.0697 820.923 54.0558C822.364 51.3545 825.25 41.4898 820.223 40.9595C814.6 40.3692 815.506 47.8528 814.87 50.7292C813.915 55.0813 810.448 58.7881 799.033 58.1028L797.912 59.7586Z" fill="#F5F5F5"/>
<path d="M785.33 59.8991C793.159 59.7691 804.089 57.588 808.341 65.6019C809.782 68.3032 812.668 78.1679 807.651 78.6982C802.018 79.2885 802.928 71.8049 802.293 68.9285C801.338 64.5764 797.871 60.8696 786.456 61.5499L785.33 59.8991Z" fill="#F5F5F5"/>
<path d="M785.33 59.7586C793.159 59.8886 804.089 62.0697 808.341 54.0558C809.782 51.3545 812.668 41.4898 807.651 40.9595C802.018 40.3692 802.928 47.8528 802.293 50.7292C801.338 55.0813 797.871 58.7881 786.456 58.1028L785.33 59.7586Z" fill="#F5F5F5"/>
<path d="M705.067 77.4024C708.271 79.7265 711.133 82.488 713.571 85.6064C705.762 88.8979 698.724 78.688 690.335 85.5163C688.609 86.917 691.335 88.9079 687.878 89.7784C685.907 90.2786 683.927 87.5823 682.291 86.997C677.894 85.4313 675.027 85.4363 670.41 85.3412C666.158 85.2562 661.991 84.7459 657.754 85.4363C668.694 74.366 691.83 67.9429 705.067 77.4024Z" fill="#F5F5F5"/>
<path d="M738.194 60.689C743.042 60.5089 748.354 59.2984 753.012 57.9577C768.634 53.4556 777.818 39.2837 778.859 23.4411C779.079 20.1105 778.849 16.7653 778.174 13.4964C777.593 10.68 776.863 5.73763 775.092 3.43652C775.092 3.43652 798.453 24.0364 776.488 50.7042C779.089 49.5937 785.597 44.7614 787.263 48.068C788.143 49.8088 787.128 52.325 785.977 53.6156C785.977 53.5906 775.422 64.4659 738.194 60.689Z" fill="#F5F5F5"/>
<path d="M503.854 88.5431C508.117 86.222 512.359 82.7703 515.9 79.4988C527.906 68.4935 529.802 51.7304 523.664 37.0634C522.38 33.9824 520.688 31.0884 518.632 28.4592C516.856 26.1981 513.999 22.1062 511.388 20.8306C511.388 20.8306 541.478 28.8694 533.684 62.5256C535.52 60.3746 539.186 53.1511 542.188 55.3722C543.744 56.5377 543.949 59.244 543.494 60.9098C543.474 60.8848 538.866 75.3268 503.854 88.5431Z" fill="#F5F5F5"/>
<path d="M591.246 48.4276L591.201 48.5677L591.761 47.6322C591.966 47.3621 592.036 47.4221 591.721 47.3471C591.561 47.3121 591.381 47.2871 591.221 47.252C590.926 47.197 590.656 47.5422 590.491 47.7523C590.273 48.0134 590.019 48.2409 589.735 48.4276C589.37 48.6719 588.975 48.8686 588.56 49.0129C587.562 49.3824 586.515 49.5999 585.453 49.6582C583.175 49.7148 580.904 49.3953 578.73 48.7127C576.482 48.1221 574.336 47.198 572.362 45.9714C570.064 44.4867 568.048 42.6048 566.409 40.4138C564.682 38.0957 563.244 35.5759 562.127 32.9102C560.989 30.3956 560.236 27.7246 559.891 24.9863C559.759 23.7443 559.759 22.4916 559.891 21.2495C559.951 20.6643 560.046 20.079 560.151 19.4987C560.051 20.039 560.151 19.4587 560.181 19.3686C560.221 19.1986 560.261 19.0285 560.306 18.8684C560.396 18.5232 560.491 18.1881 560.596 17.8679C560.631 17.7579 560.676 17.6478 560.706 17.5328C560.511 18.2931 560.636 17.7329 560.706 17.5328C560.811 17.2576 560.921 16.9875 561.031 16.7174C561.142 16.4472 561.422 15.937 560.966 16.8474C561.021 16.7424 561.066 16.6373 561.116 16.5323C561.166 16.4272 561.272 16.2171 561.352 16.062L561.517 15.7569L561.232 16.2571C561.361 15.9333 561.541 15.6326 561.767 15.3667C561.767 15.3667 561.217 16.1821 561.537 15.7219L561.832 15.2967C561.902 15.2016 561.972 15.1116 562.037 15.0165C562.422 14.4813 561.537 15.6569 561.937 15.1516C562.157 14.8865 562.377 14.6264 562.607 14.3612C563.012 13.891 562.107 14.8615 562.567 14.4063L562.932 14.0361C563.177 13.796 563.433 13.5658 563.688 13.3357C563.783 13.2557 564.153 12.8355 563.753 13.2807C563.877 13.1605 564.012 13.0532 564.158 12.9606C564.453 12.7355 564.753 12.5203 565.063 12.3102C565.668 11.9105 566.294 11.5448 566.939 11.2147L567.019 11.1797L567.665 10.8946C567.935 10.7695 568.195 10.6394 568.465 10.5244C570.717 9.61375 573.153 9.24865 575.573 9.45887H575.283C580.061 9.85907 584.723 12.2052 587.359 16.3022L587.204 16.052C588.182 17.5794 588.801 19.3085 589.015 21.1095C589.068 21.556 589.078 22.0067 589.045 22.4551C589.015 22.9554 588.95 23.5106 588.91 24.0359C588.91 24.0709 588.91 24.4111 588.87 24.4211L588.94 24.1709L588.825 24.7262C588.825 24.7862 588.745 25.2265 588.825 24.9063C588.905 24.5861 588.825 24.9663 588.795 25.0214C588.69 25.4766 588.655 25.9118 588.595 26.372L589.05 25.0664C588.945 25.2865 588.835 25.5016 588.72 25.7167C588.93 25.3215 588.675 25.7667 588.59 25.9168C588.505 26.0669 588.63 25.8568 588.645 25.8317L588.435 26.1369C588.36 26.2369 588.29 26.342 588.215 26.437C588.34 26.277 588.215 26.407 588.164 26.4921C587.605 27.1577 586.977 27.7615 586.289 28.2929C585.553 28.9117 584.703 29.3807 583.787 29.6736C582.454 30.0463 581.052 30.1047 579.692 29.8443C578.332 29.5839 577.05 29.0118 575.949 28.1729C575.241 27.674 574.572 27.1222 573.948 26.5221C573.447 26.0218 572.892 25.2315 572.292 24.9013C571.753 24.5664 571.309 24.0998 571.001 23.5456C570.604 23.0253 570.33 22.4215 570.201 21.7798C570.201 21.6497 569.956 21.9349 569.946 21.9499C569.832 22.0774 569.765 22.2396 569.756 22.4101C569.864 23.2365 570.142 24.0318 570.571 24.7462C570.739 25.0898 570.942 25.415 571.176 25.7167C571.276 25.8289 571.385 25.9326 571.501 26.0268C571.536 26.0569 571.586 26.0268 571.622 26.0819C571.758 26.2096 571.877 26.3542 571.977 26.5121C573.292 28.358 574.793 30.1888 576.769 31.3594C578.745 32.53 581.426 33.0602 583.522 32.1098C585.878 30.9533 587.87 29.1707 589.28 26.9573C589.767 26.2588 590.206 25.5285 590.596 24.7712C589.985 26.0268 590.045 25.6367 590.286 25.3265C590.526 25.0164 590.666 24.7462 590.786 24.5261C591.201 23.8706 591.564 23.1831 591.871 22.4701C591.991 22.19 592.111 21.9049 592.216 21.6147C592.321 21.3246 592.432 20.9744 592.557 20.6593C592.241 21.4496 592.662 20.3341 592.687 20.2591C592.958 19.4325 593.126 18.5756 593.187 17.7078C593.359 15.4686 592.9 13.226 591.861 11.2347C589.955 7.62799 586.514 5.1368 582.657 3.94122C578.814 2.68824 574.645 2.89664 570.946 4.5265C568.584 5.55801 566.42 6.99163 564.548 8.76354C562.212 11.0757 560.269 13.7539 558.795 16.6924C556.399 21.3696 555.154 26.8572 556.469 32.0497C557.758 37.033 560.29 41.6078 563.828 45.3461C565.535 47.185 567.477 48.7897 569.606 50.1184C571.469 51.212 573.478 52.0357 575.573 52.5646C579.45 53.6051 584.503 54.2504 587.994 51.8142C588.986 51.1105 589.835 50.2243 590.496 49.203L589.66 50.0034C590.349 49.9207 590.984 49.5899 591.446 49.0729C591.841 48.6227 592.396 47.8323 592.256 47.182C592.201 46.9319 591.811 47.3721 591.756 47.4121C591.496 47.6991 591.305 48.0411 591.196 48.4126L591.246 48.4276Z" fill="#F5F5F5"/>
<path d="M443.209 79.9682C452.964 83.3698 450.327 98.5571 440.483 95.2756C432.059 92.4642 432.639 77.9872 443.209 79.9682Z" fill="#F5F5F5"/>
</g>
<defs>
<clipPath id="clip0_217_795">
<rect width="846.807" height="104" fill="white"/>
</clipPath>
</defs>
</svg>
