<svg width="309" height="472" viewBox="0 0 309 472" fill="none" xmlns="http://www.w3.org/2000/svg">
<g filter="url(#filter0_b_291_47)">
<rect y="78.0001" width="309" height="316" rx="24" fill="white" fill-opacity="0.01"/>
<rect x="0.5" y="78.5001" width="308" height="315" rx="23.5" stroke="white" stroke-opacity="0.2"/>
</g>
<g opacity="0.8">
<path fill-rule="evenodd" clip-rule="evenodd" d="M184.531 439.987C184.487 440.041 184.208 440.259 183.928 440.462C183.579 440.713 183.168 440.856 182.606 440.95C182.162 441.006 181.278 441.005 180.649 440.942C180.02 440.88 178.985 440.698 178.363 440.553C177.733 440.401 176.384 439.967 175.369 439.594C174.346 439.215 172.837 438.594 172.003 438.218C171.175 437.834 170.44 437.48 170.387 437.437C170.324 437.386 170.32 437.28 170.378 437.209C170.436 437.137 171.347 437.013 172.411 436.938C173.459 436.864 174.76 436.788 175.3 436.778C175.839 436.768 176.79 436.779 177.415 436.809C178.047 436.83 179.039 436.919 179.621 437.003C180.211 437.077 181.073 437.253 181.529 437.384C181.985 437.514 182.664 437.808 183.048 438.028C183.528 438.295 183.833 438.54 184.08 438.857C184.277 439.089 184.469 439.42 184.528 439.586C184.578 439.744 184.581 439.924 184.531 439.987ZM177.911 446.389C177.695 446.658 177.348 446.926 176.99 447.096C176.679 447.244 176.171 447.398 175.887 447.42C175.587 447.445 175.047 447.365 174.689 447.24C174.323 447.108 173.707 446.791 172.623 446.082L172.879 446.775C173.011 447.161 173.157 447.751 173.21 448.089C173.254 448.42 173.235 448.921 173.167 449.191C173.098 449.46 172.89 449.884 172.688 450.135C172.487 450.386 172.202 450.63 172.035 450.673C171.87 450.732 171.485 450.733 171.185 450.684C170.869 450.636 170.348 450.439 170.009 450.255C169.669 450.071 169.215 449.736 168.588 449.084L168.621 449.613C168.645 449.913 168.619 450.35 168.572 450.592C168.514 450.885 168.33 451.224 168.013 451.619C167.667 452.05 167.411 452.257 167.044 452.42C166.764 452.549 166.372 452.633 166.172 452.605C165.883 452.58 165.612 452.421 165.029 451.953C164.417 451.446 164.213 451.223 163.96 450.71C163.792 450.369 163.556 449.78 163.442 449.408C163.318 449.029 163.112 448.184 162.989 447.509C162.857 446.828 162.702 445.478 162.645 444.502C162.578 443.519 162.546 441.943 162.565 440.999C162.583 440.04 162.647 438.6 162.716 437.799C162.813 436.593 162.88 436.307 163.049 436.281C163.154 436.261 164.099 436.445 165.122 436.677C166.163 436.907 167.528 437.266 168.18 437.465C168.832 437.664 169.947 438.058 170.656 438.332C171.366 438.607 172.434 439.096 173.041 439.406C173.64 439.726 174.545 440.29 175.06 440.66C175.708 441.121 176.207 441.566 176.648 442.083C177.04 442.531 177.452 443.157 177.678 443.648C177.882 444.092 178.098 444.797 178.16 445.216C178.243 445.903 178.228 445.995 177.911 446.389ZM178.35 433.9C178.256 434.016 177.999 434.208 177.774 434.323C177.551 434.454 177.236 434.57 177.076 434.604C176.923 434.628 176.627 434.612 176.417 434.561C176.199 434.519 175.853 434.344 175.628 434.164C175.404 433.984 175.141 433.669 175.053 433.465C174.956 433.255 174.909 432.818 174.94 432.504C174.975 432.074 175.071 431.826 175.325 431.529C175.514 431.312 175.845 431.046 176.055 430.95C176.259 430.862 176.602 430.784 176.832 430.791C177.046 430.801 177.416 430.891 177.649 431.005C177.958 431.135 178.165 431.301 178.329 431.537C178.457 431.727 178.623 432.053 178.687 432.267C178.759 432.472 178.746 432.874 178.655 433.171C178.572 433.458 178.436 433.792 178.35 433.9ZM159.957 456.41C159.756 456.588 159.444 456.81 159.264 456.887C159.023 457.003 158.89 456.985 158.684 456.819C158.532 456.697 158.308 456.369 158.163 456.09C158.017 455.811 157.846 455.29 157.775 454.937C157.704 454.585 157.671 453.909 157.693 453.44C157.725 452.978 157.814 452.224 157.903 451.764C157.983 451.297 158.235 450.303 158.465 449.558C158.686 448.806 159.185 447.45 159.567 446.532C159.943 445.623 160.512 444.383 160.822 443.776C161.132 443.169 161.423 442.679 161.48 442.681C161.529 442.676 161.63 443.229 161.702 443.893C161.784 444.563 161.873 445.83 161.903 446.711C161.934 447.592 161.937 448.893 161.907 449.592C161.885 450.298 161.779 451.423 161.695 452.079C161.611 452.735 161.402 453.674 161.241 454.15C161.089 454.633 160.806 455.262 160.633 455.551C160.46 455.84 160.157 456.216 159.957 456.41ZM174.355 434.647C174.333 434.674 173.9 434.901 173.38 435.162C172.867 435.415 172.178 435.703 171.846 435.804C171.522 435.913 170.801 436.057 170.262 436.141C169.722 436.224 168.892 436.266 168.423 436.243C167.961 436.212 167.104 436.084 166.524 435.943C165.944 435.801 165.008 435.478 164.448 435.22C163.88 434.971 162.94 434.451 162.349 434.065C161.759 433.68 161.114 433.251 160.538 432.847L160.752 433.683C160.859 434.138 161.03 435.175 161.109 435.977C161.188 436.779 161.227 438.035 161.193 438.775C161.15 439.508 160.972 440.723 160.809 441.477C160.638 442.241 160.377 443.153 160.22 443.514C160.072 443.882 159.823 444.45 159.679 444.776C159.534 445.103 158.93 446.02 158.345 446.805C157.696 447.686 157.276 448.19 157.244 448.12C157.228 448.048 157.634 447.414 158.145 446.704C158.778 445.824 159.236 445.07 159.554 444.381C159.803 443.813 160.148 442.925 160.304 442.4C160.468 441.883 160.669 440.952 160.757 440.329C160.853 439.713 160.929 438.681 160.932 438.034C160.944 437.394 160.871 436.273 160.783 435.538C160.687 434.811 160.515 433.832 160.392 433.378C160.189 432.566 160.151 432.521 159.383 431.786C158.945 431.375 158.21 430.637 157.747 430.147C157.285 429.657 156.534 428.774 156.069 428.194C155.605 427.614 154.779 426.493 154.241 425.692C153.696 424.9 153.198 424.161 153.137 424.053C153.017 423.853 152.972 423.891 151.846 425.421C151.196 426.286 150.348 427.525 149.953 428.182C149.55 428.831 148.906 429.982 148.52 430.72C148.126 431.467 147.536 432.808 147.193 433.713C146.858 434.625 146.466 435.904 146.324 436.558C146.183 437.212 146.026 438.179 145.978 438.716C145.929 439.237 145.929 440.211 145.983 440.86C146.038 441.509 146.206 442.456 146.367 442.954C146.521 443.461 146.783 444.145 146.936 444.488C147.086 444.816 147.467 445.462 147.786 445.91C148.096 446.351 148.586 446.936 148.871 447.224C149.154 447.496 149.348 447.77 149.312 447.814C149.269 447.868 149.069 447.767 148.863 447.601C148.648 447.428 148.201 446.937 147.866 446.491C147.531 446.044 147.054 445.278 146.804 444.781C146.553 444.285 146.24 443.517 146.103 443.081C145.967 442.662 145.794 441.756 145.72 441.077C145.648 440.413 145.627 439.393 145.662 438.816C145.706 438.246 145.865 437.222 146.01 436.527C146.164 435.839 146.362 435.023 146.459 434.718C146.564 434.404 146.618 434.152 146.595 434.163C146.57 434.158 146.246 434.34 145.879 434.577C145.503 434.806 144.798 435.169 144.323 435.393C143.839 435.61 143.053 435.908 142.56 436.044C142.077 436.187 141.201 436.339 140.619 436.403C140.036 436.466 139.005 436.464 138.327 436.407C137.641 436.343 136.631 436.167 136.058 436.016C135.492 435.857 134.609 435.56 134.093 435.338C133.571 435.125 133.129 434.903 133.097 434.833C133.061 434.755 133.092 434.716 133.191 434.717C133.273 434.724 133.733 434.887 134.214 435.096C134.696 435.305 135.554 435.597 136.12 435.756C136.686 435.915 137.613 436.084 138.175 436.137C138.737 436.191 139.825 436.178 140.585 436.095C141.354 436.02 142.388 435.817 142.885 435.64C143.39 435.47 144.073 435.207 144.41 435.064C144.744 434.905 145.439 434.518 146.86 433.594L147.263 432.633C147.491 432.093 147.902 431.213 148.178 430.667C148.463 430.129 148.997 429.17 149.365 428.565C149.731 427.944 150.591 426.671 151.267 425.738C151.959 424.803 152.638 423.903 152.784 423.739C152.93 423.576 153.09 423.469 153.135 423.505C153.18 423.541 153.581 424.143 154.034 424.847C154.488 425.551 155.244 426.63 155.713 427.259C156.19 427.878 156.993 428.863 157.506 429.437C158.019 430.011 158.986 430.994 159.66 431.625C160.554 432.46 161.217 432.994 162.127 433.607C162.817 434.072 163.82 434.642 164.346 434.887C164.879 435.124 165.7 435.443 166.156 435.574C166.612 435.704 167.432 435.86 167.96 435.901C168.481 435.95 169.349 435.954 169.876 435.905C170.41 435.846 171.228 435.692 171.711 435.549C172.186 435.399 172.947 435.095 173.389 434.875C173.839 434.646 174.248 434.486 174.301 434.53C174.355 434.573 174.377 434.62 174.355 434.647ZM173.48 433.531C173.379 433.656 173.182 433.719 172.982 433.691C172.691 433.649 172.637 433.606 172.534 433.331C172.466 433.158 172.468 432.953 172.525 432.882C172.583 432.81 172.734 432.695 172.867 432.64C173.008 432.575 173.207 432.603 173.367 432.716C173.509 432.815 173.634 432.99 173.639 433.112C173.644 433.234 173.574 433.414 173.48 433.531ZM170.588 434.558C170.502 434.666 170.349 434.764 170.236 434.777C170.122 434.789 169.925 434.704 169.79 434.596C169.623 434.462 169.559 434.302 169.599 434.118C169.639 433.958 169.742 433.775 169.842 433.723C169.941 433.655 170.168 433.63 170.337 433.677C170.604 433.73 170.651 433.782 170.697 434.055C170.724 434.224 170.675 434.45 170.588 434.558ZM154.965 451.692C154.78 451.867 154.427 452.086 154.173 452.163C153.929 452.247 153.505 452.26 153.228 452.2C152.892 452.122 152.621 451.964 152.329 451.684C152.092 451.465 151.857 451.114 151.784 450.893C151.718 450.662 151.715 450.262 151.768 449.994C151.829 449.733 152.008 449.346 152.167 449.148C152.332 448.942 152.683 448.707 152.989 448.584C153.335 448.448 153.69 448.409 154.01 448.489C154.287 448.549 154.648 448.706 154.8 448.828C154.962 448.958 155.188 449.228 155.282 449.422C155.394 449.615 155.499 449.98 155.509 450.224C155.528 450.476 155.477 450.833 155.416 451.02C155.354 451.207 155.151 451.516 154.965 451.692ZM168.105 434.526C168.004 434.652 167.806 434.714 167.607 434.687C167.316 434.645 167.262 434.602 167.158 434.327C167.09 434.154 167.092 433.949 167.15 433.877C167.208 433.806 167.359 433.691 167.492 433.635C167.632 433.571 167.832 433.598 167.991 433.712C168.133 433.811 168.259 433.986 168.264 434.108C168.269 434.23 168.198 434.41 168.105 434.526ZM147.736 458.578C147.507 458.881 147.233 459.149 147.147 459.183C147.037 459.227 146.786 459.099 146.4 458.789C145.917 458.416 145.745 458.189 145.45 457.583C145.257 457.162 145.012 456.346 144.914 455.751C144.819 455.172 144.704 454.268 144.672 453.756C144.641 453.243 144.628 452.303 144.649 451.671C144.671 451.038 144.726 450.05 144.771 449.48C144.815 448.911 144.985 447.615 145.136 446.6C145.296 445.592 145.474 444.746 145.539 444.739C145.612 444.739 145.936 445.383 146.262 446.191C146.587 446.998 147.064 448.297 147.331 449.086C147.59 449.885 147.936 451.181 148.112 451.972C148.288 452.764 148.478 453.905 148.527 454.506C148.577 455.106 148.586 455.94 148.54 456.346C148.494 456.752 148.391 457.303 148.313 457.566C148.235 457.828 147.974 458.282 147.736 458.578ZM156.177 446.067C156.148 446.103 155.992 446.169 155.826 446.228C155.668 446.278 155.443 446.245 155.327 446.152C155.219 446.065 155.112 445.905 155.099 445.792C155.096 445.686 155.172 445.481 155.28 445.346C155.41 445.185 155.573 445.11 155.733 445.15C155.875 445.175 156.021 445.233 156.074 445.276C156.128 445.319 156.18 445.494 156.199 445.672C156.219 445.85 156.213 446.022 156.177 446.067ZM165.169 433.954C165.061 434.089 164.887 434.214 164.773 434.227C164.66 434.239 164.49 434.176 164.391 434.096C164.292 434.017 164.197 433.823 164.18 433.661C164.155 433.508 164.2 433.323 164.258 433.251C164.315 433.18 164.495 433.103 164.657 433.085C164.81 433.06 164.993 433.089 165.056 433.14C165.126 433.181 165.224 433.334 165.28 433.467C165.328 433.609 165.285 433.811 165.169 433.954ZM157.894 442.827C157.858 442.871 157.727 442.943 157.599 442.973C157.472 443.004 157.283 443 157.19 442.969C157.096 442.938 156.973 442.78 156.914 442.614C156.855 442.449 156.889 442.24 156.997 442.106C157.105 441.971 157.301 441.893 157.476 441.915C157.65 441.936 157.831 442.023 157.882 442.108C157.932 442.192 157.976 442.376 157.965 442.5C157.97 442.622 157.938 442.773 157.894 442.827ZM159.007 440.872C158.89 440.925 158.703 440.938 158.592 440.892C158.482 440.863 158.33 440.741 158.253 440.635C158.176 440.529 158.147 440.343 158.193 440.232C158.238 440.121 158.353 439.977 158.459 439.9C158.558 439.832 158.752 439.811 158.88 439.854C159.007 439.898 159.169 440.027 159.237 440.126C159.305 440.225 159.326 440.419 159.29 440.538C159.247 440.665 159.131 440.809 159.007 440.872ZM160.029 437.781C159.935 437.897 159.75 437.999 159.62 438.014C159.491 438.028 159.315 437.99 159.243 437.932C159.171 437.874 159.093 437.678 159.073 437.5C159.054 437.322 159.088 437.114 159.146 437.042C159.204 436.97 159.367 436.895 159.497 436.881C159.626 436.867 159.837 436.918 159.96 437.002C160.084 437.087 160.183 437.24 160.188 437.362C160.193 437.485 160.123 437.664 160.029 437.781ZM154.594 444.161C154.082 444.798 153.493 445.476 153.299 445.644C153.097 445.822 152.901 445.974 152.852 445.979C152.804 445.985 152.528 445.704 152.237 445.367C151.954 445.022 151.533 444.462 151.323 444.116C151.106 443.78 150.813 443.19 150.666 442.821C150.52 442.452 150.312 441.828 150.214 441.454C150.114 441.064 149.987 440.194 149.929 439.513C149.862 438.824 149.855 437.785 149.899 437.216C149.953 436.653 150.12 435.563 150.291 434.799C150.452 434.029 150.756 432.915 150.952 432.305C151.156 431.701 151.571 430.633 151.873 429.945C152.183 429.264 152.582 428.419 152.757 428.072C152.941 427.733 153.167 427.397 153.267 427.345C153.435 427.229 153.499 427.296 154.008 428.132C154.325 428.638 154.826 429.557 155.132 430.187C155.439 430.817 155.825 431.732 156.002 432.228C156.186 432.716 156.441 433.629 156.591 434.251C156.74 434.874 156.888 435.774 156.93 436.236C156.965 436.707 156.978 437.5 156.952 438.01C156.934 438.528 156.845 439.282 156.751 439.694C156.665 440.112 156.52 440.66 156.443 440.922C156.356 441.177 156.116 441.752 155.91 442.192C155.65 442.736 155.219 443.364 154.594 444.161ZM162.567 432.38C162.376 432.581 162.232 432.613 161.995 432.541C161.74 432.454 161.673 432.371 161.636 432.105C161.617 431.927 161.651 431.719 161.709 431.647C161.767 431.575 161.947 431.498 162.108 431.481C162.261 431.456 162.444 431.485 162.507 431.535C162.577 431.577 162.668 431.739 162.724 431.872C162.794 432.061 162.75 432.188 162.567 432.38ZM164.796 429.256C164.747 429.335 164.468 429.553 164.202 429.738C163.928 429.931 163.5 430.134 163.245 430.194C162.997 430.246 162.54 430.263 162.231 430.207C161.924 430.166 161.382 429.996 161.021 429.839C160.583 429.65 159.99 429.248 159.201 428.614C158.438 428.001 157.717 427.318 157.109 426.623C156.597 426.049 155.811 425.079 155.369 424.472C154.926 423.866 154.46 423.196 154.347 422.988C154.215 422.748 154.199 422.603 154.299 422.624C154.382 422.632 154.723 422.906 155.062 423.237C155.392 423.561 156.434 424.487 157.365 425.294C158.476 426.245 159.343 426.912 159.842 427.209C160.271 427.466 160.797 427.711 160.998 427.755C161.35 427.831 161.404 427.8 161.786 427.325C162.06 426.984 162.353 426.747 162.627 426.627C162.853 426.529 163.197 426.451 163.385 426.455C163.574 426.459 163.939 426.574 164.192 426.719C164.452 426.854 164.766 427.106 164.883 427.274C165.008 427.448 165.126 427.779 165.136 428.023C165.154 428.259 165.117 428.598 165.031 428.78C164.953 428.968 164.854 429.184 164.796 429.256ZM150.713 446.622C150.626 446.73 150.466 446.837 150.353 446.85C150.239 446.862 150.051 446.784 149.925 446.683C149.8 446.583 149.683 446.415 149.671 446.302C149.667 446.196 149.722 446.018 149.815 445.901C149.916 445.776 150.114 445.713 150.314 445.741C150.605 445.783 150.658 445.826 150.762 446.101C150.832 446.29 150.806 446.505 150.713 446.622ZM159.596 434.791C159.478 434.902 159.298 434.979 159.183 434.976C159.075 434.963 158.89 434.844 158.775 434.693C158.634 434.52 158.616 434.358 158.724 434.15C158.825 433.95 158.955 433.863 159.165 433.84C159.327 433.822 159.528 433.866 159.609 433.93C159.69 433.995 159.774 434.166 159.782 434.321C159.798 434.466 159.715 434.68 159.596 434.791ZM142.275 452.716C141.742 453.379 141.387 453.729 140.907 454.052C140.548 454.295 140.07 454.56 139.841 454.643C139.62 454.716 139.288 454.744 139.101 454.682C138.93 454.619 138.537 454.392 138.241 454.154C137.812 453.824 137.633 453.607 137.434 453.137C137.291 452.801 137.188 452.231 137.187 451.846C137.193 451.453 137.322 450.759 137.476 450.292C137.63 449.825 137.686 449.443 137.622 449.45C137.55 449.466 137.443 449.543 137.371 449.632C137.307 449.713 136.943 449.982 136.56 450.22C136.185 450.466 135.622 450.707 135.284 450.761C134.955 450.821 134.456 450.818 134.186 450.749C133.924 450.672 133.59 450.536 133.447 450.421C133.312 450.313 133.14 450.086 133.054 449.899C132.97 449.728 132.901 449.318 132.882 448.993C132.87 448.658 132.921 448.153 133.011 447.857C133.093 447.554 133.297 447.097 133.778 446.333L133.374 446.524C133.147 446.623 132.75 446.732 132.5 446.767C132.248 446.786 131.804 446.769 131.528 446.709C131.193 446.648 130.847 446.473 130.524 446.213C130.255 445.997 129.944 445.703 129.83 445.552C129.715 445.401 129.66 445.047 129.671 444.702C129.692 444.364 129.84 443.848 130.01 443.527C130.226 443.111 130.479 442.797 130.925 442.388C131.267 442.072 131.832 441.626 132.185 441.407C132.536 441.172 133.34 440.741 133.97 440.435C134.6 440.129 135.72 439.671 136.452 439.403C137.193 439.142 138.427 438.746 139.213 438.521C139.998 438.296 141.424 437.936 142.392 437.724C143.366 437.503 144.233 437.343 144.308 437.359C144.409 437.381 144.501 437.706 144.553 438.102C144.595 438.49 144.661 439.621 144.704 440.615C144.754 441.6 144.769 443.014 144.743 443.745C144.723 444.468 144.637 445.55 144.562 446.139C144.496 446.735 144.341 447.644 144.234 448.164C144.127 448.683 143.941 449.374 143.845 449.696C143.742 450.026 143.512 450.624 143.321 451.046C143.111 451.527 142.72 452.143 142.275 452.716ZM148.884 444.12C148.798 444.228 148.638 444.336 148.525 444.348C148.411 444.36 148.214 444.275 148.07 444.16C147.918 444.038 147.843 443.874 147.882 443.714C147.908 443.572 147.966 443.427 148.009 443.373C148.052 443.319 148.227 443.267 148.405 443.248C148.582 443.228 148.782 443.256 148.861 443.304C148.933 443.362 149.008 443.526 149.015 443.664C149.031 443.81 148.971 444.013 148.884 444.12ZM148.183 441.815C148.102 441.897 147.87 441.947 147.67 441.92C147.345 441.865 147.318 441.844 147.276 441.529C147.256 441.351 147.296 441.118 147.385 441.026C147.464 440.928 147.617 440.829 147.73 440.817C147.843 440.804 148.048 440.88 148.19 440.979C148.35 441.093 148.432 441.248 148.392 441.407C148.374 441.54 148.28 441.731 148.183 441.815ZM147.878 438.721C147.738 438.86 147.536 438.963 147.421 438.96C147.313 438.947 147.128 438.828 147.014 438.677C146.901 438.542 146.854 438.342 146.914 438.213C146.966 438.092 147.114 437.945 147.247 437.89C147.371 437.827 147.576 437.829 147.696 437.882C147.817 437.934 147.957 438.091 148.021 438.231C148.098 438.411 148.055 438.538 147.878 438.721ZM148.757 435.826C148.649 435.961 148.475 436.086 148.361 436.099C148.248 436.111 148.069 436.04 147.952 435.947C147.835 435.853 147.773 435.655 147.8 435.456C147.842 435.165 147.885 435.111 148.161 435.007C148.333 434.939 148.538 434.942 148.626 434.997C148.698 435.055 148.813 435.206 148.868 435.339C148.916 435.481 148.873 435.683 148.757 435.826ZM149.911 432.369C149.839 432.459 149.661 432.552 149.531 432.566C149.402 432.58 149.208 432.527 149.109 432.448C149.011 432.369 148.917 432.191 148.911 432.052C148.896 431.923 148.949 431.729 149.028 431.63C149.1 431.541 149.278 431.447 149.408 431.433C149.537 431.419 149.731 431.472 149.828 431.535C149.927 431.614 150.02 431.792 150.027 431.931C150.043 432.076 149.99 432.27 149.911 432.369ZM145.413 433.834C145.271 433.882 145.056 433.856 144.924 433.78C144.801 433.696 144.677 433.537 144.665 433.424C144.652 433.311 144.728 433.106 144.845 432.979C144.975 432.817 145.139 432.742 145.299 432.782C145.44 432.807 145.616 432.919 145.693 433.025C145.77 433.132 145.801 433.333 145.759 433.477C145.702 433.657 145.587 433.776 145.413 433.834ZM142.823 434.926C142.765 434.998 142.595 435.082 142.433 435.1C142.28 435.125 142.095 435.08 142.023 435.022C141.951 434.964 141.874 434.784 141.857 434.623C141.832 434.47 141.883 434.26 141.971 434.168C142.05 434.069 142.203 433.971 142.316 433.959C142.43 433.946 142.634 434.022 142.776 434.121C142.945 434.242 143.018 434.389 142.978 434.549C142.96 434.682 142.881 434.855 142.823 434.926ZM148.353 427.619C147.914 428.093 147.042 428.958 146.41 429.542C145.787 430.134 144.858 430.923 144.349 431.281C143.849 431.647 143.1 432.138 142.667 432.365C142.242 432.6 141.591 432.859 141.21 432.966C140.827 433.057 140.217 433.099 139.853 433.057C139.33 432.991 139.055 432.874 138.576 432.533C138.088 432.185 137.91 431.984 137.728 431.586C137.601 431.322 137.53 430.895 137.544 430.656C137.588 430.308 137.691 430.125 138.008 429.804C138.221 429.576 138.564 429.35 138.764 429.304C138.954 429.25 139.321 429.235 139.585 429.255C139.9 429.286 140.174 429.404 140.453 429.627C140.677 429.807 140.969 430.16 141.103 430.416C141.356 430.855 141.374 430.869 141.69 430.843C141.877 430.831 142.39 430.652 142.85 430.446C143.303 430.249 144.192 429.768 144.82 429.372C145.457 428.983 146.472 428.308 147.097 427.879C147.712 427.444 148.403 426.951 148.623 426.788C148.88 426.596 149.053 426.528 149.08 426.623C149.115 426.726 148.894 427.02 148.353 427.619ZM136.512 438.447C135.742 438.744 134.465 439.194 133.666 439.453C132.868 439.712 131.58 440.065 130.789 440.242C129.998 440.418 128.702 440.617 127.908 440.687C126.829 440.78 126.196 440.759 125.491 440.59C124.711 440.422 124.427 440.297 123.997 439.951C123.575 439.612 123.478 439.476 123.486 439.246C123.493 439.089 123.641 438.795 123.814 438.58C123.98 438.373 124.331 438.065 124.606 437.887C124.875 437.719 125.5 437.454 126.006 437.285C126.511 437.115 127.473 436.928 128.145 436.863C128.818 436.798 130.074 436.759 130.945 436.795C131.808 436.824 133.411 436.96 134.509 437.118C135.597 437.27 136.797 437.466 137.15 437.542C137.511 437.626 137.834 437.738 137.857 437.801C137.897 437.862 137.281 438.15 136.512 438.447ZM139.773 434.883C139.687 434.99 139.527 435.098 139.413 435.11C139.3 435.122 139.112 435.045 138.986 434.944C138.86 434.843 138.744 434.676 138.732 434.562C138.728 434.456 138.783 434.278 138.876 434.162C138.977 434.036 139.175 433.974 139.374 434.001C139.665 434.043 139.719 434.086 139.823 434.361C139.893 434.55 139.867 434.766 139.773 434.883ZM137.446 434.105C137.33 434.249 137.156 434.374 137.043 434.386C136.929 434.399 136.732 434.314 136.588 434.199C136.418 434.062 136.37 433.92 136.437 433.708C136.491 433.53 136.613 433.377 136.738 433.315C136.838 433.263 137.034 433.258 137.145 433.303C137.266 433.355 137.42 433.494 137.499 433.616C137.599 433.785 137.583 433.935 137.446 434.105ZM134.871 433.084C134.763 433.219 134.588 433.345 134.475 433.357C134.362 433.369 134.182 433.299 134.065 433.205C133.949 433.111 133.886 432.914 133.914 432.714C133.945 432.473 134.022 432.359 134.193 432.274C134.326 432.219 134.522 432.214 134.642 432.266C134.763 432.319 134.902 432.475 134.965 432.599C135.022 432.749 134.993 432.932 134.871 433.084ZM131.653 435.032C131.47 435.223 131.115 435.426 130.82 435.499C130.535 435.579 130.139 435.631 129.94 435.603C129.692 435.581 129.388 435.426 129.056 435.159C128.671 434.849 128.509 434.646 128.436 434.351C128.388 434.135 128.344 433.805 128.348 433.616C128.352 433.427 128.453 433.081 128.576 432.854C128.715 432.553 128.92 432.334 129.255 432.101C129.589 431.868 129.866 431.78 130.253 431.796C130.54 431.805 130.944 431.908 131.146 432.026C131.338 432.136 131.617 432.375 131.759 432.548C131.894 432.73 132.056 433.023 132.103 433.223C132.156 433.413 132.143 433.816 132.079 434.134C132.007 434.518 131.873 434.795 131.653 435.032Z" fill="#EDD761"/>
<path d="M177.428 443.831C177.61 444.229 177.819 444.869 177.878 445.255C177.986 445.947 177.972 445.965 177.593 446.326C177.377 446.521 177.037 446.779 176.82 446.885C176.611 446.998 176.273 447.125 176.079 447.146C175.877 447.176 175.441 447.15 175.114 447.079C174.778 447.001 174.16 446.741 173.74 446.492C173.196 446.159 172.757 445.806 172.233 445.282C171.836 444.875 171.472 444.538 171.424 444.543C171.375 444.548 171.359 444.624 171.375 444.696C171.393 444.784 171.543 445.038 171.717 445.281C171.884 445.533 172.176 446.033 172.356 446.414C172.544 446.786 172.764 447.376 172.851 447.727C172.951 448.117 172.956 448.608 172.872 449.043C172.791 449.42 172.617 449.856 172.487 450.018C172.351 450.188 172.097 450.339 171.849 450.39C171.624 450.431 171.144 450.385 170.781 450.286C170.199 450.128 170.041 450.031 169.36 449.409C168.814 448.912 168.485 448.514 168.22 448.036C168.006 447.658 167.806 447.32 167.752 447.276C167.698 447.233 167.626 447.249 167.59 447.294C167.547 447.348 167.676 447.702 167.874 448.098C168.064 448.487 168.255 449.112 168.312 449.483C168.352 449.855 168.348 450.338 168.299 450.565C168.257 450.782 168.046 451.173 167.852 451.416C167.65 451.667 167.266 451.979 167.004 452.122C166.626 452.335 166.408 452.367 166.029 452.269C165.76 452.2 165.424 452.049 165.272 451.926C165.128 451.811 164.829 451.467 164.624 451.17C164.42 450.873 164.135 450.364 163.978 450.046C163.836 449.725 163.595 448.941 163.446 448.319C163.296 447.697 163.113 446.399 163.018 445.452C162.93 444.496 162.854 443.342 162.846 442.892C162.829 442.436 162.84 441.411 162.859 440.615C162.879 439.819 162.923 439.176 162.957 439.189C162.999 439.192 163.082 439.51 163.173 439.893C163.248 440.278 163.535 441.262 163.812 442.075C164.082 442.897 164.439 443.922 164.609 444.353C164.818 444.92 164.938 445.12 165.048 445.075C165.134 445.041 165.176 444.971 165.129 444.919C165.099 444.865 164.779 444.032 164.434 443.046C164.082 442.07 163.655 440.709 163.475 440.032C163.302 439.347 163.135 438.416 163.095 437.97C163.07 437.523 163.075 437.113 163.118 437.059C163.154 437.014 163.265 437.06 163.367 437.171C163.454 437.285 164.296 438.33 165.225 439.49C166.162 440.656 166.953 441.601 167.009 441.587C167.057 441.582 167.082 441.513 167.065 441.425C167.04 441.346 166.296 440.38 165.405 439.265C164.507 438.16 163.73 437.197 163.691 437.136C163.643 437.067 163.625 436.979 163.654 436.943C163.69 436.899 164.394 437.198 165.216 437.608C166.054 438.016 167.166 438.599 167.697 438.893C168.221 439.196 169.034 439.745 169.492 440.113C169.976 440.502 170.346 440.74 170.389 440.686C170.425 440.641 170.33 440.447 170.173 440.276C170.013 440.089 169.417 439.654 168.854 439.29C168.29 438.926 167.155 438.28 166.315 437.856C165.482 437.423 164.703 437.034 164.353 436.9L164.648 436.901C164.811 436.899 165.769 437.122 166.764 437.39C167.775 437.656 169.199 438.107 169.95 438.385C170.701 438.663 171.816 439.131 172.437 439.423C173.155 439.779 173.979 440.278 174.761 440.848C175.703 441.531 176.095 441.889 176.521 442.424C176.824 442.8 177.229 443.435 177.428 443.831Z" fill="#F5F5F5"/>
<path d="M143.431 449.88C143.27 450.356 142.978 451.051 142.79 451.432C142.575 451.864 142.2 452.405 141.772 452.901C141.197 453.562 140.956 453.752 140.258 454.106C139.698 454.38 139.326 454.494 139.164 454.438C139.012 454.389 138.696 454.195 138.445 453.993C138.202 453.798 137.894 453.447 137.779 453.222C137.649 452.999 137.513 452.58 137.481 452.289C137.44 451.991 137.485 451.421 137.57 451.002C137.655 450.584 137.898 449.878 138.103 449.438C138.3 448.991 138.596 448.476 138.74 448.296C138.935 448.054 138.978 447.927 138.879 447.847C138.772 447.761 138.644 447.865 138.255 448.349C137.988 448.681 137.532 449.157 137.241 449.409C136.949 449.662 136.407 450.024 136.035 450.212C135.663 450.4 135.139 450.555 134.872 450.576C134.602 450.581 134.185 450.512 133.928 450.409C133.526 450.248 133.462 450.182 133.304 449.79C133.204 449.547 133.138 449.096 133.153 448.783C133.168 448.47 133.277 447.967 133.389 447.644C133.541 447.235 133.828 446.786 134.404 446.068C134.916 445.431 135.176 445.035 135.107 445.009C135.039 444.984 134.78 445.16 134.528 445.4C134.276 445.64 133.788 445.972 133.446 446.14C133.104 446.308 132.657 446.48 132.463 446.501C132.261 446.531 131.875 446.516 131.623 446.462C131.313 446.389 130.957 446.207 130.607 445.926C130.15 445.558 130.062 445.429 129.985 445.028C129.948 444.762 129.99 444.323 130.099 444.041C130.236 443.65 130.433 443.35 130.901 442.841C131.312 442.403 131.853 441.967 132.467 441.589C132.982 441.279 133.816 440.828 134.308 440.603C134.815 440.376 135.835 439.97 136.583 439.7C137.338 439.421 138.762 438.971 139.748 438.7C140.74 438.42 141.568 438.198 141.594 438.22C141.621 438.242 141.564 438.313 141.465 438.381C141.382 438.448 140.829 438.786 140.263 439.143C139.687 439.492 138.672 440.168 138.013 440.657C137.345 441.139 136.733 441.607 136.654 441.706C136.558 441.825 136.564 441.879 136.672 441.867C136.76 441.85 137.478 441.378 138.282 440.799C139.071 440.222 140.185 439.479 140.73 439.149C141.275 438.82 142.072 438.397 142.502 438.211C142.923 438.018 143.412 437.85 143.59 437.83C143.914 437.795 143.914 437.795 143.382 438.549C143.118 438.947 142.412 439.944 141.78 440.836L141.661 441.004C141.001 441.935 140.466 442.73 140.462 442.772C140.458 442.813 140.518 442.831 140.591 442.831C140.663 442.815 141.427 441.791 142.3 440.558C143.172 439.325 143.92 438.302 143.968 438.297C144.017 438.291 143.962 438.911 143.834 439.695C143.714 440.469 143.469 441.748 143.284 442.529C143.099 443.311 142.772 444.362 142.571 444.85C142.364 445.347 142.192 445.8 142.201 445.881C142.208 445.945 142.307 445.877 142.422 445.734C142.537 445.59 142.774 445.131 142.947 444.694C143.121 444.258 143.388 443.41 143.535 442.805C143.682 442.2 143.903 441.152 144.003 440.495C144.111 439.828 144.231 439.275 144.27 439.262C144.301 439.243 144.359 439.629 144.398 440.132C144.436 440.636 144.465 441.648 144.471 442.375C144.476 443.103 144.411 444.379 144.339 445.222C144.258 446.057 144.094 447.254 143.974 447.881C143.845 448.501 143.601 449.411 143.431 449.88Z" fill="#F5F5F5"/>
<path d="M183.378 438.574C183.674 438.811 184.015 439.159 184.124 439.335C184.301 439.611 184.305 439.717 184.132 439.932C184.016 440.076 183.761 440.284 183.568 440.395C183.383 440.497 182.915 440.638 182.545 440.694C182.184 440.758 181.389 440.755 180.778 440.707C180.175 440.65 179.24 440.49 178.694 440.361C178.156 440.224 177.166 439.931 176.487 439.71C175.808 439.489 174.587 439.025 173.765 438.689C172.942 438.353 172.192 438.001 171.921 437.769L172.208 437.778C172.365 437.786 174.251 438.12 176.391 438.525C178.53 438.931 180.316 439.243 180.363 439.222C180.417 439.191 180.411 439.143 180.367 439.107C180.322 439.071 178.364 438.679 176.033 438.253C173.702 437.812 171.783 437.407 171.783 437.334C171.776 437.269 172.332 437.184 173.006 437.135C173.681 437.102 174.789 437.047 175.45 437.032C176.128 437.015 177.218 437.035 177.894 437.076C178.579 437.124 179.632 437.247 180.257 437.351C180.884 437.471 181.71 437.691 182.112 437.852C182.515 438.013 183.082 438.336 183.378 438.574Z" fill="#EDD761"/>
<path d="M161.189 453.223C161.057 453.81 160.849 454.529 160.71 454.83C160.587 455.13 160.311 455.602 160.109 455.853C159.909 456.121 159.558 456.429 159.342 456.551C158.979 456.746 158.937 456.742 158.712 456.472C158.579 456.307 158.377 455.952 158.258 455.695C158.14 455.438 158.01 454.846 157.977 454.392C157.935 453.93 157.974 453.09 158.051 452.517C158.128 451.944 158.351 450.913 158.553 450.22C158.756 449.526 159.125 448.406 159.385 447.714C159.654 447.03 160.095 445.967 160.387 445.346C160.671 444.717 160.936 444.222 160.977 444.226C161.011 444.238 160.9 444.946 160.732 445.799C160.555 446.662 160.134 448.729 159.784 450.396C159.443 452.071 159.153 453.461 159.149 453.503C159.145 453.544 159.188 453.564 159.244 453.549C159.307 453.526 159.777 451.453 160.296 448.933C160.831 446.411 161.274 444.316 161.302 444.28C161.339 444.235 161.387 444.23 161.423 444.259C161.468 444.295 161.535 444.983 161.576 445.814C161.618 446.644 161.651 447.778 161.648 448.351C161.645 448.925 161.6 450.01 161.545 450.777C161.48 451.538 161.331 452.642 161.189 453.223Z" fill="#EDD761"/>
<path d="M148.297 456.299C148.252 456.705 148.134 457.274 148.025 457.556C147.926 457.845 147.677 458.265 147.088 458.943L146.573 458.574C146.253 458.347 145.966 458.043 145.821 457.764C145.689 457.524 145.473 456.967 145.35 456.514C145.219 456.07 145.065 455.104 145.002 454.374C144.938 453.645 144.897 452.52 144.919 451.887C144.931 451.247 145.018 450.018 145.104 449.157C145.19 448.297 145.303 447.31 145.363 446.96C145.425 446.626 145.496 446.373 145.532 446.401C145.569 446.446 145.79 448.395 146.014 450.744C146.246 453.101 146.505 455.021 146.569 455.014C146.643 455.014 146.584 453.801 146.431 452.32C146.278 450.838 146.082 448.895 145.992 447.996C145.902 447.098 145.886 446.346 145.95 446.339C146.015 446.332 146.223 446.735 146.409 447.239C146.595 447.742 146.92 448.697 147.122 449.347C147.323 449.996 147.618 451.044 147.775 451.657C147.932 452.27 148.129 453.403 148.212 454.163C148.304 454.931 148.334 455.885 148.297 456.299Z" fill="#EDD761"/>
<path d="M131.566 438.43C134.147 438.23 136.284 438.087 136.32 438.116C136.365 438.152 136.377 438.192 136.356 438.218C136.334 438.245 135.562 438.526 134.631 438.84C133.708 439.162 132.289 439.587 131.478 439.806C130.658 440.019 129.222 440.282 128.284 440.384C126.916 440.525 126.384 440.526 125.629 440.362C124.891 440.197 124.589 440.058 124.204 439.749C123.719 439.359 123.71 439.352 123.878 439.015C123.981 438.832 124.242 438.525 124.467 438.337C124.701 438.155 125.21 437.871 125.601 437.697C125.993 437.54 126.917 437.308 127.659 437.211C128.402 437.113 129.647 437.051 130.434 437.064C131.222 437.076 132.49 437.15 133.236 437.233C133.989 437.306 134.943 437.423 135.367 437.483C135.791 437.543 136.13 437.654 136.137 437.718C136.144 437.783 135.891 437.86 135.591 437.884C135.29 437.909 133.213 438.07 130.98 438.24C128.764 438.408 126.909 438.586 126.866 438.64C126.822 438.693 126.812 438.744 126.838 438.765C126.865 438.787 128.993 438.637 131.566 438.43Z" fill="#EDD761"/>
<path d="M178.409 432.412C178.457 432.628 178.425 433.016 178.339 433.271C178.243 433.519 178.07 433.808 177.942 433.912C177.814 434.016 177.542 434.152 177.33 434.232C177.118 434.312 176.778 434.35 176.554 434.317C176.336 434.275 176.009 434.131 175.839 433.994C175.669 433.857 175.462 433.617 175.373 433.471C175.283 433.326 175.208 433.015 175.191 432.779C175.181 432.535 175.257 432.183 175.367 431.991C175.477 431.799 175.677 431.531 175.826 431.4C175.976 431.269 176.314 431.142 176.571 431.098C176.844 431.052 177.209 431.094 177.417 431.202C177.616 431.303 177.904 431.534 178.052 431.698C178.201 431.862 178.368 432.187 178.409 432.412Z" fill="#EDD761"/>
<path d="M155.251 450.105C155.273 450.315 155.222 450.673 155.143 450.919C155.036 451.217 154.888 451.438 154.638 451.621C154.442 451.773 154.048 451.914 153.725 451.95C153.207 452.006 153.114 451.975 152.629 451.586C152.127 451.183 152.094 451.112 152.033 450.546C151.967 450.021 152.016 449.869 152.313 449.443C152.577 449.079 152.764 448.919 153.079 448.803C153.309 448.737 153.638 448.677 153.812 448.699C153.977 448.713 154.293 448.834 154.505 448.975C154.717 449.116 154.963 449.343 155.052 449.488C155.142 449.634 155.229 449.911 155.251 450.105Z" fill="#EDD761"/>
<path d="M154.81 441.043C154.866 441.25 154.905 441.606 154.893 441.803C154.884 442.017 154.754 442.326 154.588 442.532C154.43 442.73 154.113 442.977 153.877 443.068C153.651 443.167 153.262 443.209 153.029 443.169C152.794 443.113 152.44 442.947 152.242 442.788C152.045 442.63 151.823 442.318 151.741 442.09C151.648 441.838 151.647 441.454 151.734 441.125C151.848 440.67 151.947 440.529 152.278 440.263C152.489 440.093 152.8 439.944 152.96 439.911C153.122 439.893 153.402 439.911 153.603 439.955C153.795 439.991 154.117 440.161 154.332 440.334C154.574 440.528 154.741 440.78 154.81 441.043Z" fill="#EDD761"/>
<path d="M164.251 427.784C164.358 427.945 164.439 428.231 164.451 428.417C164.467 428.637 164.371 428.885 164.198 429.1C164.015 429.327 163.79 429.466 163.523 429.517C163.291 429.567 162.968 429.529 162.795 429.449C162.63 429.361 162.411 429.156 162.309 428.97C162.216 428.792 162.134 428.49 162.145 428.292C162.158 428.111 162.274 427.82 162.404 427.659C162.54 427.488 162.81 427.336 163.075 427.282C163.323 427.231 163.637 427.262 163.793 427.343C163.959 427.432 164.159 427.622 164.251 427.784Z" fill="#EDD761"/>
<path d="M153.833 438.236C153.926 438.266 154.048 438.409 154.113 438.549C154.181 438.722 154.146 438.856 153.999 439.003C153.837 439.168 153.716 439.19 153.531 439.071C153.391 438.988 153.284 438.828 153.277 438.689C153.288 438.565 153.367 438.393 153.473 438.316C153.58 438.239 153.74 438.205 153.833 438.236Z" fill="#EDD761"/>
<path d="M160.345 428.145C160.458 428.133 160.58 428.201 160.632 428.302C160.675 428.395 160.666 428.536 160.601 428.616C160.543 428.688 160.416 428.718 160.322 428.688C160.229 428.657 160.148 428.518 160.143 428.396C160.156 428.215 160.192 428.17 160.345 428.145Z" fill="#EDD761"/>
<path d="M153.915 435.984C154.066 436.09 154.18 436.241 154.187 436.306C154.187 436.38 154.09 436.538 153.971 436.649C153.823 436.796 153.694 436.81 153.518 436.698C153.378 436.615 153.271 436.455 153.264 436.317C153.275 436.193 153.354 436.021 153.46 435.943C153.588 435.839 153.737 435.856 153.915 435.984Z" fill="#EDD761"/>
<path d="M159.309 427.652C159.419 427.608 159.521 427.646 159.582 427.753C159.634 427.854 159.624 427.994 159.56 428.075C159.502 428.147 159.371 428.145 159.272 428.066C159.173 427.986 159.096 427.88 159.114 427.821C159.116 427.763 159.206 427.688 159.309 427.652Z" fill="#EDD761"/>
<path d="M153.786 433.755C154.002 433.854 154.07 433.953 154.059 434.151L154.05 434.144C154.041 434.284 154.008 434.435 153.979 434.471C153.943 434.516 153.808 434.555 153.679 434.569C153.549 434.583 153.382 434.552 153.319 434.502C153.266 434.459 153.194 434.327 153.191 434.221C153.178 434.108 153.233 433.93 153.326 433.814C153.449 433.661 153.569 433.64 153.786 433.755Z" fill="#EDD761"/>
<path d="M158.455 426.804C158.552 426.794 158.656 426.848 158.69 426.934C158.724 427.02 158.697 427.146 158.614 427.212C158.539 427.27 158.411 427.3 158.343 427.275C158.265 427.242 158.228 427.124 158.25 427.023C158.27 426.906 158.365 426.806 158.455 426.804Z" fill="#EDD761"/>
<path d="M153.996 431.621C154.128 431.712 154.204 431.876 154.178 432.018C154.153 432.16 154.052 432.286 153.919 432.341C153.795 432.404 153.608 432.416 153.498 432.387C153.362 432.336 153.29 432.205 153.292 432C153.289 431.747 153.343 431.643 153.523 431.566C153.656 431.51 153.863 431.529 153.996 431.621Z" fill="#EDD761"/>
<path d="M157.648 426.155C157.745 426.145 157.849 426.199 157.883 426.285C157.917 426.372 157.89 426.497 157.807 426.564C157.731 426.621 157.604 426.651 157.526 426.619C157.458 426.594 157.421 426.475 157.433 426.367C157.462 426.258 157.558 426.157 157.648 426.155Z" fill="#EDD761"/>
<path d="M153.735 429.005C153.882 429.079 154.022 429.236 154.05 429.347C154.079 429.459 154.041 429.635 153.969 429.724C153.89 429.823 153.69 429.869 153.521 429.822C153.262 429.777 153.207 429.718 153.177 429.516C153.154 429.38 153.213 429.177 153.316 429.067C153.424 428.933 153.545 428.911 153.735 429.005Z" fill="#EDD761"/>
<path d="M156.823 425.345C156.92 425.335 157.024 425.389 157.058 425.475C157.092 425.561 157.064 425.687 156.982 425.753C156.906 425.811 156.778 425.841 156.701 425.809C156.633 425.783 156.595 425.665 156.608 425.557C156.637 425.447 156.733 425.347 156.823 425.345Z" fill="#EDD761"/>
<path d="M155.784 424.525C155.885 424.4 155.982 424.389 156.109 424.506C156.226 424.6 156.236 424.697 156.139 424.781C156.056 424.848 155.911 424.863 155.814 424.8C155.698 424.737 155.688 424.645 155.784 424.525Z" fill="#EDD761"/>
<path d="M147.091 428.126C147.197 428.122 147.326 428.182 147.378 428.282C147.421 428.376 147.426 428.498 147.383 428.552C147.347 428.597 147.226 428.618 147.126 428.596C147.009 428.576 146.916 428.472 146.911 428.35C146.895 428.204 146.938 428.15 147.091 428.126Z" fill="#EDD761"/>
<path d="M145.962 429.034C146.058 428.915 146.166 428.903 146.286 428.999C146.405 429.095 146.417 429.203 146.321 429.323C146.225 429.442 146.117 429.454 145.997 429.358C145.878 429.262 145.866 429.154 145.962 429.034Z" fill="#EDD761"/>
<path d="M145.258 429.635C145.355 429.624 145.459 429.679 145.493 429.765C145.527 429.851 145.5 429.977 145.417 430.043C145.342 430.101 145.214 430.131 145.146 430.106C145.069 430.073 145.031 429.954 145.053 429.854C145.073 429.737 145.168 429.637 145.258 429.635Z" fill="#EDD761"/>
<path d="M144.491 430.185C144.57 430.234 144.622 430.335 144.629 430.399C144.629 430.473 144.559 430.579 144.492 430.644C144.409 430.71 144.287 430.715 144.215 430.657C144.144 430.6 144.144 430.452 144.229 430.328C144.297 430.206 144.421 430.144 144.491 430.185Z" fill="#EDD761"/>
<path d="M143.318 430.911C143.431 430.898 143.552 430.951 143.593 431.028C143.618 431.107 143.6 431.24 143.549 431.303C143.492 431.375 143.357 431.414 143.247 431.385C143.121 431.358 143.062 431.266 143.073 431.142C143.093 431.025 143.182 430.934 143.318 430.911Z" fill="#EDD761"/>
<path d="M142.196 431.279C142.309 431.266 142.431 431.335 142.483 431.436C142.526 431.529 142.517 431.669 142.452 431.75C142.394 431.822 142.267 431.852 142.173 431.821C142.08 431.791 141.999 431.652 141.994 431.53C142.007 431.348 142.043 431.304 142.196 431.279Z" fill="#EDD761"/>
<path d="M140.445 430.758C140.516 430.963 140.555 431.245 140.53 431.387C140.495 431.521 140.328 431.785 140.142 431.961C139.93 432.189 139.696 432.296 139.435 432.308C139.159 432.322 138.92 432.234 138.677 432.039C138.399 431.816 138.306 431.637 138.258 431.274C138.22 430.918 138.27 430.708 138.458 430.475C138.602 430.296 138.818 430.1 138.951 430.045C139.084 429.989 139.361 429.975 139.562 430.019C139.763 430.062 140.02 430.165 140.119 430.245C140.217 430.324 140.357 430.554 140.445 430.758Z" fill="#EDD761"/>
<path d="M131.778 433.168C131.833 433.375 131.872 433.731 131.861 433.928C131.844 434.151 131.721 434.451 131.541 434.675C131.368 434.891 131.075 435.127 130.88 435.222C130.693 435.308 130.305 435.351 130.039 435.314C129.748 435.272 129.387 435.115 129.181 434.949C128.983 434.791 128.765 434.512 128.702 434.314C128.623 434.118 128.601 433.76 128.632 433.519C128.663 433.279 128.813 432.927 128.971 432.729C129.13 432.532 129.447 432.285 129.673 432.186C129.907 432.079 130.263 432.04 130.515 432.094C130.757 432.142 131.12 432.315 131.317 432.473C131.541 432.654 131.717 432.913 131.778 433.168Z" fill="#EDD761"/>
<path d="M176.618 444.14C176.713 444.335 176.756 444.649 176.712 444.85L176.719 444.841C176.676 445.043 176.571 445.283 176.494 445.398C176.4 445.515 176.15 445.697 175.941 445.81C175.725 445.932 175.387 445.985 175.177 445.935C174.967 445.884 174.692 445.766 174.557 445.658C174.414 445.543 174.251 445.323 174.176 445.16C174.102 445.012 174.063 444.656 174.093 444.399C174.113 444.135 174.196 443.848 174.268 443.758C174.333 443.677 174.578 443.52 174.803 443.405C175.037 443.298 175.382 443.236 175.567 443.281C175.768 443.324 176.036 443.451 176.188 443.573C176.341 443.696 176.523 443.946 176.618 444.14Z" fill="#EDD761"/>
<path d="M171.771 447.051C171.866 447.245 171.908 447.56 171.872 447.752C171.828 447.953 171.673 448.257 171.538 448.443C171.351 448.677 171.128 448.807 170.824 448.873C170.583 448.916 170.22 448.89 170.031 448.812C169.834 448.727 169.575 448.535 169.461 448.383C169.339 448.241 169.235 447.892 169.221 447.616C169.211 447.224 169.266 447.046 169.547 446.696C169.844 446.344 169.968 446.282 170.437 446.231C170.836 446.212 171.063 446.261 171.296 446.448C171.466 446.585 171.676 446.857 171.771 447.051Z" fill="#EDD761"/>
<path d="M167.263 449.098C167.311 449.314 167.303 449.617 167.253 449.754C167.209 449.881 167.094 450.099 166.993 450.224C166.901 450.357 166.633 450.525 166.412 450.599C166.183 450.681 165.792 450.691 165.538 450.62C165.269 450.551 164.996 450.376 164.838 450.205C164.706 450.04 164.598 449.732 164.586 449.472C164.576 449.227 164.638 448.893 164.726 448.728C164.807 448.572 164.966 448.374 165.086 448.279C165.2 448.193 165.524 448.084 165.797 448.038C166.232 447.974 166.35 448.01 166.736 448.32C167.077 448.594 167.204 448.785 167.263 449.098Z" fill="#EDD761"/>
<path d="M141.11 451.189C141.194 451.36 141.215 451.702 141.166 451.928C141.119 452.171 141.025 452.434 140.96 452.515C140.888 452.605 140.643 452.763 140.411 452.886C140.177 452.994 139.866 453.068 139.71 453.061C139.561 453.044 139.257 452.889 139.033 452.709C138.759 452.499 138.592 452.266 138.531 452.011C138.467 451.797 138.502 451.441 138.599 451.209C138.722 450.909 138.866 450.73 139.14 450.536C139.376 450.372 139.654 450.3 139.945 450.342C140.177 450.366 140.511 450.502 140.673 450.631C140.825 450.754 141.024 451.002 141.11 451.189Z" fill="#EDD761"/>
<path d="M136.903 447.515C137.018 447.739 137.092 448.124 137.068 448.356C137.03 448.679 136.929 448.879 136.699 449.092C136.52 449.259 136.261 449.434 136.128 449.49C135.986 449.538 135.673 449.523 135.438 449.467C135.161 449.407 134.906 449.247 134.731 449.061C134.562 448.867 134.446 448.552 134.432 448.201C134.399 447.82 134.461 447.56 134.626 447.354C134.749 447.201 135.062 446.995 135.315 446.918C135.6 446.822 135.936 446.826 136.225 446.925C136.625 447.07 136.708 447.151 136.903 447.515Z" fill="#EDD761"/>
<path d="M132.806 443.648C132.994 443.873 133.127 444.186 133.158 444.477C133.197 444.907 133.165 444.984 132.745 445.414C132.378 445.798 132.208 445.898 131.897 445.9C131.678 445.915 131.342 445.837 131.168 445.742C130.942 445.619 130.755 445.41 130.609 445.115C130.5 444.865 130.428 444.513 130.481 444.319C130.517 444.127 130.658 443.841 130.788 443.68C130.91 443.527 131.191 443.325 131.396 443.253C131.601 443.182 131.934 443.154 132.137 443.213C132.372 443.269 132.602 443.425 132.806 443.648Z" fill="#EDD761"/>
</g>
<g opacity="0.8">
<path fill-rule="evenodd" clip-rule="evenodd" d="M123.614 31.281C123.657 31.2272 123.936 31.0085 124.217 30.806C124.566 30.5552 124.976 30.4123 125.539 30.3182C125.983 30.2616 126.867 30.2635 127.496 30.3259C128.125 30.3883 129.16 30.5702 129.781 30.7153C130.412 30.8676 131.761 31.3017 132.775 31.6741C133.799 32.0536 135.307 32.675 136.142 33.0506C136.97 33.4351 137.704 33.7889 137.758 33.8321C137.821 33.8826 137.824 33.9886 137.766 34.0604C137.709 34.1322 136.797 34.256 135.733 34.3311C134.685 34.4044 133.384 34.4807 132.845 34.4904C132.306 34.5 131.355 34.489 130.73 34.459C130.097 34.4379 129.105 34.3495 128.523 34.2656C127.934 34.1907 127.071 34.0146 126.615 33.8842C126.159 33.7539 125.48 33.4595 125.096 33.2395C124.617 32.9725 124.312 32.7274 124.065 32.4106C123.867 32.1783 123.676 31.8473 123.617 31.6818C123.567 31.5235 123.564 31.3438 123.614 31.281ZM130.234 24.879C130.45 24.6099 130.798 24.3428 131.156 24.1729C131.467 24.0243 131.974 23.8708 132.258 23.8481C132.558 23.8236 133.099 23.9038 133.456 24.0285C133.823 24.1605 134.438 24.4781 135.522 25.1866L135.267 24.4942C135.135 24.1075 134.988 23.5177 134.935 23.1798C134.891 22.849 134.91 22.3476 134.979 22.0782C135.048 21.8088 135.255 21.3851 135.457 21.1339C135.659 20.8827 135.943 20.6389 136.111 20.5961C136.276 20.5371 136.661 20.5361 136.961 20.5853C137.277 20.6327 137.798 20.8297 138.137 21.0137C138.476 21.1977 138.93 21.5329 139.558 22.1848L139.525 21.6564C139.5 21.3562 139.526 20.9196 139.574 20.677C139.632 20.3842 139.816 20.0449 140.133 19.6502C140.479 19.2196 140.734 19.0117 141.101 18.8489C141.382 18.7201 141.774 18.6365 141.973 18.6638C142.263 18.6896 142.534 18.8483 143.117 19.3168C143.729 19.8231 143.933 20.0464 144.185 20.5591C144.354 20.9009 144.59 21.4891 144.704 21.8614C144.827 22.2408 145.034 23.0859 145.156 23.7601C145.288 24.4415 145.443 25.7915 145.5 26.7675C145.567 27.7507 145.599 29.3269 145.579 30.2704C145.561 31.23 145.497 32.6694 145.429 33.4708C145.331 34.6765 145.264 34.9621 145.095 34.9887C144.991 35.0083 144.046 34.8248 143.022 34.5926C141.982 34.3622 140.617 34.0035 139.965 33.8044C139.313 33.6054 138.198 33.2112 137.488 32.9366C136.779 32.6619 135.711 32.1726 135.104 31.8623C134.504 31.5429 133.6 30.9785 133.085 30.609C132.437 30.1475 131.938 29.7026 131.497 29.1859C131.105 28.7376 130.693 28.1113 130.467 27.6202C130.263 27.1759 130.047 26.4709 129.985 26.052C129.902 25.3653 129.917 25.2737 130.234 24.879ZM129.794 37.3684C129.888 37.2518 130.145 37.0601 130.37 36.9455C130.593 36.8148 130.908 36.6986 131.068 36.6648C131.221 36.64 131.518 36.6568 131.728 36.7075C131.945 36.7493 132.292 36.9244 132.516 37.1046C132.74 37.2848 133.004 37.5998 133.091 37.8031C133.188 38.0135 133.235 38.4504 133.204 38.7648C133.169 39.1943 133.073 39.4421 132.819 39.7399C132.63 39.9569 132.299 40.2222 132.089 40.3188C131.885 40.4064 131.542 40.4848 131.312 40.4771C131.098 40.4677 130.728 40.3771 130.495 40.2633C130.186 40.1333 129.979 39.9675 129.815 39.7318C129.687 39.541 129.521 39.2154 129.457 39.0014C129.385 38.7963 129.399 38.3938 129.489 38.0974C129.572 37.8101 129.708 37.4761 129.794 37.3684ZM148.189 14.8597C148.391 14.6822 148.702 14.46 148.882 14.3831C149.123 14.2668 149.256 14.285 149.462 14.4508C149.615 14.5733 149.839 14.9009 149.984 15.1798C150.129 15.4586 150.3 15.9802 150.371 16.3326C150.442 16.685 150.475 17.3608 150.452 17.8298C150.421 18.2916 150.331 19.0462 150.242 19.5061C150.162 19.9732 149.91 20.9665 149.681 21.7118C149.46 22.4644 148.961 23.8202 148.578 24.7378C148.202 25.6464 147.633 26.887 147.323 27.4938C147.013 28.1006 146.722 28.5906 146.665 28.5887C146.616 28.594 146.515 28.0402 146.443 27.3769C146.361 26.7064 146.272 25.4392 146.242 24.5585C146.211 23.6779 146.209 22.3767 146.239 21.6777C146.26 20.9714 146.367 19.8466 146.451 19.1908C146.535 18.535 146.744 17.5956 146.905 17.1196C147.057 16.6365 147.34 16.0081 147.513 15.7191C147.686 15.4301 147.989 15.0534 148.189 14.8597ZM133.789 36.622C133.811 36.5951 134.244 36.3678 134.764 36.1065C135.277 35.8541 135.966 35.5662 136.299 35.4645C136.622 35.3555 137.343 35.2115 137.883 35.1282C138.422 35.0448 139.252 35.0034 139.721 35.026C140.183 35.0575 141.04 35.1851 141.62 35.3265C142.201 35.4679 143.136 35.7915 143.696 36.0497C144.264 36.2989 145.204 36.8185 145.795 37.2043C146.385 37.5901 147.03 38.0192 147.606 38.423L147.392 37.5869C147.285 37.132 147.115 36.0946 147.035 35.2929C146.956 34.4912 146.917 33.2349 146.951 32.4945C146.994 31.7614 147.173 30.5469 147.336 29.7924C147.507 29.029 147.767 28.1166 147.925 27.7557C148.073 27.3875 148.322 26.8202 148.466 26.4934C148.611 26.1666 149.215 25.2495 149.801 24.4654C150.449 23.5843 150.869 23.0802 150.901 23.1503C150.917 23.2223 150.512 23.8558 150 24.5664C149.367 25.4457 148.909 26.1996 148.591 26.889C148.342 27.4564 147.997 28.3453 147.841 28.8697C147.677 29.387 147.475 30.3175 147.388 30.9409C147.291 31.5571 147.215 32.5886 147.212 33.2355C147.2 33.8753 147.273 34.9969 147.362 35.7321C147.457 36.4584 147.629 37.4382 147.752 37.8913C147.956 38.7041 147.993 38.7491 148.761 39.484C149.198 39.8946 149.934 40.633 150.396 41.1228C150.859 41.6126 151.61 42.4966 152.074 43.0763C152.539 43.6559 153.365 44.7773 153.902 45.5782C154.447 46.3701 154.945 47.1097 155.006 47.2177C155.126 47.4174 155.171 47.3798 156.297 45.8492C156.948 44.9843 157.795 43.746 158.19 43.0891C158.594 42.4394 159.238 41.2887 159.624 40.5509C160.018 39.8041 160.608 38.4629 160.952 37.5578C161.286 36.6455 161.679 35.3668 161.82 34.7129C161.962 34.059 162.118 33.0925 162.166 32.5552C162.216 32.0341 162.216 31.0601 162.162 30.4112C162.107 29.7623 161.939 28.8148 161.778 28.3167C161.624 27.8095 161.362 27.1261 161.21 26.7825C161.059 26.4551 160.678 25.8091 160.359 25.3609C160.049 24.92 159.559 24.3349 159.274 24.0467C158.991 23.7748 158.797 23.5012 158.833 23.4563C158.877 23.4025 159.076 23.5036 159.282 23.6693C159.498 23.8423 159.944 24.3339 160.279 24.7803C160.614 25.2267 161.091 25.9933 161.341 26.4898C161.592 26.9864 161.905 27.7544 162.042 28.1896C162.178 28.6087 162.35 29.5148 162.424 30.1943C162.497 30.8576 162.518 31.8784 162.483 32.4552C162.438 33.0249 162.28 34.0489 162.135 34.7441C161.98 35.4321 161.783 36.2476 161.685 36.5529C161.58 36.8672 161.526 37.1187 161.549 37.108C161.574 37.1134 161.898 36.9308 162.265 36.6943C162.641 36.4651 163.347 36.1017 163.822 35.8781C164.305 35.6616 165.091 35.3631 165.584 35.2276C166.068 35.0848 166.943 34.9321 167.526 34.8686C168.108 34.8052 169.14 34.8073 169.817 34.8645C170.504 34.9288 171.513 35.1052 172.086 35.2556C172.652 35.415 173.536 35.7115 174.051 35.9337C174.573 36.1468 175.015 36.3688 175.047 36.439C175.083 36.5169 175.052 36.5558 174.954 36.5556C174.871 36.5482 174.411 36.3855 173.93 36.176C173.449 35.9666 172.59 35.6754 172.025 35.5161C171.459 35.3567 170.532 35.1877 169.969 35.1344C169.407 35.0811 168.32 35.0932 167.559 35.176C166.79 35.2517 165.756 35.4544 165.26 35.6313C164.754 35.801 164.071 36.0637 163.735 36.2068C163.4 36.366 162.705 36.7527 161.284 37.6771L160.881 38.6378C160.653 39.1782 160.242 40.058 159.966 40.6037C159.681 41.1423 159.147 42.1009 158.779 42.7057C158.413 43.3268 157.553 44.5992 156.877 45.5323C156.185 46.4672 155.505 47.3679 155.359 47.5312C155.213 47.6944 155.053 47.8019 155.008 47.7658C154.964 47.7298 154.562 47.1269 154.109 46.4233C153.656 45.7196 152.9 44.6397 152.43 44.0115C151.953 43.3923 151.15 42.4076 150.638 41.8332C150.125 41.2588 149.158 40.2755 148.484 39.6451C147.591 38.8094 146.927 38.276 146.017 37.6631C145.328 37.1979 144.324 36.6279 143.798 36.3824C143.265 36.1459 142.444 35.826 141.988 35.6957C141.532 35.5653 140.713 35.4091 140.184 35.3684C139.663 35.3188 138.795 35.3152 138.269 35.3644C137.735 35.4226 136.917 35.5772 136.433 35.72C135.958 35.8699 135.197 36.1739 134.755 36.394C134.305 36.6231 133.897 36.7822 133.843 36.7389C133.789 36.6957 133.768 36.6489 133.789 36.622ZM134.664 37.7381C134.765 37.6125 134.963 37.55 135.162 37.5774C135.453 37.6193 135.507 37.6626 135.611 37.9378C135.679 38.1104 135.676 38.3153 135.619 38.3871C135.561 38.4588 135.41 38.5735 135.277 38.629C135.136 38.6934 134.937 38.666 134.777 38.5524C134.635 38.4533 134.51 38.2787 134.505 38.1565C134.5 38.0343 134.57 37.8547 134.664 37.7381ZM137.556 36.7108C137.642 36.6031 137.795 36.5046 137.909 36.4923C138.022 36.4799 138.219 36.5648 138.354 36.6729C138.521 36.8075 138.585 36.9669 138.545 37.1514C138.505 37.3112 138.403 37.4943 138.302 37.5462C138.203 37.6143 137.976 37.639 137.807 37.5919C137.54 37.5392 137.493 37.487 137.447 37.2138C137.42 37.0448 137.469 36.8184 137.556 36.7108ZM153.181 19.5788C153.366 19.403 153.719 19.1845 153.972 19.1078C154.217 19.0238 154.641 19.0103 154.918 19.0702C155.254 19.1482 155.525 19.3069 155.817 19.5861C156.054 19.8058 156.288 20.1568 156.362 20.378C156.428 20.6082 156.43 21.0089 156.378 21.2766C156.316 21.5371 156.137 21.9249 155.979 22.1222C155.813 22.3286 155.462 22.5633 155.156 22.6866C154.811 22.8225 154.455 22.8613 154.135 22.7815C153.859 22.7216 153.498 22.5645 153.345 22.442C153.184 22.3123 152.958 22.0422 152.863 21.8479C152.752 21.6554 152.647 21.2903 152.636 21.0459C152.617 20.7943 152.668 20.4367 152.73 20.25C152.791 20.0632 152.995 19.7545 153.181 19.5788ZM140.04 36.7429C140.14 36.6174 140.338 36.5549 140.538 36.5822C140.829 36.6242 140.883 36.6674 140.986 36.9426C141.054 37.1153 141.052 37.3202 140.994 37.3919C140.937 37.4637 140.785 37.5784 140.652 37.6338C140.512 37.6982 140.313 37.6709 140.153 37.5573C140.011 37.4582 139.886 37.2836 139.881 37.1614C139.875 37.0391 139.946 36.8596 140.04 36.7429ZM160.411 12.6928C160.639 12.3895 160.913 12.1223 161 12.0884C161.109 12.0437 161.361 12.1718 161.746 12.4817C162.229 12.8547 162.401 13.0816 162.696 13.6878C162.89 14.1088 163.134 14.9252 163.232 15.5203C163.327 16.0992 163.442 17.0034 163.474 17.5156C163.505 18.0279 163.517 18.9678 163.496 19.6004C163.475 20.233 163.419 21.2213 163.375 21.7909C163.331 22.3605 163.161 23.6559 163.009 24.671C162.849 25.6789 162.671 26.525 162.606 26.532C162.533 26.5319 162.209 25.8878 161.883 25.0802C161.558 24.2726 161.081 22.974 160.815 22.1845C160.556 21.386 160.21 20.0895 160.034 19.2984C159.857 18.5073 159.668 17.3657 159.618 16.7653C159.569 16.165 159.56 15.331 159.606 14.925C159.652 14.5189 159.756 13.9674 159.833 13.7052C159.911 13.443 160.173 12.9888 160.411 12.6928ZM151.968 25.2032C151.997 25.1673 152.154 25.1011 152.319 25.0422C152.477 24.9922 152.702 25.025 152.818 25.1187C152.926 25.2052 153.034 25.3653 153.046 25.4786C153.049 25.5846 152.973 25.7894 152.865 25.9239C152.736 26.0854 152.572 26.1605 152.412 26.1207C152.27 26.0952 152.125 26.0374 152.071 25.9941C152.017 25.9509 151.965 25.7765 151.946 25.5985C151.926 25.4205 151.932 25.248 151.968 25.2032ZM142.975 37.3152C143.083 37.1806 143.258 37.0552 143.371 37.0429C143.484 37.0305 143.655 37.0938 143.753 37.1731C143.852 37.2524 143.947 37.4466 143.965 37.6084C143.989 37.7612 143.944 37.9463 143.886 38.018C143.829 38.0898 143.649 38.1667 143.487 38.1843C143.334 38.2092 143.151 38.18 143.088 38.1296C143.018 38.0881 142.92 37.9351 142.864 37.802C142.816 37.6599 142.86 37.4587 142.975 37.3152ZM150.251 28.4435C150.287 28.3986 150.418 28.327 150.546 28.2967C150.673 28.2664 150.862 28.2704 150.955 28.3012C151.049 28.3319 151.172 28.4903 151.231 28.6558C151.29 28.8212 151.256 29.0296 151.148 29.1642C151.039 29.2988 150.843 29.3774 150.669 29.3555C150.495 29.3336 150.314 29.2469 150.263 29.1623C150.213 29.0778 150.169 28.8944 150.18 28.7704C150.175 28.6482 150.207 28.4973 150.251 28.4435ZM149.138 30.3982C149.254 30.3446 149.441 30.3324 149.553 30.3775C149.662 30.4065 149.815 30.5291 149.892 30.6353C149.969 30.7414 149.997 30.9266 149.952 31.0379C149.907 31.1493 149.792 31.2928 149.685 31.3699C149.586 31.4379 149.392 31.4591 149.265 31.4157C149.137 31.3723 148.976 31.2426 148.908 31.1436C148.84 31.0446 148.818 30.8505 148.855 30.7319C148.898 30.6044 149.013 30.4609 149.138 30.3982ZM148.116 33.489C148.209 33.3724 148.395 33.2704 148.524 33.2563C148.654 33.2421 148.83 33.2803 148.901 33.3379C148.973 33.3956 149.052 33.5916 149.071 33.7696C149.091 33.9476 149.056 34.156 148.998 34.2277C148.941 34.2995 148.777 34.3746 148.648 34.3887C148.518 34.4028 148.308 34.3521 148.184 34.2673C148.06 34.1826 147.962 34.0297 147.957 33.9074C147.951 33.7852 148.022 33.6056 148.116 33.489ZM153.551 27.1097C154.063 26.4728 154.652 25.7947 154.846 25.6261C155.048 25.4486 155.244 25.2963 155.293 25.291C155.341 25.2857 155.618 25.5667 155.908 25.9033C156.191 26.249 156.612 26.8088 156.822 27.1543C157.039 27.4908 157.332 28.0809 157.479 28.4496C157.625 28.8184 157.832 29.4424 157.931 29.8164C158.03 30.2066 158.158 31.0767 158.216 31.758C158.283 32.4464 158.289 33.4852 158.245 34.0548C158.192 34.6172 158.024 35.7078 157.854 36.4712C157.692 37.2418 157.388 38.3555 157.192 38.9661C156.988 39.5695 156.573 40.638 156.271 41.3256C155.96 42.0061 155.561 42.8517 155.386 43.1982C155.202 43.5375 154.977 43.8731 154.876 43.925C154.709 44.0415 154.644 43.9748 154.136 43.1381C153.819 42.6324 153.317 41.713 153.011 41.0834C152.705 40.4537 152.319 39.5381 152.142 39.0418C151.958 38.5543 151.703 37.6408 151.553 37.0187C151.404 36.3966 151.257 35.4959 151.214 35.0339C151.179 34.563 151.167 33.7704 151.193 33.2601C151.21 32.7425 151.3 31.9879 151.394 31.5765C151.479 31.158 151.624 30.6101 151.702 30.3479C151.789 30.0929 152.029 29.5183 152.235 29.0784C152.495 28.5344 152.926 27.9063 153.551 27.1097ZM145.578 38.8896C145.768 38.6887 145.912 38.6567 146.149 38.7291C146.404 38.8159 146.471 38.8987 146.508 39.1647C146.527 39.3427 146.493 39.5511 146.435 39.6228C146.377 39.6946 146.197 39.7715 146.036 39.7891C145.883 39.814 145.7 39.7848 145.637 39.7344C145.567 39.6929 145.476 39.531 145.42 39.3979C145.35 39.209 145.394 39.0815 145.578 38.8896ZM143.348 42.0138C143.397 41.9348 143.676 41.7162 143.942 41.5316C144.216 41.3381 144.644 41.1359 144.899 41.0753C145.147 41.0237 145.604 41.0067 145.913 41.0631C146.22 41.1033 146.762 41.2733 147.123 41.4305C147.561 41.6201 148.153 42.0221 148.943 42.6563C149.705 43.269 150.426 43.9516 151.034 44.6466C151.547 45.221 152.332 46.1913 152.775 46.7979C153.217 47.4045 153.683 48.074 153.796 48.2827C153.929 48.522 153.944 48.6676 153.844 48.6458C153.761 48.6385 153.42 48.3646 153.081 48.0332C152.751 47.709 151.709 46.7831 150.778 45.976C149.668 45.0247 148.801 44.358 148.302 44.0604C147.873 43.8043 147.347 43.5588 147.146 43.5152C146.794 43.439 146.74 43.4694 146.358 43.9449C146.084 44.2858 145.79 44.5224 145.517 44.6422C145.29 44.7406 144.947 44.8189 144.758 44.815C144.569 44.811 144.205 44.6952 143.952 44.5509C143.691 44.4155 143.377 44.1633 143.261 43.9959C143.136 43.8213 143.018 43.4904 143.007 43.2459C142.99 43.0105 143.027 42.6709 143.113 42.4896C143.191 42.301 143.29 42.0856 143.348 42.0138ZM157.433 24.6485C157.519 24.5409 157.679 24.4334 157.793 24.421C157.906 24.4087 158.094 24.4864 158.22 24.5873C158.346 24.6882 158.462 24.8556 158.474 24.9688C158.478 25.0748 158.424 25.2526 158.33 25.3693C158.229 25.4949 158.031 25.5573 157.832 25.53C157.541 25.488 157.487 25.4448 157.383 25.1696C157.313 24.9807 157.339 24.7651 157.433 24.6485ZM148.548 36.4786C148.667 36.3675 148.847 36.2906 148.962 36.2944C149.069 36.3072 149.254 36.4262 149.369 36.5774C149.511 36.7502 149.528 36.912 149.42 37.1203C149.319 37.3195 149.189 37.4073 148.979 37.4302C148.817 37.4479 148.616 37.4043 148.535 37.3395C148.455 37.2746 148.37 37.1037 148.362 36.9491C148.346 36.8035 148.429 36.5898 148.548 36.4786ZM165.871 18.5558C166.404 17.892 166.759 17.5423 167.239 17.2198C167.598 16.9761 168.076 16.7112 168.305 16.629C168.526 16.5558 168.858 16.5277 169.045 16.5892C169.216 16.6525 169.609 16.8797 169.905 17.1176C170.334 17.4474 170.513 17.6652 170.711 18.1347C170.854 18.471 170.957 19.041 170.958 19.4256C170.952 19.8191 170.823 20.5126 170.669 20.9795C170.516 21.4464 170.459 21.8291 170.524 21.8221C170.596 21.806 170.702 21.729 170.774 21.6393C170.839 21.5585 171.203 21.2897 171.586 21.0515C171.96 20.8061 172.523 20.5646 172.861 20.5114C173.19 20.451 173.69 20.4539 173.959 20.5227C174.221 20.6006 174.555 20.736 174.699 20.8514C174.834 20.9595 175.006 21.1863 175.091 21.3734C175.176 21.5443 175.245 21.9542 175.264 22.2795C175.276 22.6138 175.224 23.1187 175.134 23.415C175.052 23.7186 174.848 24.1747 174.367 24.9392L174.772 24.7478C174.998 24.6494 175.396 24.5406 175.646 24.5052C175.897 24.486 176.341 24.5031 176.618 24.563C176.952 24.6248 177.298 24.7998 177.621 25.0593C177.89 25.2755 178.201 25.5691 178.315 25.7203C178.43 25.8715 178.485 26.2257 178.474 26.5707C178.453 26.9085 178.305 27.424 178.135 27.7453C177.919 28.1618 177.666 28.4758 177.22 28.8846C176.878 29.2002 176.312 29.6465 175.96 29.865C175.609 30.0997 174.804 30.5312 174.175 30.8372C173.545 31.1431 172.425 31.6009 171.693 31.8689C170.952 32.1297 169.718 32.5261 168.932 32.7509C168.146 32.9757 166.72 33.3358 165.753 33.5476C164.778 33.7684 163.912 33.9283 163.836 33.912C163.736 33.8902 163.643 33.5647 163.592 33.1692C163.549 32.781 163.484 31.6504 163.441 30.6565C163.391 29.6715 163.376 28.2571 163.402 27.5257C163.422 26.8033 163.509 25.7216 163.583 25.1323C163.649 24.5358 163.804 23.6267 163.911 23.1075C164.018 22.5884 164.205 21.8969 164.301 21.5754C164.404 21.2449 164.633 20.6469 164.825 20.225C165.034 19.7438 165.426 19.1282 165.871 18.5558ZM159.261 27.1504C159.347 27.0428 159.507 26.9353 159.621 26.9229C159.734 26.9106 159.931 26.9955 160.075 27.1108C160.227 27.2333 160.302 27.397 160.263 27.5569C160.237 27.6988 160.179 27.8443 160.136 27.8981C160.093 27.9519 159.918 28.0037 159.74 28.0231C159.562 28.0424 159.363 28.0151 159.284 27.9664C159.212 27.9087 159.137 27.745 159.13 27.6066C159.114 27.461 159.174 27.2581 159.261 27.1504ZM159.962 29.4559C160.043 29.3734 160.275 29.3235 160.475 29.3509C160.8 29.4055 160.827 29.4271 160.869 29.7417C160.888 29.9197 160.848 30.1532 160.76 30.2447C160.681 30.3434 160.528 30.4419 160.415 30.4542C160.301 30.4666 160.097 30.3907 159.955 30.2915C159.795 30.178 159.713 30.0232 159.753 29.8634C159.771 29.7304 159.865 29.5401 159.962 29.4559ZM160.267 32.5494C160.407 32.4113 160.608 32.3075 160.723 32.3114C160.831 32.3242 161.016 32.4432 161.131 32.5944C161.244 32.7294 161.29 32.929 161.231 33.0583C161.178 33.1786 161.03 33.3256 160.897 33.3811C160.773 33.4437 160.568 33.4415 160.448 33.3891C160.328 33.3367 160.188 33.1801 160.124 33.0398C160.047 32.8599 160.09 32.7324 160.267 32.5494ZM159.387 35.4446C159.495 35.3101 159.67 35.1846 159.783 35.1723C159.896 35.16 160.076 35.2304 160.192 35.3241C160.309 35.4178 160.372 35.6156 160.344 35.8151C160.302 36.1061 160.259 36.1599 159.984 36.2636C159.811 36.3315 159.606 36.3293 159.518 36.2734C159.447 36.2157 159.332 36.0645 159.276 35.9314C159.228 35.7894 159.272 35.5882 159.387 35.4446ZM158.233 38.9018C158.305 38.8121 158.483 38.719 158.613 38.7049C158.742 38.6908 158.936 38.7433 159.035 38.8226C159.134 38.9019 159.227 39.08 159.234 39.2184C159.248 39.3478 159.195 39.5418 159.116 39.6405C159.044 39.7302 158.866 39.8233 158.736 39.8374C158.607 39.8515 158.413 39.7989 158.316 39.7358C158.217 39.6566 158.124 39.4784 158.117 39.34C158.101 39.1944 158.154 39.0004 158.233 38.9018ZM162.731 37.4375C162.873 37.3893 163.089 37.4149 163.22 37.4907C163.344 37.5754 163.467 37.7338 163.48 37.8471C163.492 37.9603 163.416 38.165 163.299 38.2924C163.169 38.4538 163.005 38.529 162.846 38.4891C162.704 38.4637 162.528 38.3519 162.451 38.2457C162.374 38.1395 162.344 37.9381 162.385 37.7944C162.442 37.6136 162.557 37.4947 162.731 37.4375ZM165.321 36.3449C165.379 36.2731 165.55 36.189 165.712 36.1714C165.864 36.1465 166.049 36.1919 166.121 36.2495C166.193 36.3072 166.27 36.4871 166.287 36.6488C166.312 36.8016 166.262 37.0118 166.173 37.1033C166.094 37.202 165.941 37.3005 165.828 37.3128C165.715 37.3252 165.51 37.2493 165.368 37.1501C165.199 37.0294 165.126 36.8818 165.166 36.722C165.184 36.589 165.264 36.4167 165.321 36.3449ZM159.79 43.6514C160.23 43.1778 161.101 42.3134 161.734 41.7289C162.357 41.1371 163.286 40.3483 163.795 39.9899C164.295 39.6244 165.044 39.1335 165.478 38.9062C165.902 38.6716 166.553 38.4124 166.935 38.3054C167.318 38.2145 167.927 38.1727 168.292 38.2148C168.814 38.2806 169.089 38.398 169.568 38.7386C170.056 39.0865 170.234 39.2882 170.416 39.6857C170.543 39.9502 170.614 40.3763 170.6 40.6153C170.556 40.9638 170.453 41.1469 170.136 41.4679C169.923 41.6957 169.58 41.9215 169.38 41.9678C169.189 42.0213 168.823 42.0367 168.559 42.0164C168.244 41.9852 167.969 41.8678 167.691 41.6443C167.467 41.4641 167.175 41.1113 167.041 40.8558C166.788 40.4168 166.77 40.4023 166.454 40.4286C166.267 40.4408 165.754 40.6195 165.294 40.8252C164.841 41.0219 163.952 41.5035 163.324 41.8993C162.687 42.288 161.672 42.9634 161.047 43.3916C160.432 43.827 159.74 44.3198 159.521 44.4829C159.263 44.6747 159.091 44.7426 159.064 44.6473C159.028 44.5448 159.25 44.2505 159.79 43.6514ZM171.633 32.8249C172.403 32.5282 173.68 32.078 174.478 31.819C175.277 31.5601 176.564 31.207 177.355 31.0307C178.147 30.8545 179.443 30.6559 180.237 30.5857C181.316 30.4927 181.948 30.5138 182.654 30.6824C183.434 30.8512 183.718 30.9758 184.148 31.3217C184.57 31.6605 184.667 31.7973 184.659 32.0273C184.651 32.1836 184.503 32.4781 184.33 32.6934C184.165 32.8997 183.813 33.2081 183.538 33.3854C183.27 33.5538 182.644 33.8185 182.139 33.9881C181.633 34.1578 180.671 34.3445 179.999 34.4096C179.327 34.4747 178.071 34.5134 177.199 34.4774C176.336 34.4486 174.734 34.3123 173.636 34.1536C172.547 34.0022 171.347 33.8055 170.995 33.7293C170.634 33.6459 170.311 33.5338 170.287 33.4708C170.248 33.4097 170.863 33.1216 171.633 32.8249ZM168.371 36.389C168.457 36.2814 168.618 36.1739 168.731 36.1615C168.844 36.1492 169.033 36.2269 169.158 36.3278C169.284 36.4287 169.4 36.5961 169.413 36.7093C169.416 36.8153 169.362 36.9932 169.268 37.1098C169.167 37.2354 168.969 37.2979 168.77 37.2705C168.479 37.2285 168.425 37.1853 168.321 36.9101C168.252 36.7213 168.277 36.5056 168.371 36.389ZM170.698 37.1667C170.814 37.0232 170.988 36.8977 171.102 36.8854C171.215 36.873 171.412 36.9579 171.556 37.0732C171.726 37.2102 171.775 37.3523 171.708 37.5642C171.653 37.742 171.531 37.8945 171.407 37.9571C171.306 38.009 171.11 38.014 170.999 37.9689C170.878 37.9165 170.724 37.7778 170.645 37.6554C170.545 37.4863 170.561 37.3371 170.698 37.1667ZM173.273 38.1875C173.382 38.0529 173.556 37.9275 173.669 37.9152C173.783 37.9028 173.962 37.9733 174.079 38.067C174.195 38.1607 174.258 38.3585 174.231 38.5579C174.199 38.7987 174.122 38.9135 173.951 38.9976C173.818 39.0531 173.622 39.0581 173.502 39.0057C173.381 38.9533 173.242 38.7967 173.179 38.6725C173.122 38.5232 173.151 38.34 173.273 38.1875ZM176.491 36.2407C176.675 36.0488 177.029 35.8465 177.324 35.7734C177.61 35.6931 178.005 35.6418 178.205 35.6692C178.453 35.6913 178.756 35.8465 179.088 36.1132C179.474 36.4231 179.635 36.6265 179.708 36.9214C179.756 37.1372 179.8 37.4679 179.796 37.6566C179.792 37.8453 179.691 38.192 179.568 38.4182C179.429 38.7198 179.224 38.9386 178.889 39.1715C178.555 39.4045 178.278 39.492 177.891 39.4768C177.604 39.4672 177.2 39.3639 176.999 39.2467C176.806 39.1366 176.527 38.897 176.385 38.7242C176.251 38.5424 176.088 38.2491 176.041 38.0495C175.988 37.8589 176.001 37.4564 176.065 37.1384C176.138 36.754 176.271 36.4775 176.491 36.2407Z" fill="#EDD761"/>
<path d="M130.717 27.4374C130.535 27.0398 130.326 26.3996 130.268 26.013C130.159 25.3209 130.174 25.303 130.552 24.9425C130.768 24.7471 131.108 24.489 131.326 24.3834C131.535 24.2707 131.873 24.1438 132.067 24.1226C132.268 24.0925 132.705 24.1186 133.032 24.1893C133.368 24.2673 133.985 24.5274 134.405 24.7763C134.949 25.1099 135.389 25.4631 135.913 25.9871C136.309 26.3941 136.673 26.731 136.722 26.7257C136.77 26.7204 136.786 26.645 136.77 26.573C136.753 26.4849 136.602 26.2312 136.428 25.9882C136.262 25.7363 135.97 25.2361 135.789 24.8547C135.601 24.4823 135.381 23.8923 135.294 23.5417C135.194 23.1515 135.19 22.6609 135.273 22.2261C135.355 21.8489 135.529 21.4125 135.658 21.2511C135.795 21.0806 136.049 20.9302 136.297 20.8786C136.522 20.8377 137.002 20.8837 137.364 20.9833C137.946 21.1408 138.104 21.2382 138.786 21.8597C139.331 22.3568 139.661 22.7547 139.926 23.2333C140.139 23.6112 140.34 23.9495 140.393 23.9927C140.447 24.0359 140.519 24.0199 140.555 23.9751C140.599 23.9212 140.47 23.5669 140.271 23.1711C140.082 22.7826 139.891 22.1567 139.834 21.7864C139.793 21.4143 139.798 20.9309 139.847 20.7045C139.889 20.4872 140.1 20.0958 140.294 19.8536C140.496 19.6024 140.88 19.2905 141.142 19.1473C141.52 18.9342 141.738 18.9023 142.117 19.0002C142.386 19.069 142.722 19.2207 142.874 19.3432C143.018 19.4586 143.317 19.8024 143.522 20.0994C143.726 20.3964 144.01 20.9056 144.168 21.224C144.309 21.5442 144.55 22.3283 144.7 22.9504C144.85 23.5725 145.032 24.8705 145.127 25.8178C145.215 26.7741 145.292 27.928 145.3 28.3773C145.317 28.8338 145.305 29.8582 145.286 30.6543C145.266 31.4504 145.222 32.0937 145.188 32.081C145.146 32.0774 145.062 31.7591 144.972 31.3761C144.897 30.9914 144.61 30.0077 144.333 29.1948C144.063 28.3729 143.706 27.3478 143.536 26.9161C143.327 26.3496 143.207 26.1498 143.097 26.1945C143.011 26.2285 142.969 26.2985 143.016 26.3507C143.046 26.4047 143.366 27.2374 143.711 28.223C144.063 29.1996 144.49 30.561 144.67 31.2371C144.843 31.9222 145.01 32.8535 145.05 33.2992C145.074 33.7468 145.07 34.1565 145.027 34.2104C144.991 34.2552 144.879 34.2101 144.777 34.0984C144.691 33.985 143.849 32.9391 142.92 31.7798C141.983 30.6132 141.192 29.6681 141.136 29.6823C141.088 29.6876 141.063 29.7558 141.08 29.8439C141.105 29.9231 141.849 30.8897 142.74 32.004C143.638 33.1094 144.414 34.0725 144.454 34.1337C144.502 34.2021 144.52 34.2902 144.491 34.3261C144.455 34.3709 143.751 34.0711 142.929 33.6614C142.09 33.2535 140.979 32.6707 140.448 32.3766C139.924 32.0736 139.111 31.5238 138.653 31.1562C138.169 30.767 137.799 30.529 137.756 30.5828C137.72 30.6276 137.815 30.8219 137.972 30.993C138.132 31.1802 138.728 31.6146 139.291 31.9788C139.855 32.343 140.989 32.9888 141.829 33.4129C142.662 33.846 143.442 34.2358 143.792 34.3695L143.497 34.3689C143.333 34.3704 142.376 34.1473 141.381 33.8792C140.37 33.6129 138.946 33.1624 138.195 32.8841C137.444 32.6058 136.329 32.1379 135.708 31.8455C134.99 31.49 134.166 30.9904 133.384 30.4209C132.442 29.7378 132.051 29.3793 131.624 28.8446C131.321 28.4684 130.916 27.8331 130.717 27.4374Z" fill="#F5F5F5"/>
<path d="M164.715 21.3911C164.876 20.9152 165.168 20.2203 165.356 19.8397C165.571 19.407 165.946 18.8669 166.374 18.3699C166.949 17.7098 167.19 17.5198 167.888 17.1654C168.448 16.8916 168.82 16.7774 168.982 16.8334C169.134 16.8823 169.45 17.077 169.701 17.2788C169.944 17.4735 170.252 17.8245 170.367 18.0494C170.497 18.2726 170.633 18.6916 170.665 18.9828C170.705 19.2812 170.661 19.8508 170.576 20.2694C170.49 20.6879 170.248 21.3937 170.042 21.8336C169.846 22.2807 169.55 22.7958 169.406 22.9753C169.211 23.2175 169.168 23.345 169.266 23.4243C169.374 23.5108 169.502 23.4068 169.891 22.9224C170.158 22.5904 170.613 22.1152 170.905 21.8624C171.197 21.6096 171.738 21.2477 172.111 21.0598C172.483 20.8718 173.006 20.7166 173.274 20.6956C173.544 20.6907 173.961 20.7599 174.217 20.8629C174.62 21.0237 174.684 21.0903 174.842 21.4824C174.942 21.7253 175.007 22.1765 174.992 22.4892C174.977 22.8018 174.868 23.3048 174.756 23.6281C174.604 24.0375 174.318 24.4862 173.741 25.2039C173.229 25.8408 172.97 26.2374 173.038 26.2627C173.106 26.288 173.365 26.1124 173.617 25.8722C173.87 25.6319 174.357 25.3004 174.699 25.1322C175.041 24.964 175.489 24.7924 175.683 24.7712C175.884 24.7411 176.271 24.7563 176.522 24.8107C176.833 24.8833 177.188 25.0655 177.538 25.3466C177.996 25.7142 178.083 25.8438 178.16 26.2447C178.197 26.5108 178.155 26.9492 178.046 27.2311C177.909 27.6226 177.713 27.9223 177.244 28.4317C176.834 28.8694 176.292 29.305 175.678 29.6829C175.163 29.9927 174.329 30.4439 173.837 30.6693C173.33 30.8964 172.31 31.3023 171.562 31.5721C170.807 31.8508 169.382 32.3007 168.397 32.5718C167.404 32.8519 166.577 33.073 166.55 33.0514C166.523 33.0298 166.581 32.958 166.68 32.8899C166.763 32.8236 167.315 32.4851 167.882 32.1287C168.458 31.7794 169.473 31.104 170.132 30.6148C170.8 30.1327 171.412 29.6649 171.491 29.5663C171.587 29.4467 171.581 29.3927 171.473 29.4045C171.385 29.4223 170.667 29.8934 169.863 30.4722C169.074 31.0493 167.96 31.7927 167.415 32.1223C166.87 32.4518 166.073 32.8743 165.643 33.0603C165.222 33.2535 164.733 33.4214 164.555 33.4408C164.231 33.4761 164.231 33.4761 164.763 32.7224C165.027 32.3241 165.733 31.3275 166.365 30.4355L166.484 30.2674C167.144 29.3361 167.679 28.5411 167.683 28.4997C167.687 28.4584 167.627 28.4403 167.554 28.4402C167.482 28.4562 166.718 29.4808 165.845 30.7136C164.973 31.9464 164.225 32.9692 164.176 32.9745C164.128 32.9798 164.183 32.3599 164.311 31.5766C164.431 30.8023 164.676 29.5232 164.861 28.7418C165.046 27.9605 165.373 26.9098 165.574 26.4214C165.782 25.924 165.953 25.4715 165.945 25.3906C165.937 25.3259 165.839 25.394 165.723 25.5375C165.608 25.681 165.371 26.1406 165.198 26.577C165.025 27.0133 164.757 27.861 164.61 28.4663C164.463 29.0717 164.242 30.119 164.141 30.7765C164.034 31.443 163.914 31.9963 163.875 32.0088C163.844 32.0285 163.786 31.642 163.747 31.1387C163.709 30.6354 163.68 29.6236 163.675 28.8957C163.669 28.1678 163.734 26.892 163.806 26.0493C163.887 25.2137 164.051 24.0172 164.171 23.3902C164.3 22.7705 164.545 21.8598 164.715 21.3911Z" fill="#F5F5F5"/>
<path d="M124.767 32.6942C124.471 32.4563 124.13 32.1087 124.021 31.9324C123.843 31.657 123.84 31.551 124.013 31.3357C124.128 31.1922 124.384 30.9842 124.577 30.8732C124.762 30.7712 125.229 30.6302 125.6 30.5734C125.961 30.5095 126.756 30.513 127.366 30.561C127.97 30.6179 128.904 30.7781 129.45 30.9068C129.989 31.0445 130.979 31.3377 131.658 31.5584C132.337 31.7791 133.558 32.2435 134.38 32.5795C135.203 32.9155 135.953 33.2676 136.224 33.5L135.936 33.4904C135.78 33.4828 133.894 33.1482 131.754 32.743C129.615 32.3377 127.829 32.0248 127.782 32.0463C127.728 32.0767 127.733 32.1253 127.778 32.1613C127.823 32.1974 129.781 32.5897 132.111 33.0151C134.443 33.4567 136.362 33.8615 136.361 33.9352C136.368 33.9999 135.813 34.085 135.139 34.1339C134.463 34.1666 133.356 34.2218 132.695 34.2366C132.017 34.2531 130.926 34.2329 130.25 34.1919C129.566 34.1438 128.513 34.0211 127.888 33.9174C127.261 33.7975 126.435 33.5765 126.032 33.4157C125.63 33.2549 125.063 32.932 124.767 32.6942Z" fill="#EDD761"/>
<path d="M146.957 18.047C147.089 17.4596 147.297 16.7412 147.436 16.4396C147.559 16.1397 147.835 15.6676 148.037 15.4164C148.237 15.1491 148.588 14.8407 148.804 14.7189C149.167 14.5238 149.209 14.5275 149.435 14.7975C149.567 14.9632 149.77 15.3176 149.888 15.5749C150.006 15.8321 150.136 16.4237 150.169 16.8784C150.211 17.3404 150.172 18.1796 150.095 18.7527C150.018 19.3258 149.795 20.3569 149.592 21.0502C149.39 21.7435 149.021 22.8642 148.76 23.5555C148.491 24.2397 148.05 25.3027 147.758 25.9239C147.474 26.5523 147.209 27.0478 147.168 27.0441C147.134 27.0315 147.245 26.3236 147.414 25.4703C147.59 24.608 148.011 22.5404 148.362 20.8733C148.703 19.1991 148.993 17.8087 148.997 17.7673C149.001 17.726 148.958 17.7062 148.902 17.7204C148.839 17.7437 148.369 19.8166 147.85 22.3369C147.314 24.8591 146.872 26.9536 146.843 26.9895C146.807 27.0344 146.758 27.0397 146.722 27.0108C146.677 26.9748 146.611 26.2863 146.569 25.4559C146.528 24.6256 146.494 23.4915 146.497 22.9182C146.5 22.3449 146.546 21.2595 146.601 20.4922C146.666 19.7322 146.815 18.6272 146.957 18.047Z" fill="#EDD761"/>
<path d="M159.849 14.9721C159.895 14.5661 160.013 13.9966 160.121 13.7147C160.221 13.4256 160.469 13.0055 161.059 12.3274L161.574 12.6969C161.893 12.9241 162.18 13.2284 162.325 13.5073C162.457 13.7466 162.674 14.3041 162.797 14.7573C162.927 15.2015 163.081 16.1669 163.144 16.8966C163.208 17.6264 163.248 18.7515 163.227 19.3841C163.215 20.0239 163.128 21.2529 163.042 22.1136C162.956 22.9743 162.842 23.9607 162.782 24.311C162.72 24.6452 162.65 24.8984 162.614 24.8696C162.576 24.8246 162.356 22.876 162.132 20.5266C161.9 18.17 161.642 16.2501 161.577 16.2572C161.503 16.257 161.562 17.4702 161.715 18.9514C161.868 20.4326 162.064 22.3757 162.153 23.2745C162.243 24.1733 162.26 24.9246 162.195 24.9316C162.13 24.9387 161.923 24.5357 161.737 24.0321C161.551 23.5285 161.226 22.5735 161.024 21.9243C160.822 21.2751 160.528 20.2267 160.371 19.6135C160.214 19.0004 160.017 17.8677 159.934 17.1074C159.842 16.3398 159.812 15.3854 159.849 14.9721Z" fill="#EDD761"/>
<path d="M176.579 32.8424C173.998 33.0418 171.861 33.1847 171.825 33.1559C171.78 33.1199 171.767 33.0803 171.789 33.0534C171.811 33.0265 172.582 32.7459 173.514 32.4316C174.437 32.11 175.855 31.6853 176.666 31.4659C177.486 31.2538 178.923 30.9908 179.861 30.8885C181.229 30.7476 181.761 30.747 182.516 30.9103C183.254 31.0754 183.555 31.2144 183.941 31.5243C184.426 31.9135 184.435 31.9207 184.267 32.2583C184.164 32.4413 183.903 32.7481 183.678 32.9363C183.444 33.1174 182.934 33.4021 182.544 33.5756C182.152 33.7329 181.228 33.9646 180.485 34.0619C179.743 34.1592 178.497 34.2212 177.71 34.2088C176.923 34.1964 175.654 34.1218 174.909 34.0394C174.156 33.9659 173.202 33.8489 172.778 33.7887C172.354 33.7285 172.014 33.6182 172.007 33.5535C172 33.4887 172.254 33.412 172.554 33.3875C172.854 33.3629 174.932 33.202 177.164 33.0323C179.381 32.8644 181.236 32.6868 181.279 32.633C181.322 32.5792 181.333 32.5289 181.306 32.5072C181.279 32.4856 179.151 32.6357 176.579 32.8424Z" fill="#EDD761"/>
<path d="M129.735 38.8564C129.687 38.6406 129.719 38.2525 129.806 37.9975C129.901 37.7497 130.074 37.4607 130.202 37.3567C130.33 37.2527 130.602 37.1167 130.814 37.0363C131.026 36.9559 131.366 36.9188 131.591 36.9517C131.808 36.9935 132.135 37.1379 132.305 37.2749C132.476 37.4118 132.682 37.6513 132.771 37.797C132.861 37.9428 132.936 38.2538 132.953 38.4893C132.963 38.7337 132.887 39.0858 132.777 39.2779C132.667 39.47 132.467 39.7373 132.318 39.8682C132.168 39.9991 131.83 40.126 131.573 40.1704C131.3 40.2165 130.935 40.1744 130.727 40.0661C130.527 39.9651 130.24 39.7344 130.092 39.5706C129.943 39.4067 129.776 39.0811 129.735 38.8564Z" fill="#EDD761"/>
<path d="M152.895 21.1651C152.872 20.9547 152.923 20.5972 153.003 20.3512C153.109 20.0531 153.257 19.8323 153.507 19.6495C153.704 19.4972 154.098 19.356 154.421 19.3208C154.939 19.2644 155.032 19.2951 155.517 19.6843C156.019 20.0879 156.051 20.1581 156.113 20.7243C156.178 21.2492 156.129 21.4019 155.832 21.8272C155.569 22.1915 155.382 22.351 155.067 22.4672C154.837 22.5332 154.508 22.5936 154.333 22.5717C154.168 22.557 153.852 22.4359 153.64 22.2953C153.428 22.1546 153.183 21.9277 153.093 21.7819C153.004 21.6362 152.916 21.3592 152.895 21.1651Z" fill="#EDD761"/>
<path d="M153.334 30.2273C153.279 30.0205 153.24 29.6646 153.251 29.467C153.261 29.2531 153.391 28.9443 153.557 28.7379C153.715 28.5406 154.032 28.2932 154.268 28.2021C154.494 28.1037 154.883 28.0614 155.116 28.1014C155.351 28.1576 155.705 28.3237 155.903 28.4823C156.1 28.6408 156.322 28.9522 156.404 29.1806C156.497 29.4324 156.498 29.817 156.411 30.1457C156.297 30.6002 156.198 30.7419 155.867 31.0072C155.656 31.1775 155.345 31.326 155.185 31.3598C155.023 31.3775 154.743 31.3589 154.541 31.3154C154.349 31.279 154.028 31.1094 153.813 30.9364C153.57 30.7418 153.404 30.4899 153.334 30.2273Z" fill="#EDD761"/>
<path d="M143.893 43.485C143.785 43.3249 143.705 43.0389 143.693 42.852C143.677 42.6327 143.773 42.3849 143.946 42.1696C144.129 41.9424 144.353 41.8032 144.621 41.7523C144.853 41.7025 145.176 41.7409 145.348 41.8203C145.514 41.9087 145.732 42.1141 145.835 42.2994C145.928 42.4775 146.01 42.7796 145.998 42.9773C145.985 43.1587 145.87 43.4496 145.74 43.6111C145.603 43.7816 145.333 43.9338 145.069 43.9871C144.821 44.0387 144.506 44.0075 144.35 43.9263C144.185 43.8379 143.984 43.647 143.893 43.485Z" fill="#EDD761"/>
<path d="M154.311 33.0348C154.218 33.004 154.096 32.8618 154.032 32.7215C153.964 32.5488 153.998 32.4141 154.146 32.267C154.308 32.102 154.428 32.0807 154.613 32.1997C154.753 32.2827 154.861 32.4429 154.868 32.5812C154.857 32.7052 154.777 32.8776 154.671 32.9546C154.565 33.0317 154.405 33.0655 154.311 33.0348Z" fill="#EDD761"/>
<path d="M147.799 43.1248C147.686 43.1371 147.564 43.0686 147.512 42.9679C147.469 42.8743 147.478 42.7341 147.543 42.6534C147.601 42.5816 147.728 42.5514 147.822 42.5821C147.915 42.6129 147.996 42.7514 148.001 42.8736C147.988 43.0551 147.952 43.1 147.799 43.1248Z" fill="#EDD761"/>
<path d="M154.229 35.2865C154.079 35.1801 153.964 35.0289 153.957 34.9642C153.957 34.8905 154.054 34.7326 154.173 34.6214C154.321 34.4743 154.45 34.4602 154.626 34.572C154.766 34.655 154.874 34.8151 154.881 34.9535C154.87 35.0775 154.79 35.2499 154.684 35.3269C154.556 35.4309 154.407 35.4144 154.229 35.2865Z" fill="#EDD761"/>
<path d="M148.835 43.6176C148.725 43.6623 148.623 43.6244 148.562 43.5164C148.51 43.4156 148.519 43.2755 148.584 43.1947C148.642 43.123 148.773 43.1251 148.872 43.2043C148.97 43.2836 149.047 43.3898 149.029 43.4491C149.027 43.5066 148.937 43.5819 148.835 43.6176Z" fill="#EDD761"/>
<path d="M154.358 37.5152C154.142 37.4159 154.074 37.3169 154.085 37.1193L154.094 37.1265C154.104 36.9863 154.136 36.8354 154.165 36.7995C154.201 36.7547 154.336 36.7154 154.465 36.7013C154.595 36.6872 154.762 36.7181 154.825 36.7686C154.879 36.8118 154.95 36.9432 154.954 37.0492C154.966 37.1624 154.912 37.3403 154.818 37.4569C154.695 37.6094 154.575 37.6307 154.358 37.5152Z" fill="#EDD761"/>
<path d="M149.688 44.4659C149.591 44.4764 149.487 44.4223 149.453 44.336C149.419 44.2496 149.447 44.1239 149.529 44.0576C149.605 44.0002 149.733 43.9699 149.801 43.9952C149.878 44.0278 149.916 44.1464 149.894 44.247C149.874 44.3638 149.778 44.4643 149.688 44.4659Z" fill="#EDD761"/>
<path d="M154.148 39.6498C154.016 39.5579 153.94 39.3942 153.966 39.2523C153.991 39.1103 154.092 38.9847 154.225 38.9293C154.35 38.8667 154.536 38.8545 154.646 38.8835C154.783 38.9341 154.854 39.0654 154.852 39.2703C154.855 39.5237 154.801 39.6278 154.621 39.7047C154.488 39.7602 154.281 39.7418 154.148 39.6498Z" fill="#EDD761"/>
<path d="M150.496 45.1145C150.399 45.1251 150.295 45.071 150.261 44.9847C150.227 44.8983 150.254 44.7726 150.337 44.7063C150.412 44.6489 150.54 44.6186 150.617 44.6511C150.685 44.6764 150.723 44.7951 150.71 44.9029C150.681 45.0125 150.586 45.1129 150.496 45.1145Z" fill="#EDD761"/>
<path d="M154.409 42.2652C154.262 42.1913 154.122 42.0346 154.093 41.9231C154.065 41.8116 154.103 41.6356 154.175 41.5459C154.254 41.4472 154.454 41.4009 154.623 41.448C154.881 41.4935 154.937 41.5529 154.967 41.7542C154.99 41.8909 154.93 42.0938 154.828 42.2032C154.72 42.3378 154.599 42.3591 154.409 42.2652Z" fill="#EDD761"/>
<path d="M151.321 45.925C151.224 45.9356 151.12 45.8814 151.086 45.7951C151.052 45.7088 151.079 45.583 151.162 45.5167C151.237 45.4594 151.365 45.4291 151.442 45.4616C151.51 45.4869 151.548 45.6056 151.535 45.7134C151.506 45.823 151.411 45.9234 151.321 45.925Z" fill="#EDD761"/>
<path d="M152.36 46.7449C152.259 46.8705 152.162 46.8811 152.034 46.764C151.918 46.6703 151.907 46.5732 152.004 46.489C152.087 46.4226 152.233 46.4068 152.33 46.4699C152.446 46.5336 152.456 46.6253 152.36 46.7449Z" fill="#EDD761"/>
<path d="M161.053 43.1454C160.947 43.1488 160.818 43.0892 160.766 42.9885C160.723 42.8949 160.718 42.7727 160.761 42.7189C160.797 42.674 160.917 42.6527 161.018 42.6745C161.135 42.6945 161.228 42.7989 161.233 42.9212C161.249 43.0668 161.206 43.1206 161.053 43.1454Z" fill="#EDD761"/>
<path d="M162.182 42.2366C162.086 42.3562 161.978 42.368 161.858 42.2719C161.739 42.1758 161.727 42.0679 161.823 41.9483C161.919 41.8287 162.027 41.817 162.146 41.9131C162.266 42.0092 162.278 42.117 162.182 42.2366Z" fill="#EDD761"/>
<path d="M162.886 41.636C162.789 41.6466 162.684 41.5925 162.651 41.5062C162.617 41.4198 162.644 41.2941 162.727 41.2278C162.802 41.1704 162.93 41.1401 162.998 41.1654C163.075 41.1979 163.113 41.3166 163.091 41.4172C163.071 41.534 162.976 41.6344 162.886 41.636Z" fill="#EDD761"/>
<path d="M163.652 41.0859C163.573 41.0372 163.522 40.9365 163.514 40.8718C163.515 40.7981 163.585 40.6922 163.652 40.6276C163.734 40.5613 163.857 40.5562 163.928 40.6138C164 40.6715 164 40.8189 163.915 40.9427C163.847 41.0648 163.722 41.1274 163.652 41.0859Z" fill="#EDD761"/>
<path d="M164.826 40.3605C164.712 40.3729 164.592 40.3205 164.551 40.2431C164.526 40.164 164.544 40.0311 164.595 39.9683C164.652 39.8965 164.787 39.8572 164.897 39.8862C165.023 39.9134 165.082 40.0052 165.071 40.1292C165.051 40.246 164.962 40.3375 164.826 40.3605Z" fill="#EDD761"/>
<path d="M165.948 39.9927C165.835 40.005 165.713 39.9365 165.661 39.8357C165.618 39.7422 165.627 39.602 165.692 39.5213C165.75 39.4495 165.877 39.4192 165.971 39.45C166.064 39.4807 166.145 39.6193 166.15 39.7415C166.137 39.923 166.101 39.9678 165.948 39.9927Z" fill="#EDD761"/>
<path d="M167.699 40.5139C167.628 40.3089 167.589 40.0267 167.614 39.8847C167.649 39.75 167.816 39.4862 168.002 39.3105C168.214 39.0827 168.448 38.9753 168.709 38.9633C168.986 38.9495 169.224 39.0381 169.467 39.2327C169.745 39.4561 169.838 39.6342 169.886 39.9973C169.924 40.3533 169.874 40.5634 169.686 40.7967C169.542 40.9761 169.326 41.1715 169.193 41.2269C169.06 41.2824 168.783 41.2962 168.582 41.2526C168.381 41.2091 168.124 41.1061 168.025 41.0268C167.926 40.9475 167.787 40.7172 167.699 40.5139Z" fill="#EDD761"/>
<path d="M176.366 38.1041C176.311 37.8973 176.272 37.5414 176.284 37.3438C176.3 37.1209 176.423 36.8211 176.603 36.5968C176.776 36.3815 177.07 36.1449 177.264 36.05C177.451 35.9642 177.839 35.9219 178.105 35.9584C178.396 36.0003 178.757 36.1574 178.964 36.3232C179.161 36.4818 179.38 36.7608 179.442 36.9586C179.521 37.1546 179.543 37.5123 179.512 37.7531C179.481 37.9938 179.331 38.3458 179.173 38.5431C179.014 38.7405 178.697 38.9878 178.471 39.0862C178.237 39.1935 177.881 39.2323 177.629 39.1779C177.387 39.1307 177.024 38.9574 176.827 38.7988C176.603 38.6186 176.427 38.3595 176.366 38.1041Z" fill="#EDD761"/>
<path d="M131.527 27.1281C131.432 26.9338 131.389 26.6192 131.433 26.418L131.426 26.427C131.469 26.2258 131.574 25.9852 131.652 25.8703C131.745 25.7537 131.995 25.5709 132.204 25.4581C132.42 25.3364 132.758 25.2832 132.968 25.3339C133.178 25.3847 133.453 25.5021 133.588 25.6102C133.731 25.7255 133.894 25.9451 133.969 26.1088C134.043 26.2563 134.082 26.6123 134.052 26.8692C134.032 27.1333 133.949 27.4207 133.877 27.5104C133.812 27.5912 133.567 27.7488 133.342 27.8633C133.108 27.9707 132.763 28.0329 132.578 27.9875C132.377 27.944 132.109 27.8176 131.957 27.6951C131.804 27.5726 131.622 27.3224 131.527 27.1281Z" fill="#EDD761"/>
<path d="M136.374 24.2179C136.28 24.0236 136.237 23.709 136.273 23.5167C136.317 23.3156 136.472 23.0122 136.607 22.8255C136.795 22.5923 137.018 22.4616 137.322 22.3957C137.563 22.3531 137.926 22.379 138.114 22.4567C138.312 22.5416 138.57 22.7344 138.685 22.8856C138.807 23.0278 138.91 23.3767 138.924 23.6535C138.934 24.0453 138.88 24.2231 138.599 24.573C138.301 24.9246 138.177 24.9872 137.708 25.0384C137.309 25.0573 137.083 25.0083 136.849 24.8209C136.679 24.684 136.469 24.4121 136.374 24.2179Z" fill="#EDD761"/>
<path d="M140.882 22.1713C140.834 21.9556 140.842 21.6519 140.893 21.5154C140.936 21.3879 141.052 21.1707 141.153 21.0451C141.244 20.9123 141.513 20.7439 141.734 20.6707C141.962 20.5885 142.354 20.5785 142.607 20.6492C142.877 20.718 143.15 20.8929 143.307 21.064C143.44 21.2296 143.547 21.5371 143.559 21.7978C143.569 22.0422 143.508 22.3763 143.419 22.5415C143.338 22.6977 143.179 22.895 143.059 22.99C142.945 23.0761 142.622 23.185 142.348 23.2312C141.913 23.2949 141.795 23.2588 141.409 22.9488C141.068 22.6749 140.941 22.4842 140.882 22.1713Z" fill="#EDD761"/>
<path d="M167.036 20.0822C166.952 19.9113 166.931 19.5698 166.98 19.3434C167.027 19.1009 167.121 18.8369 167.186 18.7562C167.258 18.6665 167.503 18.5088 167.735 18.3853C167.969 18.278 168.28 18.2032 168.436 18.2107C168.585 18.2272 168.889 18.3823 169.113 18.5625C169.387 18.7728 169.554 19.0056 169.615 19.2609C169.679 19.4749 169.644 19.8307 169.546 20.0623C169.424 20.3622 169.279 20.5416 169.006 20.7351C168.77 20.8999 168.491 20.9712 168.2 20.9293C167.968 20.9054 167.634 20.77 167.473 20.6402C167.32 20.5177 167.122 20.2693 167.036 20.0822Z" fill="#EDD761"/>
<path d="M171.242 23.7572C171.128 23.5324 171.053 23.1476 171.077 22.9158C171.115 22.5924 171.216 22.3931 171.447 22.1797C171.625 22.013 171.884 21.8374 172.017 21.782C172.16 21.7337 172.472 21.7488 172.708 21.805C172.984 21.8649 173.239 22.0254 173.415 22.2108C173.583 22.4053 173.699 22.72 173.713 23.0705C173.746 23.4516 173.685 23.712 173.519 23.9184C173.396 24.0709 173.083 24.2769 172.83 24.3536C172.546 24.4501 172.21 24.4458 171.92 24.3463C171.52 24.2017 171.437 24.1207 171.242 23.7572Z" fill="#EDD761"/>
<path d="M175.339 27.6244C175.151 27.3993 175.018 27.0863 174.987 26.7951C174.948 26.3655 174.981 26.2883 175.4 25.8579C175.768 25.474 175.937 25.3738 176.248 25.3726C176.467 25.3569 176.803 25.4349 176.977 25.5305C177.203 25.6532 177.39 25.862 177.536 26.1571C177.645 26.4071 177.717 26.7595 177.664 26.9535C177.628 27.1457 177.487 27.4312 177.357 27.5927C177.235 27.7452 176.954 27.9476 176.749 28.0191C176.544 28.0906 176.211 28.1186 176.008 28.0589C175.773 28.0027 175.543 27.8476 175.339 27.6244Z" fill="#EDD761"/>
</g>
<defs>
<filter id="filter0_b_291_47" x="-20.4" y="57.6001" width="349.8" height="356.8" filterUnits="userSpaceOnUse" color-interpolation-filters="sRGB">
<feFlood flood-opacity="0" result="BackgroundImageFix"/>
<feGaussianBlur in="BackgroundImageFix" stdDeviation="10.2"/>
<feComposite in2="SourceAlpha" operator="in" result="effect1_backgroundBlur_291_47"/>
<feBlend mode="normal" in="SourceGraphic" in2="effect1_backgroundBlur_291_47" result="shape"/>
</filter>
</defs>
</svg>
