<svg width="184" height="186" viewBox="0 0 184 186" fill="none" xmlns="http://www.w3.org/2000/svg">
<g opacity="0.8">
<path fill-rule="evenodd" clip-rule="evenodd" d="M87.7757 180.461C87.6246 180.332 87.02 179.51 86.4621 178.685C85.7709 177.659 85.3955 176.468 85.1738 174.841C85.0497 173.56 85.1317 171.017 85.3658 169.214C85.5999 167.411 86.2128 164.451 86.684 162.676C87.1766 160.876 88.5422 157.035 89.701 154.15C90.8814 151.239 92.7993 146.955 93.9518 144.587C95.1294 142.24 96.2106 140.159 96.3396 140.008C96.4901 139.832 96.7954 139.831 96.9968 140.003C97.1981 140.175 97.4753 142.807 97.5988 145.874C97.7186 148.894 97.8252 152.643 97.8061 154.194C97.7871 155.745 97.673 158.478 97.5323 160.274C97.4167 162.091 97.0766 164.936 96.7848 166.603C96.5182 168.291 95.9368 170.755 95.5224 172.056C95.1079 173.357 94.2025 175.283 93.5363 176.368C92.7269 177.724 91.9957 178.579 91.0632 179.263C90.3781 179.81 89.4094 180.332 88.9285 180.488C88.469 180.618 87.9519 180.611 87.7757 180.461ZM69.9395 160.868C69.1843 160.223 68.4465 159.201 67.9888 158.156C67.5887 157.248 67.1913 155.777 67.1505 154.958C67.106 154.093 67.3836 152.545 67.7733 151.528C68.1846 150.486 69.1514 148.742 71.2832 145.686L69.2697 146.361C68.1462 146.708 66.4375 147.077 65.4609 147.201C64.5058 147.299 63.0657 147.201 62.2968 146.979C61.528 146.758 60.3275 146.124 59.6227 145.522C58.9179 144.92 58.2414 144.081 58.1329 143.596C57.9777 143.115 58.0082 142.009 58.1756 141.151C58.3393 140.245 58.951 138.765 59.5097 137.805C60.0683 136.845 61.0718 135.569 63.0009 133.821L61.4784 133.87C60.613 133.914 59.3596 133.801 58.6662 133.644C57.8292 133.452 56.8695 132.893 55.7619 131.947C54.5536 130.915 53.9778 130.162 53.5416 129.092C53.1955 128.274 52.989 127.139 53.085 126.568C53.1842 125.739 53.6642 124.973 55.0621 123.337C56.5712 121.621 57.231 121.053 58.7274 120.372C59.7249 119.918 61.4369 119.29 62.5173 118.994C63.6192 118.672 66.0675 118.151 68.017 117.857C69.988 117.538 73.8837 117.209 76.6954 117.129C79.5286 117.024 84.0642 117.067 86.7756 117.206C89.5338 117.341 93.6676 117.651 95.9663 117.916C99.4252 118.302 100.241 118.52 100.303 119.008C100.35 119.31 99.74 122.011 98.9834 124.936C98.2305 127.907 97.0805 131.801 96.4514 133.659C95.8224 135.516 94.5922 138.689 93.7408 140.705C92.8894 142.721 91.3896 145.751 90.4444 147.469C89.4739 149.166 87.7723 151.718 86.665 153.167C85.2818 154.99 83.959 156.385 82.4347 157.609C81.1114 158.699 79.2746 159.83 77.8427 160.435C76.5472 160.983 74.5012 161.543 73.2913 161.685C71.3093 161.864 71.0471 161.814 69.9395 160.868ZM105.818 163.216C105.491 162.936 104.962 162.18 104.652 161.523C104.295 160.87 103.989 159.955 103.905 159.492C103.847 159.05 103.921 158.199 104.085 157.599C104.224 156.977 104.758 155.996 105.295 155.367C105.833 154.738 106.762 154.007 107.354 153.773C107.968 153.513 109.228 153.414 110.13 153.531C111.362 153.669 112.066 153.966 112.9 154.723C113.508 155.285 114.242 156.261 114.502 156.875C114.736 157.467 114.932 158.461 114.89 159.122C114.844 159.736 114.551 160.792 114.204 161.454C113.803 162.331 113.309 162.909 112.616 163.363C112.057 163.712 111.106 164.163 110.485 164.329C109.889 164.517 108.732 164.443 107.888 164.157C107.069 163.893 106.12 163.474 105.818 163.216ZM42.6846 108.364C42.1917 107.769 41.5797 106.854 41.3742 106.33C41.0606 105.627 41.1246 105.246 41.6193 104.667C41.9849 104.239 42.9463 103.623 43.7608 103.231C44.5754 102.838 46.0901 102.39 47.1096 102.216C48.1292 102.042 50.0755 102.007 51.4223 102.112C52.7477 102.243 54.91 102.566 56.2248 102.862C57.5611 103.133 60.3958 103.944 62.5193 104.669C64.6643 105.369 68.52 106.922 71.1254 108.103C73.7057 109.262 77.2242 111.005 78.9422 111.95C80.6603 112.896 82.0443 113.773 82.0338 113.938C82.0448 114.078 80.4435 114.322 78.5297 114.472C76.5944 114.647 72.9426 114.793 70.4073 114.805C67.872 114.816 64.1299 114.711 62.1223 114.563C60.0932 114.441 56.8677 114.037 54.9891 113.738C53.1105 113.439 50.4269 112.758 49.0722 112.254C47.6961 111.775 45.9135 110.905 45.0975 110.382C44.2815 109.859 43.2242 108.956 42.6846 108.364ZM104.018 151.663C103.943 151.598 103.327 150.332 102.62 148.814C101.939 147.318 101.171 145.311 100.907 144.346C100.622 143.405 100.27 141.32 100.078 139.761C99.8847 138.203 99.8377 135.812 99.9433 134.465C100.074 133.139 100.515 130.686 100.972 129.03C101.429 127.374 102.441 124.711 103.232 123.122C103.998 121.512 105.574 118.852 106.735 117.188C107.896 115.523 109.185 113.708 110.397 112.086L107.973 112.629C106.656 112.897 103.658 113.297 101.346 113.455C99.0333 113.613 95.4171 113.615 93.291 113.453C91.1863 113.266 87.7091 112.647 85.5536 112.112C83.373 111.555 80.7717 110.726 79.7475 110.243C78.7017 109.785 77.0917 109.019 76.1645 108.576C75.2373 108.132 72.6523 106.315 70.4482 104.563C67.9708 102.621 66.5575 101.37 66.762 101.283C66.9703 101.243 68.757 102.465 70.7561 103.999C73.2298 105.894 75.358 107.277 77.3131 108.251C78.9231 109.017 81.4494 110.086 82.944 110.579C84.4172 111.098 87.0757 111.758 88.8609 112.064C90.6247 112.395 93.5842 112.702 95.4445 112.768C97.2833 112.858 100.515 112.745 102.637 112.555C104.734 112.343 107.567 111.933 108.88 111.618C111.235 111.105 111.368 111 113.548 108.856C114.767 107.633 116.954 105.583 118.403 104.295C119.852 103.007 122.459 100.924 124.166 99.6389C125.873 98.3541 129.17 96.0757 131.52 94.5995C133.844 93.1019 136.015 91.7338 136.33 91.5681C136.915 91.2404 136.811 91.1076 132.507 87.7354C130.076 85.7894 126.589 83.2454 124.734 82.0526C122.9 80.8346 119.647 78.8827 117.559 77.7082C115.446 76.5122 111.64 74.6977 109.067 73.6317C106.472 72.5909 102.829 71.3507 100.961 70.8869C99.0928 70.423 96.3268 69.8889 94.7859 69.7046C93.2918 69.5167 90.4906 69.4315 88.6198 69.5314C86.749 69.6314 84.0097 70.0345 82.5632 70.4534C81.0915 70.8508 79.1031 71.547 78.1019 71.9544C77.1473 72.3582 75.2565 73.3991 73.94 74.2774C72.645 75.1306 70.9199 76.4872 70.0665 77.2822C69.2598 78.0736 68.4563 78.6063 68.3304 78.4988C68.1794 78.3698 68.4873 77.8055 68.9819 77.2265C69.4981 76.6224 70.9504 75.3811 72.2633 74.4561C73.5761 73.5311 75.822 72.2275 77.2717 71.55C78.7214 70.8725 80.9573 70.0394 82.2208 69.6818C83.4376 69.3279 86.0584 68.9107 88.0188 68.7567C89.9326 68.6064 92.8702 68.634 94.5259 68.7857C96.1601 68.9626 99.0913 69.5073 101.078 69.9853C103.043 70.4885 105.371 71.1275 106.241 71.4349C107.135 71.7639 107.854 71.9423 107.825 71.8741C107.843 71.8022 107.346 70.855 106.698 69.7787C106.071 68.6773 105.087 66.6176 104.485 65.2324C103.905 63.8221 103.115 61.5358 102.768 60.1072C102.399 58.7036 102.036 56.1725 101.904 54.4921C101.772 52.8117 101.868 49.8453 102.091 47.9022C102.335 45.9339 102.93 43.0457 103.413 41.411C103.92 39.7978 104.85 37.2826 105.533 35.8199C106.191 34.3357 106.868 33.0849 107.073 32.9984C107.3 32.9023 107.409 32.9955 107.4 33.278C107.372 33.5151 106.864 34.823 106.22 36.1887C105.575 37.5543 104.664 39.9977 104.156 41.6109C103.649 43.2241 103.082 45.8753 102.88 47.488C102.678 49.1007 102.619 52.2286 102.791 54.4225C102.942 56.6415 103.435 59.6321 103.9 61.0749C104.345 62.5429 105.041 64.5313 105.423 65.511C105.852 66.4871 106.904 68.5179 109.439 72.6866L112.166 73.9283C113.701 74.6297 116.195 75.8897 117.741 76.7311C119.265 77.5977 121.975 79.2165 123.682 80.3269C125.437 81.4338 129.021 84.0171 131.646 86.0418C134.274 88.1132 136.806 90.1453 137.262 90.579C137.719 91.0128 138.014 91.4828 137.907 91.6086C137.799 91.7345 136.031 92.8362 133.968 94.0785C131.905 95.3207 128.734 97.4015 126.887 98.6972C125.065 100.015 122.163 102.238 120.467 103.663C118.77 105.088 115.859 107.783 113.987 109.667C111.506 112.163 109.915 114.026 108.073 116.59C106.676 118.531 104.95 121.367 104.198 122.859C103.471 124.372 102.48 126.704 102.066 128.005C101.651 129.305 101.131 131.647 100.968 133.163C100.78 134.657 100.695 137.153 100.79 138.672C100.911 140.212 101.285 142.578 101.654 143.982C102.044 145.36 102.852 147.575 103.446 148.866C104.066 150.18 104.488 151.368 104.359 151.519C104.23 151.67 104.094 151.727 104.018 151.663ZM107.304 149.244C106.951 148.943 106.789 148.369 106.885 147.798C107.031 146.965 107.16 146.814 107.96 146.539C108.463 146.359 109.052 146.383 109.253 146.555C109.454 146.727 109.771 147.172 109.919 147.56C110.092 147.969 109.996 148.54 109.655 148.989C109.358 149.388 108.845 149.734 108.493 149.738C108.141 149.742 107.631 149.524 107.304 149.244ZM104.6 140.839C104.298 140.58 104.028 140.132 104.003 139.805C103.977 139.479 104.238 138.918 104.561 138.54C104.962 138.07 105.426 137.901 105.953 138.032C106.41 138.16 106.927 138.472 107.068 138.766C107.255 139.057 107.306 139.71 107.156 140.192C106.981 140.957 106.827 141.086 106.037 141.195C105.549 141.257 104.902 141.097 104.6 140.839ZM56.6888 94.4189C56.1995 93.8702 55.6017 92.837 55.403 92.1011C55.1828 91.3904 55.1808 90.1695 55.3771 89.3791C55.6305 88.4199 56.1105 87.6542 56.9387 86.8377C57.5912 86.1759 58.6208 85.5314 59.2633 85.3401C59.9309 85.1702 61.0837 85.1971 61.8489 85.3718C62.5925 85.5717 63.6923 86.1194 64.2461 86.5925C64.825 87.0871 65.4695 88.1167 65.7977 89.0068C66.1585 90.0117 66.2391 91.0386 65.9821 91.9511C65.7858 92.7415 65.3027 93.7657 64.9371 94.1937C64.55 94.6468 63.7538 95.2729 63.1868 95.5288C62.6235 95.8313 61.5646 96.1024 60.8607 96.1107C60.1354 96.1442 59.1117 95.9663 58.5799 95.7732C58.0481 95.5802 57.178 94.9675 56.6888 94.4189ZM104.908 133.699C104.556 133.398 104.394 132.824 104.49 132.252C104.635 131.419 104.764 131.268 105.565 130.994C106.067 130.813 106.656 130.838 106.858 131.01C107.059 131.182 107.376 131.627 107.524 132.014C107.697 132.423 107.601 132.994 107.26 133.444C106.963 133.843 106.45 134.188 106.098 134.193C105.746 134.197 105.236 133.979 104.908 133.699ZM37.5138 73.0292C36.6616 72.3446 35.917 71.5343 35.8268 71.283C35.7078 70.9636 36.098 70.252 37.0228 69.1696C38.1374 67.8139 38.8046 67.3388 40.5737 66.5423C41.801 66.0232 44.1701 65.391 45.8898 65.162C47.5629 64.9366 50.1732 64.6846 51.6491 64.6391C53.1249 64.5936 55.8291 64.6395 57.6463 64.7551C59.4636 64.8707 62.3009 65.1175 63.9351 65.2944C65.5694 65.4713 69.2799 66.0722 72.1859 66.5954C75.0704 67.1437 77.4882 67.7288 77.5028 67.9155C77.496 68.1274 75.6157 69.003 73.265 69.8687C70.9142 70.7343 67.1384 71.9937 64.8449 72.6905C62.5261 73.3658 58.7677 74.2481 56.4773 74.6863C54.1869 75.1245 50.8875 75.5716 49.1567 75.6605C47.426 75.7495 45.0271 75.7031 43.8633 75.5362C42.6995 75.3693 41.1225 75.0235 40.3751 74.777C39.6278 74.5304 38.3445 73.7388 37.5138 73.0292ZM72.758 98.3933C72.6573 98.3073 72.4806 97.8515 72.3255 97.3706C72.1954 96.9111 72.3093 96.2681 72.5889 95.9409C72.847 95.6388 73.3169 95.3436 73.6437 95.3179C73.9489 95.3175 74.531 95.5535 74.9086 95.8761C75.3617 96.2632 75.5636 96.7405 75.435 97.1968C75.3495 97.6027 75.1706 98.016 75.0416 98.167C74.9126 98.318 74.4064 98.4517 73.893 98.492C73.3795 98.5324 72.8839 98.5009 72.758 98.3933ZM106.809 125.307C106.431 124.985 106.086 124.472 106.06 124.145C106.034 123.818 106.231 123.333 106.468 123.056C106.704 122.779 107.271 122.523 107.738 122.487C108.18 122.429 108.708 122.575 108.909 122.747C109.111 122.919 109.316 123.443 109.353 123.91C109.411 124.351 109.311 124.876 109.161 125.052C109.035 125.25 108.587 125.52 108.199 125.668C107.786 125.794 107.212 125.651 106.809 125.307ZM81.9273 103.614C81.8014 103.507 81.6069 103.123 81.5309 102.753C81.4549 102.383 81.4827 101.841 81.5792 101.575C81.6758 101.309 82.1421 100.967 82.623 100.812C83.104 100.657 83.7003 100.774 84.0779 101.097C84.4554 101.42 84.6646 101.99 84.5864 102.49C84.5083 102.989 84.2433 103.503 83.9958 103.64C83.7482 103.777 83.2169 103.889 82.8613 103.846C82.5094 103.85 82.0783 103.743 81.9273 103.614ZM87.4522 106.985C87.308 106.644 87.2892 106.105 87.4287 105.789C87.5216 105.476 87.8872 105.048 88.1993 104.836C88.5113 104.623 89.0463 104.558 89.3625 104.698C89.6788 104.837 90.0815 105.181 90.2939 105.493C90.4811 105.784 90.5251 106.344 90.3892 106.707C90.2534 107.07 89.8663 107.523 89.5757 107.71C89.2851 107.897 88.725 107.941 88.3872 107.827C88.0243 107.691 87.6216 107.347 87.4522 106.985ZM96.2519 110.191C95.9247 109.912 95.6473 109.37 95.6179 108.997C95.5886 108.623 95.7135 108.12 95.8855 107.919C96.0576 107.718 96.6282 107.508 97.1417 107.468C97.6551 107.428 98.2514 107.545 98.4528 107.717C98.6542 107.889 98.8561 108.367 98.8854 108.74C98.9147 109.113 98.7505 109.713 98.4961 110.062C98.2417 110.411 97.7933 110.681 97.4413 110.685C97.0894 110.689 96.5791 110.471 96.2519 110.191ZM78.3781 94.0067C76.5909 92.4798 74.692 90.7269 74.2242 90.1531C73.7313 89.5577 73.3102 88.9803 73.2992 88.8402C73.2882 88.7002 74.1201 87.9304 75.1135 87.1244C76.1321 86.3399 77.7785 85.1773 78.7903 84.6047C79.7769 84.0105 81.4993 83.2177 82.5724 82.8282C83.6455 82.4386 85.4581 81.897 86.5422 81.6475C87.673 81.3943 90.1863 81.1029 92.1504 80.9956C94.136 80.8631 97.1239 80.9337 98.7581 81.1106C100.371 81.3127 103.492 81.8894 105.673 82.4461C107.875 82.9776 111.051 83.9492 112.79 84.5641C114.508 85.2041 117.545 86.492 119.496 87.4189C121.426 88.371 123.823 89.5917 124.804 90.1251C125.764 90.6838 126.71 91.361 126.85 91.6552C127.171 92.1467 126.973 92.3266 124.523 93.7167C123.041 94.5845 120.354 95.9463 118.516 96.7716C116.679 97.5969 114.013 98.6283 112.57 99.0939C111.152 99.581 108.503 100.235 106.701 100.612C104.899 100.988 102.296 101.333 100.964 101.415C99.6062 101.474 97.3259 101.442 95.8605 101.322C94.3737 101.228 92.2113 100.904 91.0365 100.597C89.8403 100.316 88.2774 99.8514 87.53 99.6048C86.8042 99.333 85.1727 98.5923 83.9256 97.9623C82.3837 97.1676 80.6148 95.8741 78.3781 94.0067ZM111.562 117.959C111.001 117.393 110.922 116.976 111.15 116.301C111.422 115.575 111.666 115.392 112.434 115.308C112.948 115.267 113.544 115.385 113.745 115.557C113.947 115.729 114.152 116.253 114.189 116.72C114.247 117.161 114.148 117.686 113.997 117.862C113.872 118.06 113.398 118.308 113.01 118.456C112.461 118.64 112.098 118.504 111.562 117.959ZM120.353 124.642C120.13 124.496 119.526 123.674 119.018 122.892C118.485 122.089 117.941 120.84 117.789 120.1C117.662 119.382 117.653 118.068 117.842 117.184C117.984 116.304 118.52 114.759 119.003 113.735C119.587 112.492 120.794 110.823 122.687 108.608C124.515 106.469 126.54 104.454 128.592 102.767C130.288 101.342 133.147 99.1683 134.929 97.9481C136.712 96.7278 138.678 95.4462 139.288 95.14C139.988 94.7798 140.408 94.7468 140.336 95.0342C140.308 95.2712 139.491 96.2278 138.508 97.1738C137.548 98.0947 134.794 101.011 132.393 103.619C129.561 106.73 127.568 109.164 126.669 110.573C125.895 111.785 125.143 113.276 125.001 113.851C124.751 114.857 124.834 115.015 126.168 116.155C127.124 116.972 127.779 117.836 128.1 118.633C128.364 119.293 128.559 120.288 128.531 120.83C128.503 121.372 128.139 122.411 127.702 123.126C127.29 123.863 126.537 124.744 126.046 125.064C125.533 125.41 124.571 125.72 123.867 125.728C123.189 125.758 122.215 125.623 121.701 125.359C121.166 125.119 120.555 124.815 120.353 124.642ZM71.6373 82.6304C71.3352 82.3723 71.04 81.9023 71.0143 81.5756C70.9887 81.2489 71.2284 80.7134 71.5295 80.361C71.8305 80.0086 72.322 79.6882 72.6488 79.6625C72.954 79.662 73.4606 79.8336 73.7878 80.1131C74.1403 80.4142 74.3028 80.9885 74.2068 81.5597C74.0609 82.393 73.9318 82.5441 73.1315 82.8183C72.5823 83.0023 71.9645 82.9099 71.6373 82.6304ZM104.887 109.208C104.577 108.857 104.372 108.333 104.393 108.002C104.439 107.693 104.797 107.172 105.242 106.855C105.751 106.463 106.218 106.426 106.808 106.756C107.372 107.064 107.613 107.444 107.661 108.051C107.698 108.518 107.555 109.092 107.361 109.319C107.168 109.545 106.669 109.772 106.224 109.784C105.804 109.817 105.196 109.559 104.887 109.208ZM54.8485 57.8361C52.9857 56.2446 52.0108 55.194 51.1252 53.7842C50.4555 52.7331 49.735 51.3337 49.5185 50.6697C49.3272 50.0272 49.2753 49.0685 49.4684 48.5367C49.6651 48.0516 50.3528 46.9409 51.0625 46.1102C52.0481 44.9056 52.6901 44.409 54.0574 43.8789C55.0372 43.4966 56.6851 43.2498 57.7912 43.2803C58.9224 43.3323 60.9054 43.7637 62.2349 44.2463C63.5643 44.7289 64.6599 44.9247 64.6453 44.738C64.6054 44.5298 64.3931 44.2177 64.1413 44.0026C63.9148 43.8091 63.1733 42.7401 62.5215 41.6172C61.8482 40.5194 61.2027 38.8793 61.0791 37.9028C60.9339 36.9514 60.9854 35.5149 61.2068 34.746C61.4534 33.9987 61.872 33.0499 62.2161 32.6472C62.5387 32.2696 63.2059 31.7945 63.7513 31.5638C64.2501 31.3368 65.4349 31.1732 66.3721 31.1466C67.3345 31.1414 68.782 31.333 69.6264 31.6189C70.4923 31.8797 71.7861 32.506 73.9431 33.9569L73.4276 32.7763C73.1644 32.116 72.886 30.9637 72.8059 30.242C72.7724 29.5167 72.8601 28.2417 73.0563 27.4513C73.2631 26.4958 73.7965 25.5146 74.5707 24.6084C75.2159 23.8532 76.0871 22.9864 76.5319 22.6696C76.9767 22.3529 78 22.2255 78.9912 22.2886C79.9609 22.3768 81.4304 22.8484 82.3398 23.3641C83.5187 24.0229 84.3998 24.7756 85.5367 26.0953C86.4145 27.1066 87.649 28.7708 88.2467 29.8041C88.8912 30.8337 90.0621 33.1839 90.8874 35.0212C91.7127 36.8585 92.9318 40.1208 93.6391 42.2492C94.3249 44.4027 95.3577 47.9849 95.936 50.2643C96.5142 52.5437 97.4259 56.6756 97.9511 59.4757C98.5015 62.2974 98.8862 64.8034 98.8327 65.0189C98.7613 65.3063 97.8173 65.5448 96.6755 65.658C95.5552 65.746 92.2983 65.8375 89.4362 65.8744C86.5994 65.9329 82.5306 65.8533 80.4296 65.713C78.3538 65.5943 75.2505 65.2509 73.5623 64.9843C71.8525 64.7429 69.2518 64.2192 67.7681 63.8661C66.2844 63.513 64.312 62.9165 63.3957 62.6127C62.4544 62.2875 60.7546 61.5756 59.5579 60.9886C58.1922 60.3444 56.4558 59.1657 54.8485 57.8361ZM78.9908 77.591C78.6888 77.3329 78.3935 76.863 78.3679 76.5362C78.3422 76.2095 78.6034 75.6488 78.9475 75.2461C79.3131 74.8182 79.7904 74.6163 80.2467 74.7448C80.6526 74.8304 81.0659 75.0093 81.2169 75.1383C81.3679 75.2673 81.5016 75.7734 81.542 76.2869C81.5823 76.8004 81.4863 77.3715 81.3394 77.5944C81.1673 77.7957 80.6901 77.9976 80.2915 78.0054C79.8714 78.0384 79.2929 77.8491 78.9908 77.591ZM85.6816 75.7739C85.4514 75.5336 85.3282 74.8623 85.4243 74.2912C85.6095 73.3608 85.674 73.2853 86.5824 73.1904C87.0959 73.1501 87.764 73.2855 88.0194 73.5472C88.2963 73.7838 88.5663 74.2322 88.592 74.559C88.6177 74.8857 88.3816 75.4678 88.0842 75.8669C87.7438 76.3164 87.2917 76.5397 86.8354 76.4112C86.4546 76.3472 85.9155 76.0608 85.6816 75.7739ZM94.6044 75.1669C94.2195 74.751 93.9385 74.1625 93.9595 73.8321C94.0057 73.5232 94.3639 73.0019 94.8087 72.6852C95.2068 72.3721 95.7848 72.2562 96.1514 72.4388C96.4928 72.5998 96.9029 73.0373 97.0507 73.4249C97.2201 73.7873 97.1959 74.3763 97.0349 74.7177C96.8738 75.0591 96.4112 75.4477 96.0021 75.6207C95.4781 75.8263 95.1152 75.6904 94.6044 75.1669ZM102.854 77.9474C102.476 77.6248 102.131 77.1119 102.105 76.7851C102.08 76.4584 102.298 75.9481 102.577 75.6209C102.857 75.2936 103.431 75.1311 104.002 75.2271C104.836 75.373 104.987 75.5021 105.261 76.3024C105.441 76.8049 105.417 77.3938 105.249 77.6419C105.077 77.8433 104.632 78.16 104.244 78.3079C103.832 78.4342 103.257 78.2915 102.854 77.9474ZM112.696 81.5657C112.444 81.3506 112.192 80.8303 112.163 80.4569C112.133 80.0835 112.301 79.5302 112.538 79.2533C112.774 78.9764 113.295 78.7242 113.693 78.7163C114.067 78.687 114.62 78.8549 114.897 79.0915C115.148 79.3065 115.401 79.8268 115.43 80.2002C115.459 80.5737 115.291 81.127 115.102 81.4002C114.865 81.6771 114.345 81.9293 113.946 81.9371C113.526 81.9701 112.973 81.8022 112.696 81.5657ZM108.875 68.504C108.749 68.0912 108.841 67.4734 109.071 67.1031C109.325 66.7544 109.791 66.4125 110.118 66.3868C110.445 66.3612 111.027 66.5972 111.383 66.945C111.836 67.3321 112.038 67.8094 111.909 68.2656C111.824 68.6716 111.487 69.1677 111.175 69.3801C110.863 69.5924 110.281 69.6616 109.872 69.5294C109.357 69.3507 109.025 69.0089 108.875 68.504ZM105.958 60.9603C105.757 60.7882 105.53 60.2894 105.493 59.8226C105.435 59.381 105.581 58.8529 105.753 58.6515C105.925 58.4502 106.449 58.2446 106.916 58.208C107.358 58.1498 107.958 58.314 108.213 58.5757C108.49 58.8123 108.76 59.2607 108.786 59.5875C108.811 59.9142 108.575 60.4964 108.278 60.8955C107.916 61.3701 107.485 61.5683 107.029 61.4397C106.648 61.3757 106.159 61.1323 105.958 60.9603ZM126.49 77.4998C125.166 76.1948 122.756 73.6132 121.13 71.7448C119.482 69.9017 117.294 67.1617 116.308 65.6658C115.3 64.1951 113.953 61.9995 113.337 60.7329C112.7 59.4914 112.011 57.5964 111.736 56.4908C111.508 55.3815 111.44 53.6256 111.593 52.5804C111.828 51.0825 112.189 50.3027 113.21 48.9544C114.253 47.5809 114.849 47.088 116.008 46.5977C116.779 46.2553 118.011 46.0881 118.697 46.1517C119.695 46.308 120.213 46.6196 121.109 47.559C121.745 48.1901 122.364 49.1981 122.48 49.7761C122.618 50.3289 122.63 51.3847 122.549 52.1425C122.432 53.0441 122.07 53.8239 121.404 54.6042C120.866 55.2336 119.826 56.0432 119.08 56.4071C117.795 57.0951 117.752 57.1454 117.8 58.0575C117.819 58.5961 118.288 60.0857 118.84 61.4278C119.366 62.7485 120.674 65.3463 121.758 67.1868C122.82 69.0524 124.675 72.03 125.852 73.8631C127.051 75.6711 128.408 77.7014 128.858 78.3471C129.387 79.1039 129.567 79.6064 129.291 79.6751C128.993 79.7689 128.166 79.1059 126.49 77.4998ZM96.3831 42.5033C95.5966 40.2637 94.4127 36.5525 93.7375 34.2338C93.0622 31.915 92.1584 28.1818 91.7202 25.8914C91.2819 23.601 90.8234 19.8563 90.6904 17.5654C90.5166 14.4558 90.6322 12.6385 91.1784 10.6231C91.7314 8.39569 92.1143 7.59068 93.1466 6.38242C94.1574 5.19932 94.5591 4.93293 95.22 4.97495C95.6689 5.01013 96.5028 5.46127 97.1069 5.9774C97.6858 6.47203 98.5422 7.50846 99.0283 8.31567C99.4892 9.10137 100.196 10.9245 100.64 12.3925C101.084 13.8605 101.538 16.6429 101.666 18.5818C101.795 20.5208 101.797 24.137 101.618 26.6403C101.461 29.1184 100.93 33.7158 100.378 36.8589C99.848 39.9768 99.1784 43.4109 98.9286 44.4168C98.6574 45.4479 98.307 46.3678 98.1239 46.4291C97.9445 46.5371 97.1696 44.7429 96.3831 42.5033ZM106.35 52.1938C106.048 51.9358 105.752 51.4658 105.727 51.1391C105.701 50.8123 105.941 50.2769 106.242 49.9245C106.543 49.572 107.034 49.2517 107.361 49.226C107.666 49.2255 108.173 49.397 108.5 49.6766C108.853 49.9777 109.015 50.552 108.919 51.1231C108.773 51.9565 108.644 52.1075 107.844 52.3817C107.295 52.5658 106.677 52.4734 106.35 52.1938ZM108.788 45.568C108.385 45.2239 108.04 44.7109 108.014 44.3842C107.988 44.0574 108.25 43.4968 108.594 43.094C109.002 42.6158 109.415 42.4894 110.019 42.7003C110.525 42.8719 110.953 43.2375 111.123 43.5999C111.263 43.8941 111.26 44.4579 111.121 44.7742C110.96 45.1156 110.548 45.5472 110.189 45.7632C109.694 46.0369 109.266 45.9766 108.788 45.568ZM111.947 38.2515C111.569 37.9289 111.224 37.4159 111.198 37.0892C111.173 36.7624 111.391 36.2521 111.67 35.9249C111.95 35.5977 112.524 35.4351 113.095 35.5312C113.785 35.6414 114.109 35.8743 114.336 36.3731C114.484 36.7607 114.481 37.3245 114.32 37.6659C114.159 38.0073 113.696 38.3959 113.334 38.5652C112.899 38.7168 112.375 38.617 111.947 38.2515ZM106.628 28.8299C106.092 28.2849 105.541 27.248 105.356 26.3936C105.15 25.5644 105.037 24.4227 105.133 23.8515C105.218 23.1404 105.691 22.2813 106.486 21.35C107.411 20.2675 108.01 19.8213 108.865 19.6368C109.489 19.5172 110.444 19.4187 110.987 19.4466C111.529 19.4745 112.517 19.7961 113.157 20.1685C114.012 20.5944 114.624 21.2039 115.264 22.1868C115.905 23.1698 116.133 23.9738 116.056 25.0836C116.003 25.9096 115.671 27.0629 115.316 27.6308C114.983 28.1736 114.27 28.9576 113.761 29.3499C113.226 29.7206 112.369 30.1637 111.791 30.2795C111.238 30.4169 110.081 30.3434 109.172 30.1329C108.073 29.8905 107.29 29.4824 106.628 28.8299Z" fill="#7D7A64"/>
<path d="M77.3391 159.7C76.18 160.19 74.3207 160.735 73.2041 160.87C71.2043 161.121 71.1539 161.078 70.1502 159.959C69.6069 159.321 68.8943 158.32 68.6096 157.685C68.3034 157.075 67.9678 156.091 67.9238 155.531C67.8546 154.95 67.9675 153.696 68.1994 152.762C68.4528 151.803 69.2544 150.049 70.0066 148.863C71.0132 147.328 72.067 146.094 73.6196 144.634C74.8244 143.529 75.8246 142.512 75.8136 142.372C75.8026 142.232 75.5871 142.178 75.3789 142.218C75.124 142.261 74.3813 142.672 73.6674 143.151C72.9284 143.608 71.4646 144.404 70.3521 144.891C69.2648 145.399 67.5492 145.98 66.5333 146.2C65.4026 146.453 63.9912 146.423 62.7483 146.145C61.6705 145.878 60.4307 145.341 59.9776 144.954C59.4994 144.545 59.0888 143.803 58.9619 143.085C58.8639 142.435 59.0377 141.059 59.3556 140.024C59.8592 138.365 60.153 137.919 61.9993 136.013C63.4764 134.488 64.6492 133.574 66.0485 132.853C67.1536 132.273 68.1439 131.726 68.2729 131.575C68.4019 131.424 68.3621 131.215 68.2362 131.108C68.0852 130.979 67.0551 131.318 65.8997 131.855C64.7657 132.367 62.9494 132.862 61.8795 132.993C60.8059 133.077 59.4161 133.022 58.7694 132.861C58.148 132.722 57.0409 132.081 56.3612 131.501C55.6564 130.898 54.7927 129.769 54.4036 129.001C53.8237 127.896 53.7509 127.267 54.0651 126.186C54.2865 125.417 54.7518 124.465 55.1174 124.037C55.4615 123.634 56.4764 122.803 57.3482 122.241C58.2199 121.68 59.7089 120.905 60.6383 120.48C61.5714 120.101 63.8471 119.476 65.6492 119.1C67.4513 118.724 71.1997 118.312 73.9322 118.121C76.6899 117.951 80.015 117.831 81.3078 117.846C82.6221 117.837 85.567 117.958 87.8547 118.084C90.1424 118.209 91.9885 118.393 91.9492 118.49C91.935 118.609 91.0125 118.822 89.9032 119.05C88.7902 119.231 85.9365 119.972 83.5748 120.698C81.1879 121.402 78.2088 122.34 76.9527 122.791C75.3053 123.343 74.7205 123.671 74.8395 123.99C74.9297 124.242 75.1274 124.367 75.2816 124.238C75.4394 124.155 77.862 123.307 80.7263 122.401C83.5653 121.473 87.5173 120.365 89.4772 119.905C91.4624 119.468 94.155 119.068 95.4405 118.991C96.7297 118.96 97.9076 119.008 98.0586 119.137C98.1845 119.245 98.045 119.561 97.715 119.845C97.3815 120.083 94.3005 122.415 90.886 124.984C87.4499 127.579 84.6632 129.771 84.6994 129.932C84.7104 130.072 84.9044 130.151 85.1593 130.107C85.389 130.042 88.2334 127.987 91.5153 125.522C94.7719 123.035 97.609 120.887 97.7884 120.779C97.9893 120.646 98.2441 120.602 98.3448 120.688C98.4707 120.796 97.5474 122.794 96.2979 125.123C95.0521 127.499 93.2796 130.644 92.3878 132.146C91.4709 133.627 89.8191 135.917 88.7223 137.201C87.561 138.56 86.8445 139.603 86.9955 139.732C87.1214 139.84 87.6884 139.584 88.194 139.145C88.7463 138.702 90.0472 137.027 91.1435 135.438C92.2398 133.849 94.1953 130.642 95.4878 128.263C96.8055 125.905 97.9942 123.698 98.4091 122.703L98.3818 123.55C98.3718 124.021 97.6472 126.755 96.7899 129.593C95.9363 132.478 94.5172 136.535 93.6517 138.669C92.7861 140.804 91.344 143.97 90.4491 145.731C89.3643 147.765 87.8562 150.091 86.1504 152.291C84.1042 154.941 83.0394 156.035 81.4648 157.215C80.3565 158.054 78.4946 159.163 77.3391 159.7Z" fill="#F5F5F5"/>
<path d="M62.9022 61.4067C61.5475 60.9026 59.5745 60.0008 58.4963 59.428C57.2707 58.7728 55.7499 57.6477 54.3581 56.3715C52.5095 54.6616 51.984 53.9514 51.0255 51.9132C50.2867 50.2805 49.9905 49.2 50.1657 48.7401C50.3194 48.3053 50.9069 47.4138 51.5091 46.709C52.0897 46.0293 53.1262 45.173 53.7828 44.8631C54.4358 44.5065 55.6526 44.1526 56.4928 44.0866C57.3545 43.9955 58.9888 44.1724 60.185 44.4541C61.3813 44.7359 63.39 45.4939 64.6371 46.124C65.9057 46.7288 67.3615 47.6242 67.865 48.0543C68.5446 48.635 68.9075 48.7708 69.1441 48.494C69.4022 48.1919 69.1143 47.8153 67.755 46.654C66.8236 45.8583 65.4963 44.5066 64.7947 43.6459C64.093 42.7852 63.0993 41.1959 62.5912 40.1086C62.0831 39.0214 61.682 37.503 61.6449 36.731C61.6544 35.9553 61.8895 34.7627 62.2079 34.0332C62.7052 32.8904 62.9025 32.7105 64.0437 32.2921C64.7507 32.0253 66.0541 31.8759 66.9519 31.9463C67.8498 32.0166 69.2868 32.3734 70.2067 32.7239C71.371 33.196 72.6364 34.0594 74.6502 35.7799C76.4374 37.3068 77.5555 38.0878 77.6342 37.8938C77.7129 37.6997 77.2304 36.9392 76.5613 36.1933C75.8922 35.4475 74.9813 34.0161 74.5272 33.0185C74.0731 32.021 73.6185 30.7181 73.5746 30.158C73.5054 29.5764 73.5826 28.4666 73.761 27.7481C73.9966 26.8607 74.5516 25.8543 75.3903 24.8726C76.4871 23.5888 76.8673 23.3476 78.0269 23.1626C78.7953 23.0787 80.0524 23.2383 80.8538 23.5746C81.9677 24.0037 82.8125 24.5949 84.2369 25.9859C85.4598 27.2049 86.6654 28.801 87.6989 30.5984C88.5453 32.1053 89.7702 34.5452 90.3758 35.9771C90.9851 37.4556 92.0636 40.4237 92.7745 42.5987C93.5107 44.7953 94.6809 48.9303 95.375 51.7876C96.0942 54.6665 96.6583 57.0644 96.5938 57.14C96.5293 57.2155 96.3279 57.0434 96.1407 56.7528C95.9572 56.509 95.0317 54.8909 94.0558 53.2298C93.1014 51.5435 91.2472 48.566 89.8974 46.629C88.5692 44.6668 87.2771 42.8662 87.0002 42.6296C86.6645 42.3429 86.5089 42.3551 86.5334 42.6663C86.5769 42.9212 87.8695 45.027 89.4641 47.391C91.0551 49.7082 93.0966 52.9764 93.9969 54.573C94.8973 56.1695 96.043 58.4983 96.5406 59.7507C97.0597 60.9781 97.5001 62.3994 97.5404 62.9129C97.6137 63.8464 97.6137 63.8464 95.4924 62.2518C94.3698 61.4566 91.5647 59.3394 89.0543 57.4447L88.5821 57.0883C85.961 55.1102 83.7211 53.5015 83.6026 53.4873C83.4841 53.4731 83.4269 53.642 83.4201 53.8539C83.4599 54.0621 86.34 56.3485 89.8096 58.9644C93.2792 61.5803 96.1557 63.82 96.1667 63.9601C96.1777 64.1001 94.3998 63.8875 92.1583 63.453C89.9419 63.0401 86.2849 62.2236 84.0539 61.6239C81.8229 61.0242 78.8298 59.9912 77.4427 59.3722C76.0303 58.7317 74.7439 58.1987 74.5105 58.2171C74.3238 58.2317 74.511 58.5223 74.9138 58.8664C75.3165 59.2105 76.6176 59.9302 77.8574 60.4668C79.0972 61.0035 81.5118 61.8471 83.2398 62.3219C84.9679 62.7967 87.9604 63.5245 89.8427 63.8697C91.7502 64.2365 93.3309 64.629 93.3634 64.7439C93.4174 64.8336 92.3008 64.9682 90.8501 65.0352C89.3994 65.1022 86.487 65.0961 84.3934 65.0492C82.2997 65.0024 78.6363 64.703 76.2191 64.4232C73.8234 64.1183 70.3966 63.5421 68.604 63.1428C66.8329 62.7183 64.2353 61.9361 62.9022 61.4067Z" fill="#F5F5F5"/>
<path d="M91.9402 177.269C91.2305 178.099 90.2014 179.049 89.6847 179.348C88.8775 179.834 88.5723 179.834 87.9682 179.318C87.5654 178.974 86.9896 178.221 86.6871 177.658C86.4097 177.116 86.0448 175.759 85.9138 174.689C85.7613 173.644 85.8402 171.36 86.0313 169.608C86.2475 167.876 86.789 165.204 87.2067 163.644C87.6495 162.107 88.5786 159.286 89.2721 157.353C89.9657 155.42 91.4073 151.949 92.4449 149.613C93.4825 147.277 94.56 145.149 95.2518 144.391L95.1993 145.217C95.1641 145.666 94.0381 151.061 92.687 157.179C91.3358 163.297 90.2811 168.405 90.3388 168.541C90.4217 168.699 90.5617 168.688 90.6692 168.562C90.7767 168.436 92.0748 162.839 93.5005 156.176C94.9728 149.508 96.3034 144.026 96.5153 144.033C96.702 144.018 96.8985 145.623 96.9807 147.566C97.0162 149.512 97.0788 152.701 97.0639 154.604C97.0527 156.554 96.8997 159.689 96.7233 161.629C96.5254 163.594 96.0814 166.611 95.7288 168.4C95.3295 170.192 94.6222 172.549 94.1249 173.692C93.6276 174.835 92.6499 176.438 91.9402 177.269Z" fill="#7D7A64"/>
<path d="M51.7443 112.184C50.0666 111.753 48.0186 111.092 47.1632 110.666C46.3115 110.286 44.9779 109.452 44.2731 108.85C43.5216 108.251 42.6652 107.215 42.3338 106.583C41.8042 105.521 41.8184 105.403 42.6146 104.776C43.1024 104.409 44.1393 103.858 44.8893 103.541C45.6394 103.224 47.3518 102.901 48.6624 102.845C49.9946 102.764 52.4045 102.951 54.046 103.221C55.6876 103.491 58.6335 104.223 60.6096 104.866C62.5857 105.509 65.7764 106.667 67.7421 107.476C69.6862 108.309 72.7049 109.669 74.4659 110.564C76.2485 111.434 77.6503 112.239 77.6362 112.358C77.5968 112.455 75.5708 112.074 73.1316 111.514C70.6672 110.933 64.7576 109.542 59.994 108.39C55.2089 107.263 51.2356 106.307 51.1171 106.292C50.9986 106.278 50.9377 106.4 50.9739 106.562C51.0352 106.745 56.9558 108.276 64.1586 109.988C71.3652 111.747 77.3502 113.202 77.4509 113.288C77.5768 113.396 77.5878 113.536 77.5018 113.637C77.3942 113.762 75.4086 113.895 73.017 113.942C70.6254 113.989 67.3612 113.987 65.7128 113.929C64.0644 113.87 60.947 113.645 58.7453 113.419C56.5651 113.168 53.4005 112.641 51.7443 112.184Z" fill="#7D7A64"/>
<path d="M44.0206 74.8426C42.8568 74.6757 41.2294 74.2869 40.4281 73.9507C39.6052 73.6396 38.419 72.8874 36.5201 71.1344L37.6274 69.6854C38.3082 68.7865 39.2083 67.9879 40.0228 67.5951C40.7225 67.2349 42.3447 66.6613 43.6585 66.3467C44.9472 66.0107 47.7369 65.6507 49.841 65.5323C51.9452 65.414 55.1843 65.3944 57.0016 65.51C58.8403 65.6004 62.3674 65.9574 64.8349 66.2802C67.3025 66.603 70.1294 67.015 71.1316 67.218C72.0871 67.4248 72.8093 67.6499 72.7233 67.7505C72.5906 67.8549 66.9677 68.3201 60.1921 68.7583C53.395 69.2218 47.8513 69.7982 47.866 69.9849C47.8591 70.1968 51.3531 70.1336 55.626 69.8215C59.8988 69.5093 65.5039 69.116 68.0963 68.9359C70.6888 68.7557 72.8506 68.7738 72.8653 68.9605C72.88 69.1472 71.703 69.7093 70.2386 70.2001C68.7743 70.6908 65.9998 71.5428 64.1153 72.0666C62.2308 72.5903 59.1904 73.3458 57.4135 73.7436C55.6366 74.1415 52.3623 74.6101 50.1684 74.7824C47.953 74.9799 45.2059 74.9843 44.0206 74.8426Z" fill="#7D7A64"/>
<path d="M96.8633 28.2816C97.2129 35.7217 97.4383 41.8801 97.3523 41.9807C97.2447 42.1066 97.1299 42.1391 97.0543 42.0746C96.9788 42.0101 96.239 39.7669 95.4159 37.0605C94.5713 34.3794 93.4729 30.2622 92.9125 27.9109C92.3736 25.5345 91.742 21.3807 91.5294 18.6734C91.2429 14.7273 91.2871 13.1974 91.8223 11.0419C92.3611 8.93306 92.7871 8.07769 93.7118 6.99528C94.8731 5.63598 94.8946 5.61081 95.8507 6.12279C96.3683 6.43438 97.2278 7.21225 97.7496 7.87576C98.2499 8.56443 99.0244 10.0535 99.4894 11.1911C99.9079 12.3324 100.494 15.0103 100.709 17.1539C100.925 19.2974 100.995 22.8848 100.891 25.1473C100.787 27.4098 100.462 31.0517 100.161 33.1889C99.884 35.3475 99.4647 38.081 99.2548 39.2951C99.0449 40.5093 98.6981 41.4758 98.5114 41.4905C98.3247 41.5051 98.126 40.7693 98.0815 39.9039C98.037 39.0385 97.7544 33.0491 97.4603 26.6144C97.1699 20.2264 96.8201 14.8762 96.669 14.7472C96.518 14.6182 96.3743 14.5825 96.3098 14.658C96.2452 14.7335 96.4922 20.8667 96.8633 28.2816Z" fill="#7D7A64"/>
<path d="M110.091 163.514C109.467 163.634 108.353 163.51 107.628 163.238C106.923 162.941 106.107 162.418 105.819 162.042C105.531 161.665 105.164 160.872 104.951 160.255C104.738 159.638 104.661 158.657 104.775 158.014C104.914 157.393 105.358 156.466 105.766 155.987C106.175 155.509 106.882 154.937 107.308 154.692C107.735 154.447 108.636 154.259 109.315 154.229C110.019 154.221 111.025 154.471 111.568 154.804C112.11 155.137 112.862 155.735 113.225 156.176C113.589 156.617 113.924 157.601 114.03 158.344C114.139 159.134 113.986 160.179 113.657 160.769C113.349 161.333 112.66 162.138 112.176 162.552C111.692 162.966 110.741 163.416 110.091 163.514Z" fill="#7D7A64"/>
<path d="M61.2254 95.3775C60.6186 95.4252 59.5949 95.2473 58.8942 94.997C58.0462 94.6644 57.4242 94.2202 56.9203 93.4848C56.4992 92.9073 56.1274 91.7624 56.0541 90.8288C55.9368 89.3351 56.0333 89.0692 57.1946 87.7099C58.3989 86.3003 58.6035 86.2138 60.2372 86.0854C61.7524 85.9429 62.1872 86.0966 63.3844 86.9889C64.4092 87.7773 64.8518 88.3296 65.1585 89.2448C65.3283 89.9125 65.4735 90.8639 65.3953 91.3631C65.3386 91.8373 64.963 92.7356 64.5403 93.3324C64.1175 93.9292 63.4435 94.6162 63.0165 94.8611C62.5896 95.106 61.7855 95.3335 61.2254 95.3775Z" fill="#7D7A64"/>
<path d="M87.3245 94.9008C86.725 95.0418 85.6981 95.1225 85.1306 95.0731C84.5165 95.0274 83.6396 94.6266 83.0607 94.132C82.5069 93.6589 81.8231 92.7263 81.5814 92.0408C81.3181 91.3805 81.2301 90.2602 81.3655 89.5921C81.5476 88.9202 82.0559 87.9175 82.529 87.3637C83.0021 86.8099 83.9169 86.198 84.5809 85.9814C85.3131 85.7361 86.4192 85.7666 87.3569 86.0452C88.6538 86.413 89.0529 86.7104 89.7871 87.686C90.2585 88.3065 90.6586 89.2143 90.7419 89.6775C90.7786 90.1442 90.7009 90.9488 90.5582 91.5236C90.437 92.0732 89.9213 92.9826 89.4052 93.5867C88.8245 94.2663 88.0855 94.7236 87.3245 94.9008Z" fill="#7D7A64"/>
<path d="M124.631 123.203C124.161 123.498 123.332 123.704 122.793 123.723C122.161 123.749 121.457 123.452 120.853 122.936C120.215 122.391 119.835 121.732 119.711 120.959C119.588 120.288 119.727 119.361 119.97 118.872C120.239 118.405 120.848 117.794 121.39 117.516C121.91 117.264 122.786 117.054 123.354 117.104C123.874 117.157 124.701 117.514 125.154 117.901C125.632 118.31 126.047 119.099 126.177 119.864C126.304 120.582 126.187 121.484 125.94 121.926C125.671 122.393 125.105 122.954 124.631 123.203Z" fill="#7D7A64"/>
<path d="M95.4828 92.3344C95.3863 92.6003 94.9667 92.9385 94.5576 93.1115C94.0552 93.2919 93.6707 93.1812 93.2606 92.7437C92.8002 92.2633 92.7494 91.915 93.1076 91.3937C93.3584 90.9983 93.8283 90.7031 94.2269 90.6953C94.5825 90.7378 95.0713 90.9812 95.2837 91.2933C95.496 91.6054 95.5794 92.0685 95.4828 92.3344Z" fill="#7D7A64"/>
<path d="M123.934 111.939C123.96 112.265 123.752 112.61 123.458 112.751C123.185 112.866 122.783 112.828 122.556 112.634C122.355 112.462 122.279 112.092 122.376 111.826C122.472 111.56 122.877 111.341 123.229 111.337C123.75 111.39 123.876 111.497 123.934 111.939Z" fill="#7D7A64"/>
<path d="M101.951 92.7656C101.632 93.1899 101.187 93.5066 101.001 93.5213C100.789 93.5144 100.343 93.2207 100.034 92.8693C99.6235 92.4318 99.5942 92.0584 99.9309 91.5623C100.182 91.1668 100.652 90.8716 101.05 90.8638C101.406 90.9063 101.895 91.1497 102.107 91.4618C102.395 91.8384 102.334 92.2658 101.951 92.7656Z" fill="#7D7A64"/>
<path d="M125.441 109.002C125.56 109.322 125.442 109.613 125.127 109.779C124.832 109.919 124.43 109.88 124.204 109.687C124.002 109.515 124.019 109.138 124.256 108.861C124.493 108.584 124.805 108.371 124.974 108.429C125.139 108.439 125.347 108.704 125.441 109.002Z" fill="#7D7A64"/>
<path d="M108.372 92.59C108.067 93.201 107.777 93.3882 107.209 93.3389L107.231 93.3137C106.829 93.2748 106.397 93.1678 106.297 93.0818C106.171 92.9742 106.07 92.583 106.04 92.2096C106.011 91.8361 106.114 91.3584 106.265 91.1822C106.394 91.0311 106.778 90.8366 107.083 90.8361C107.41 90.8104 107.917 90.982 108.244 91.2615C108.672 91.6271 108.723 91.9754 108.372 92.59Z" fill="#7D7A64"/>
<path d="M127.955 106.621C127.977 106.901 127.812 107.196 127.561 107.286C127.31 107.376 126.95 107.287 126.767 107.043C126.608 106.821 126.532 106.451 126.611 106.257C126.711 106.038 127.056 105.94 127.343 106.011C127.677 106.079 127.958 106.362 127.955 106.621Z" fill="#7D7A64"/>
<path d="M114.492 93.3774C114.216 93.7513 113.739 93.9531 113.333 93.8676C112.927 93.7821 112.575 93.481 112.427 93.0934C112.257 92.731 112.239 92.1924 112.331 91.8798C112.489 91.4917 112.873 91.2972 113.462 91.3213C114.191 91.3345 114.485 91.4992 114.691 92.0232C114.839 92.4108 114.768 93.0034 114.492 93.3774Z" fill="#7D7A64"/>
<path d="M129.89 104.355C129.912 104.636 129.748 104.93 129.496 105.02C129.245 105.111 128.886 105.021 128.702 104.778C128.544 104.555 128.468 104.185 128.568 103.966C128.647 103.772 128.991 103.675 129.3 103.721C129.613 103.814 129.893 104.097 129.89 104.355Z" fill="#7D7A64"/>
<path d="M122.036 92.8552C121.81 93.2722 121.348 93.6607 121.025 93.7331C120.702 93.8054 120.199 93.6806 119.947 93.4655C119.67 93.2289 119.554 92.651 119.704 92.1695C119.858 91.4295 120.033 91.2748 120.615 91.2056C121.01 91.1511 121.588 91.3405 121.894 91.6453C122.272 91.9679 122.322 92.3161 122.036 92.8552Z" fill="#7D7A64"/>
<path d="M132.293 102.053C132.315 102.333 132.15 102.628 131.899 102.718C131.647 102.808 131.288 102.719 131.105 102.475C130.946 102.253 130.87 101.883 130.97 101.664C131.049 101.47 131.394 101.372 131.703 101.419C132.015 101.512 132.296 101.795 132.293 102.053Z" fill="#7D7A64"/>
<path d="M134.741 99.137C135.093 99.4381 135.115 99.7182 134.767 100.074C134.488 100.401 134.208 100.423 133.974 100.137C133.79 99.8927 133.757 99.4726 133.947 99.1993C134.14 98.871 134.405 98.8503 134.741 99.137Z" fill="#7D7A64"/>
<path d="M125.144 73.8247C125.144 74.13 124.962 74.4966 124.668 74.6371C124.395 74.7524 124.043 74.7566 123.892 74.6276C123.766 74.52 123.715 74.1718 123.787 73.8844C123.854 73.5503 124.163 73.2913 124.515 73.2871C124.935 73.2541 125.086 73.3831 125.144 73.8247Z" fill="#7D7A64"/>
<path d="M122.628 70.4999C122.964 70.7866 122.988 71.0978 122.702 71.4334C122.415 71.7691 122.104 71.7935 121.768 71.5068C121.432 71.22 121.408 70.9089 121.695 70.5732C121.982 70.2376 122.293 70.2131 122.628 70.4999Z" fill="#7D7A64"/>
<path d="M120.962 68.4234C120.984 68.7034 120.82 68.9982 120.568 69.0883C120.317 69.1785 119.958 69.0893 119.774 68.8454C119.616 68.623 119.54 68.2533 119.619 68.0592C119.719 67.84 120.063 67.7425 120.351 67.8139C120.685 67.8816 120.965 68.1648 120.962 68.4234Z" fill="#7D7A64"/>
<path d="M119.447 66.1706C119.3 66.3935 119.006 66.534 118.819 66.5487C118.607 66.5419 118.309 66.3305 118.129 66.1332C117.945 65.8894 117.941 65.5374 118.113 65.3361C118.285 65.1347 118.709 65.1484 119.058 65.4028C119.403 65.6105 119.572 65.9729 119.447 66.1706Z" fill="#7D7A64"/>
<path d="M117.463 62.7336C117.488 63.0603 117.327 63.4017 117.101 63.5134C116.871 63.5784 116.491 63.5144 116.314 63.3639C116.113 63.1918 116.012 62.8006 116.105 62.488C116.194 62.1287 116.463 61.9667 116.819 62.0092C117.153 62.0769 117.408 62.3387 117.463 62.7336Z" fill="#7D7A64"/>
<path d="M116.502 59.4745C116.528 59.8012 116.32 60.1463 116.026 60.2868C115.753 60.4022 115.351 60.3633 115.124 60.1698C114.923 59.9977 114.847 59.628 114.943 59.3621C115.04 59.0962 115.445 58.8765 115.797 58.8723C116.318 58.9253 116.444 59.0328 116.502 59.4745Z" fill="#7D7A64"/>
<path d="M118.153 54.4838C117.557 54.6715 116.742 54.759 116.336 54.6735C115.952 54.5628 115.208 54.0576 114.718 53.509C114.082 52.878 113.793 52.1961 113.781 51.4456C113.766 50.6484 114.041 49.9693 114.622 49.2896C115.289 48.5093 115.809 48.2571 116.857 48.1512C117.884 48.0706 118.484 48.2348 119.139 48.7939C119.642 49.2241 120.185 49.8624 120.333 50.25C120.481 50.6376 120.497 51.4348 120.354 52.0096C120.211 52.5844 119.893 53.3139 119.656 53.5908C119.42 53.8677 118.745 54.2494 118.153 54.4838Z" fill="#7D7A64"/>
<path d="M111.975 29.3491C111.376 29.4902 110.349 29.5708 109.781 29.5215C109.142 29.4543 108.29 29.075 107.661 28.5373C107.057 28.0212 106.402 27.1568 106.146 26.5898C105.915 26.0444 105.827 24.9241 105.956 24.1626C106.101 23.3292 106.585 22.305 107.079 21.726C107.552 21.1723 108.374 20.5676 108.948 20.4051C109.519 20.1959 110.549 20.1619 111.239 20.2721C111.929 20.3823 112.928 20.844 113.481 21.3171C114.035 21.7902 114.719 22.7228 114.982 23.3831C115.271 24.0649 115.351 25.0919 115.173 25.8104C115.016 26.5037 114.486 27.5316 114.013 28.0854C113.475 28.7147 112.715 29.1971 111.975 29.3491Z" fill="#7D7A64"/>
<path d="M76.5202 157.345C75.9532 157.601 75.0448 157.696 74.47 157.553L74.4952 157.575C73.9204 157.432 73.2376 157.11 72.914 156.877C72.5868 156.598 72.0828 155.862 71.7766 155.252C71.4452 154.621 71.3215 153.644 71.4857 153.044C71.65 152.444 72.0114 151.664 72.334 151.287C72.6781 150.884 73.3237 150.434 73.801 150.232C74.2316 150.034 75.2585 149.953 75.9949 150.06C76.7527 150.141 77.5719 150.406 77.8236 150.621C78.0502 150.814 78.4823 151.532 78.7922 152.188C79.0806 152.87 79.2294 153.868 79.083 154.396C78.9403 154.971 78.5537 155.73 78.1881 156.158C77.8225 156.585 77.0872 157.089 76.5202 157.345Z" fill="#7D7A64"/>
<path d="M68.5718 143.152C68.0048 143.408 67.0964 143.503 66.5468 143.381C65.972 143.239 65.1129 142.766 64.588 142.361C63.9335 141.802 63.5769 141.149 63.4139 140.269C63.3122 139.573 63.4183 138.531 63.658 137.996C63.9193 137.435 64.4963 136.709 64.941 136.392C65.3606 136.054 66.3729 135.787 67.1701 135.771C68.2977 135.776 68.8043 135.948 69.786 136.787C70.7714 137.672 70.9408 138.034 71.0471 139.388C71.0669 140.537 70.9064 141.184 70.3472 141.838C69.9386 142.317 69.1387 142.896 68.5718 143.152Z" fill="#7D7A64"/>
<path d="M63.0777 130.01C62.4531 130.13 61.5804 130.081 61.1923 129.924C60.8294 129.788 60.2147 129.437 59.8623 129.136C59.4884 128.86 59.0275 128.074 58.8361 127.432C58.6196 126.768 58.6249 125.64 58.85 124.918C59.0714 124.149 59.598 123.38 60.1037 122.941C60.5915 122.574 61.4852 122.292 62.2357 122.28C62.9395 122.272 63.8951 122.479 64.3624 122.747C64.8045 122.994 65.3582 123.467 65.621 123.822C65.8585 124.156 66.1437 125.096 66.2527 125.886C66.3984 127.143 66.284 127.481 65.3593 128.563C64.5421 129.52 63.9824 129.869 63.0777 130.01Z" fill="#7D7A64"/>
<path d="M59.3396 54.6183C58.8408 54.8454 57.857 54.8757 57.2103 54.7152C56.517 54.5583 55.766 54.265 55.5394 54.0715C55.2877 53.8564 54.8556 53.1389 54.5205 52.4607C54.2322 51.7789 54.044 50.8778 54.0791 50.4289C54.1395 50.0015 54.6121 49.1424 55.1498 48.5131C55.7782 47.7436 56.4621 47.2829 57.2016 47.1308C57.8226 46.9646 58.8427 47.0959 59.5003 47.3965C60.352 47.7757 60.8555 48.2058 61.3883 49.0094C61.8419 49.7017 62.0227 50.5094 61.8768 51.3428C61.7881 52.0073 61.3695 52.956 60.9824 53.4091C60.6168 53.837 59.8851 54.3876 59.3396 54.6183Z" fill="#7D7A64"/>
<path d="M70.2734 42.8399C69.6167 43.1498 68.5038 43.3312 67.8393 43.2425C66.9125 43.1039 66.3482 42.796 65.7546 42.1147C65.2905 41.5875 64.8081 40.827 64.6602 40.4394C64.5339 40.0266 64.6042 39.1287 64.7863 38.4569C64.9825 37.6666 65.4662 36.9476 66.0148 36.4583C66.5886 35.9905 67.5038 35.6838 68.5129 35.675C69.6117 35.6122 70.3554 35.8121 70.9343 36.3067C71.3622 36.6723 71.9275 37.5907 72.1262 38.3265C72.3789 39.1521 72.3374 40.1182 72.0263 40.941C71.5757 42.0801 71.3355 42.3103 70.2734 42.8399Z" fill="#7D7A64"/>
<path d="M81.7498 31.3946C81.0863 31.9164 80.1748 32.2698 79.3346 32.3358C78.0958 32.4096 77.8766 32.3094 76.6751 31.0652C75.6032 29.9753 75.3295 29.4802 75.3532 28.586C75.3271 27.954 75.5805 26.9947 75.8705 26.5023C76.243 25.8625 76.8598 25.3444 77.721 24.948C78.4495 24.6559 79.4691 24.4819 80.0224 24.6498C80.572 24.771 81.3807 25.2006 81.8338 25.5877C82.2618 25.9533 82.8197 26.7784 83.0074 27.3742C83.1951 27.97 83.2469 28.9287 83.0575 29.5072C82.8755 30.179 82.4097 30.8262 81.7498 31.3946Z" fill="#7D7A64"/>
</g>
</svg>
