<svg width="289" height="34" viewBox="0 0 289 34" fill="none" xmlns="http://www.w3.org/2000/svg">
<path d="M287.443 29.3865C287.929 28.3162 288.351 27.1809 288.351 26.889C288.351 26.5647 288.513 26.3052 288.675 26.3052C288.87 26.3052 289 27.7648 289 33.7653L284.296 33.7329L285.399 32.5328C286.015 31.8841 286.924 30.4569 287.443 29.3865Z" fill="#EDD761"/>
<path d="M169.573 27.2458C169.54 26.9539 169.638 26.6296 169.8 26.4998C169.962 26.4025 170.384 27.1161 170.741 28.154C171.13 29.192 171.973 30.8137 172.654 31.7544C173.303 32.6626 174.049 33.5059 174.276 33.5708C174.471 33.6681 172.622 33.7329 165.583 33.7978L166.848 32.4031C167.562 31.6246 168.47 30.2948 168.892 29.3866C169.281 28.5108 169.605 27.5378 169.573 27.2458Z" fill="#EDD761"/>
<path d="M84.0388 29.3217C84.5578 28.1864 84.9794 27.0187 85.0119 26.7268C85.0119 26.3052 85.1092 26.37 85.3687 26.9539C85.5633 27.408 86.0498 28.5108 86.439 29.3865C86.7958 30.2947 87.704 31.6246 89.6826 33.7977H80.6006L81.8656 32.5652C82.5468 31.8841 83.5198 30.4245 84.0388 29.3217Z" fill="#EDD761"/>
<path d="M222.086 14.4337C223.027 13.8174 223.968 13.0389 224.195 12.6822C224.422 12.3254 224.714 12.0334 224.843 12.0334C224.973 12.0334 225.103 14.1742 225.135 21.6019L223.643 20.2072C222.832 19.4612 221.275 18.4232 220.14 17.8718C219.037 17.3529 217.902 16.8988 217.675 16.8988C217.383 16.8988 217.318 16.8015 217.513 16.6393C217.675 16.5095 218.389 16.1852 219.102 15.9581C219.816 15.6987 221.178 15.0175 222.086 14.4337Z" fill="#EDD761"/>
<path d="M163.15 15.2446C164.124 14.7256 165.421 13.8174 166.037 13.1687C166.654 12.5524 167.205 12.0334 167.27 12.0334C167.335 12.0334 167.367 14.1742 167.367 21.6019L166.005 20.272C165.226 19.5585 164.091 18.6503 163.475 18.261C162.859 17.8718 161.691 17.3529 159.42 16.6717L160.393 16.4122C160.945 16.2825 162.177 15.7635 163.15 15.2446Z" fill="#EDD761"/>
<path d="M266.457 1.39476C266.165 0.74605 265.97 0.162212 265.97 0.129777V0.0973416C265.97 0.0649061 268.013 0.0324707 275.052 0.0324707L274.565 1.16771C274.144 2.10834 274.079 4.57343 274.079 16.2502C274.079 25.3321 274.209 30.5218 274.436 31.1056C274.598 31.5921 275.149 32.3706 276.511 33.7653H265.97L266.457 32.6301C266.878 31.6894 266.943 29.1595 266.943 17.0611C266.943 4.86535 266.878 2.43269 266.457 1.39476Z" fill="#EDD761"/>
<path d="M257.505 17.7098C257.472 4.73561 257.375 1.78398 256.986 1.00553L256.532 0.0324707H265.646L265.16 1.16771C264.738 2.10834 264.673 4.6383 264.673 16.8989C264.673 29.2244 264.738 31.657 265.646 33.441H257.537L257.505 17.7098Z" fill="#EDD761"/>
<path d="M233.31 1.10284C233.083 0.681179 232.888 0.291954 232.888 0.194648C232.888 0.0973416 234.867 0.0324707 237.267 0.0324707C241.289 0.0324707 241.646 0.0649061 241.451 0.583873C241.354 0.908227 241.127 1.75155 240.965 2.46513C240.738 3.27601 240.673 7.6548 240.738 13.8175C240.867 23.1914 240.9 24.0023 241.581 25.6565C241.97 26.6295 242.749 28.0242 243.365 28.7378C244.143 29.6784 245.052 30.2623 246.544 30.8137C248.263 31.4624 249.009 31.5597 250.89 31.43C252.317 31.3327 253.679 31.0083 256.08 29.8082L255.042 30.8786C254.49 31.4948 253.323 32.3382 252.447 32.7923C251.02 33.5383 250.533 33.6031 242.424 33.6031L239.992 32.403C238.305 31.5273 237.267 30.7488 236.456 29.7109C235.84 28.9324 235.029 27.408 234.705 26.4025C234.153 24.7483 234.056 23.1589 233.894 13.1688C233.764 4.99509 233.569 1.62181 233.31 1.10284Z" fill="#EDD761"/>
<path d="M226.336 4.24904C225.752 3.08137 224.812 1.68664 224.293 1.1028L223.32 0.0648709L232.402 0L231.039 1.49203C230.261 2.30292 229.288 3.73007 228.834 4.63827C228.38 5.57889 228.023 6.61683 228.023 6.90875C228.023 7.2331 227.861 7.49258 227.698 7.49258C227.536 7.49258 227.374 7.2331 227.374 6.94118C227.374 6.61683 226.92 5.41672 226.336 4.24904Z" fill="#EDD761"/>
<path d="M206.774 1.81642C206.515 0.908227 206.287 0.162212 206.287 0.129777C206.287 0.0649061 208.104 0.0324707 214.396 0.0324707L214.364 15.8285C214.331 29.8406 214.364 31.7868 215.369 33.7653H206.287L206.774 32.403C207.196 31.2353 207.261 28.7378 207.261 17.2232C207.261 5.90328 207.196 3.14627 206.774 1.81642Z" fill="#EDD761"/>
<path d="M191.791 2.56243C191.272 2.01103 190.169 1.20015 189.261 0.778485L187.64 0.0324707H190.169C191.791 0.0324707 193.381 0.259519 194.678 0.681179C195.813 1.03797 197.24 1.68668 197.857 2.10834C198.473 2.56243 199.381 3.60037 199.868 4.47612C200.549 5.67623 200.743 6.45468 200.743 7.97915C200.776 9.2117 200.549 10.4118 200.16 11.2227C199.835 11.9363 198.992 13.0715 198.311 13.7202C197.597 14.3689 196.332 15.2771 195.424 15.6988C194.548 16.1529 193.218 16.6394 191.207 16.9962L192.667 17.4827C193.478 17.7422 194.71 18.3585 195.424 18.845C196.138 19.3315 197.078 20.1424 197.5 20.6614C197.922 21.1804 199.705 24.0022 201.457 26.9539C203.241 29.9055 204.928 32.6301 205.803 33.7977L197.208 33.7653L195.554 30.5866C194.646 28.8676 193.089 25.9808 192.148 24.1969C191.078 22.2183 189.715 20.2722 188.677 19.2342C187.769 18.2936 186.731 17.5152 186.439 17.5476C186.115 17.5476 185.92 17.3854 186.018 17.2232C186.115 17.0611 186.504 16.8989 186.894 16.8989C187.315 16.8989 188.223 16.6394 188.937 16.2826C189.651 15.9583 190.786 15.0825 191.434 14.3365C192.18 13.5256 192.862 12.3579 193.154 11.2876C193.413 10.3794 193.64 9.01708 193.64 8.3035C193.64 7.58992 193.413 6.22764 193.154 5.28701C192.894 4.37882 192.278 3.14627 191.791 2.56243Z" fill="#EDD761"/>
<path d="M176.026 17.3206C176.124 4.93022 176.059 2.10834 175.67 1.16771L175.216 0.0324707H183.26V15.7637C183.26 29.0297 183.324 31.657 184.233 33.7653H175.475L175.702 33.0517C175.832 32.6301 175.994 25.5591 176.026 17.3206Z" fill="#EDD761"/>
<path d="M168.794 4.50856C168.34 3.56793 167.367 2.17321 166.621 1.39476L165.259 0.0324707H174.827L173.66 1.10284C173.011 1.65424 172.005 3.17871 171.389 4.41125C170.773 5.67623 170.286 6.87635 170.286 7.10339C170.286 7.29801 170.124 7.42775 169.962 7.33044C169.767 7.23314 169.638 6.94122 169.638 6.68173C169.638 6.42225 169.248 5.41675 168.794 4.50856Z" fill="#EDD761"/>
<path d="M149.884 2.78948C149.722 1.88129 149.463 0.908227 149.333 0.616308C149.106 0.0649061 149.43 0.0324707 156.988 0.0324707L157.052 15.1798C157.15 28.9324 157.215 30.4569 157.734 31.3975C158.025 31.9814 158.674 32.7598 160.069 33.7977L154.652 33.7653C151.636 33.7653 149.203 33.7329 149.203 33.668C149.203 33.6356 149.43 33.0193 149.69 32.3057C150.046 31.2678 150.144 28.4459 150.176 17.7098C150.176 10.3794 150.046 3.66524 149.884 2.78948Z" fill="#EDD761"/>
<path d="M135.546 2.30295C134.573 1.68668 133.081 0.908227 132.173 0.616308C130.681 0.0973415 130.616 0.0649061 131.622 0.0324707C132.173 0.0324707 133.73 0.259519 134.995 0.519002C136.293 0.810921 138.466 1.55694 139.796 2.20564C141.385 2.98409 142.844 3.98959 144.012 5.1897C145.018 6.1952 146.283 7.88184 146.834 8.95221C147.385 10.0226 148.099 11.7741 148.358 12.8445C148.65 13.9148 148.877 15.9583 148.877 17.3854C148.877 18.8126 148.65 20.8236 148.391 21.8291C148.131 22.867 147.548 24.4239 147.094 25.3321C146.639 26.2079 145.666 27.635 144.92 28.4459C144.142 29.2568 142.877 30.3596 142.066 30.8461C141.255 31.3651 139.666 32.1435 138.498 32.5652C137.33 33.0193 135.676 33.4734 133.146 33.7653L134.573 33.2139C135.384 32.8896 136.811 31.8841 137.785 31.0083C138.952 29.9379 139.893 28.6405 140.639 27.116C141.255 25.8835 141.969 23.8076 142.228 22.5751C142.488 21.3425 142.715 19.0721 142.715 17.5476C142.715 15.7961 142.488 13.85 142.066 12.1958C141.677 10.7686 140.931 8.72516 140.347 7.68723C139.763 6.6493 138.855 5.25457 138.304 4.60587C137.752 3.95716 136.52 2.91922 135.546 2.30295Z" fill="#EDD761"/>
<path d="M117.059 17.0935C117.059 5.02752 116.961 2.17321 116.572 1.20015L116.118 0.0324707L120.562 0.0649061C123.027 0.0649061 124.843 0.129777 124.649 0.227083C124.324 0.32439 124.227 3.56793 124.227 15.0501C124.227 23.7103 124.357 30.1974 124.551 30.9434C124.746 31.5921 125.297 32.5003 126.822 33.7653H116.118L116.605 32.7922C117.026 31.9814 117.091 29.5811 117.059 17.0935Z" fill="#EDD761"/>
<path d="M108.497 2.33539C107.783 1.39476 106.972 0.486567 106.713 0.32439C106.421 0.162212 108.302 0.0324707 111.092 0.0324707C115.827 0.0324707 115.925 0.0324707 115.146 0.583873C114.724 0.908227 113.849 1.9786 113.2 2.95166C112.551 3.92472 111.838 5.48162 111.189 7.97915L110.475 6.03302C110.119 4.96266 109.21 3.30845 108.497 2.33539Z" fill="#EDD761"/>
<path d="M91.1421 15.0501C85.2389 6.97365 80.4384 0.291954 80.4384 0.194648C80.4384 0.0973415 82.7738 0.0324707 90.8178 0.0324707L92.0503 1.84885C92.699 2.82192 97.467 9.56849 102.624 16.834C107.781 24.0996 112.809 30.8786 115.631 33.7653H101.521L101.878 32.8896C102.105 32.3706 102.17 31.4948 102.04 30.8461C101.911 30.0677 98.5374 25.1699 91.1421 15.0501Z" fill="#EDD761"/>
<path d="M68.2114 1.97855C67.4978 1.36227 66.6545 0.681131 66.2977 0.454083C65.9733 0.25947 65.8112 0.0648577 66.0058 0.0648577C66.2004 0.0324222 67.2708 0.25947 68.4384 0.551389C69.6061 0.810872 71.2603 1.45958 72.1685 1.97855C73.0443 2.46508 74.6012 3.73006 75.5742 4.76799C76.5797 5.83836 77.7798 7.49257 78.2664 8.46563C78.7529 9.43869 79.3692 11.0605 79.6286 12.0335C79.8881 13.0066 80.1152 15.2122 80.1152 16.8988C80.1152 18.6828 79.8881 20.7911 79.5962 21.9263C79.3367 22.9967 78.6232 24.7482 78.0717 25.8186C77.4879 26.889 76.3851 28.4459 75.5742 29.2567C74.7633 30.0676 73.4984 31.1056 72.7199 31.5921C71.9739 32.0786 70.5143 32.6949 69.4764 32.9544C68.4709 33.2139 67.4978 33.4409 67.3032 33.4409C67.1086 33.4409 67.4978 33.0192 68.1141 32.5003C68.7303 32.0138 69.6385 30.8785 70.0926 30.0028C70.5792 29.127 71.2927 27.1809 71.682 25.6564C72.1577 23.8184 72.4496 21.4939 72.5577 18.6828C72.6875 15.6339 72.5902 13.5256 72.2009 11.0605C71.8442 8.62781 71.3576 7.00604 70.5792 5.38427C69.9629 4.08685 68.925 2.62726 68.2114 1.97855Z" fill="#EDD761"/>
<path d="M55.1737 2.01096C56.3089 1.39468 57.9631 0.713539 58.8713 0.486491C59.7471 0.259443 60.785 0.0648307 61.1418 0.0648307C61.6284 0.0323953 61.5635 0.162137 60.8175 0.551362C60.2661 0.810845 59.4227 1.42712 58.9362 1.91365C58.4172 2.40018 57.5739 3.43811 57.055 4.249C56.536 5.05989 55.79 6.64922 55.4332 7.8169C54.9467 9.3738 54.7196 11.1902 54.5899 14.6283C54.4926 17.2232 54.5574 20.564 54.752 22.0885C54.9467 23.6129 55.4007 25.6564 55.7575 26.6294C56.1143 27.6025 56.8928 29.127 57.4766 30.0352C58.0605 30.9109 59.1633 32.111 59.9093 32.6949C60.6877 33.2787 61.1094 33.7652 60.9148 33.7652C60.6877 33.7652 59.5525 33.5057 58.3848 33.1814C57.2171 32.857 55.6278 32.2408 54.8169 31.7542C54.006 31.3001 52.5789 30.0676 51.6058 29.0297C50.6652 27.9593 49.4651 26.3051 48.9785 25.332C48.4596 24.359 47.8433 22.6723 47.5514 21.6019C47.2595 20.5316 47.0324 18.3584 47.0324 16.7366C47.0324 15.1149 47.2595 12.9741 47.5189 11.9362C47.7784 10.9307 48.3947 9.30893 48.8812 8.40073C49.3353 7.46011 50.503 5.87077 51.4112 4.89771C52.3518 3.92465 54.0385 2.59479 55.1737 2.01096Z" fill="#EDD761"/>
<path d="M40.4446 3.79498C40.2176 3.0814 39.504 1.94616 38.8553 1.26502L37.6227 0.0324707H42.261C46.4776 0.0324707 46.802 0.0649061 46.1208 0.519002C45.7316 0.778486 44.9207 1.68668 44.3693 2.53C43.7855 3.40576 42.8448 4.96266 41.2555 7.97915L41.0285 6.51956C40.8987 5.70867 40.6392 4.47612 40.4446 3.79498Z" fill="#EDD761"/>
<path d="M18.1654 7.33044C16.7058 4.02203 15.9922 2.78948 14.7921 1.58937L13.2352 0.0324707H19.9169C26.1445 0.0324707 26.5986 0.0649061 26.3716 0.616308C26.2418 0.908227 26.1445 1.75155 26.177 2.46513C26.177 3.30845 27.6041 7.29801 34.3831 24.1969L31.7883 28.9973C30.3611 31.6246 29.0962 33.7653 28.9664 33.7653C28.8042 33.7653 28.2204 32.4355 27.6041 30.7813C27.0203 29.127 25.0417 24.132 23.2578 19.6559C21.4738 15.2122 19.1709 9.66579 18.1654 7.33044Z" fill="#EDD761"/>
<path d="M2.30292 10.4118C0.0973062 5.28701 0 4.96266 0 2.56243V0.0324707H4.70314C9.04948 0.0324707 9.37384 0.0649061 9.17922 0.583873C9.04948 0.908227 8.95218 1.75155 8.98461 2.46513C8.98461 3.30845 10.4118 7.26557 17.2232 24.1969L14.6932 28.8676C13.2985 31.43 11.9687 33.6031 11.7416 33.6356C11.5146 33.7329 11.028 32.7923 10.4766 31.1056C10.0225 29.6136 8.49808 25.5592 7.10336 22.0886C5.74107 18.618 3.5679 13.3634 2.30292 10.4118Z" fill="#EDD761"/>
</svg>
